<?xml version="1.0" encoding="utf-8" standalone="no"?>
<!DOCTYPE svg PUBLIC "-//W3C//DTD SVG 1.1//EN"
  "http://www.w3.org/Graphics/SVG/1.1/DTD/svg11.dtd">
<svg xmlns:xlink="http://www.w3.org/1999/xlink" width="712.8pt" height="425.402858pt" viewBox="0 0 712.8 425.402858" xmlns="http://www.w3.org/2000/svg" version="1.1">
 <metadata>
  <rdf:RDF xmlns:dc="http://purl.org/dc/elements/1.1/" xmlns:cc="http://creativecommons.org/ns#" xmlns:rdf="http://www.w3.org/1999/02/22-rdf-syntax-ns#">
   <cc:Work>
    <dc:type rdf:resource="http://purl.org/dc/dcmitype/StillImage"/>
    <dc:date>2023-03-18T01:28:42.768590</dc:date>
    <dc:format>image/svg+xml</dc:format>
    <dc:creator>
     <cc:Agent>
      <dc:title>Matplotlib v3.6.2, https://matplotlib.org/</dc:title>
     </cc:Agent>
    </dc:creator>
   </cc:Work>
  </rdf:RDF>
 </metadata>
 <defs>
  <style type="text/css">*{stroke-linejoin: round; stroke-linecap: butt}</style>
 </defs>
 <g id="figure_1">
  <g id="patch_1">
   <path d="M 0 425.402858 
L 712.8 425.402858 
L 712.8 0 
L 0 0 
L 0 425.402858 
z
" style="fill: none; opacity: 0"/>
  </g>
  <g id="axes_1">
   <g id="patch_2">
    <path d="M 7.2 190.905278 
L 351 190.905278 
L 351 7.2 
L 7.2 7.2 
z
" style="fill: #eaeaf2"/>
   </g>
   <g id="matplotlib.axis_1"/>
   <g id="matplotlib.axis_2"/>
   <g id="patch_3">
    <path d="M -1.817705 198.936109 
L 370.162623 198.936109 
L 370.162623 -1.834686 
L -1.817705 -1.834686 
z
" clip-path="url(#pc05d22aa7e)" style="fill: #0000ff; opacity: 0.1"/>
   </g>
   <g id="patch_4">
    <path d="M 9.454426 28.280933 
L 10.668266 29.267377 
L 12.084992 30.186952 
L 13.690394 31.044339 
L 15.470265 31.844224 
L 17.410395 32.591288 
L 19.496574 33.290216 
L 21.714595 33.945689 
L 24.050247 34.562392 
L 26.489323 35.145008 
L 29.017612 35.698219 
L 31.620907 36.22671 
L 34.284998 36.735162 
L 36.995675 37.22826 
L 39.738731 37.710686 
L 42.499955 38.187124 
L 45.26514 38.662256 
L 48.020076 39.140767 
L 50.750553 39.627339 
L 53.442364 40.126655 
L 56.081299 40.643398 
L 58.653149 41.182253 
L 61.143705 41.747901 
L 63.538758 42.345026 
L 65.824099 42.978311 
L 67.985519 43.65244 
L 70.008809 44.372095 
L 71.879761 45.14196 
L 73.584164 45.966718 
L 75.107811 46.851052 
L 76.436491 47.799645 
L 77.556331 48.817085 
L 78.463701 49.905013 
L 79.166871 51.06165 
L 79.674779 52.285025 
L 79.996365 53.573167 
L 80.140568 54.924105 
L 80.116325 56.335868 
L 79.932576 57.806484 
L 79.598259 59.333983 
L 79.122314 60.916394 
L 78.513678 62.551744 
L 77.781291 64.238064 
L 76.934091 65.973382 
L 75.981017 67.755726 
L 74.931008 69.583127 
L 73.793002 71.453612 
L 72.575939 73.36521 
L 71.288756 75.315951 
L 69.940393 77.303863 
L 68.539788 79.326976 
L 67.095881 81.383317 
L 65.617609 83.470916 
L 64.113911 85.587802 
L 62.593727 87.732004 
L 61.065995 89.90155 
L 59.539653 92.094469 
L 58.023641 94.308791 
L 56.526897 96.542544 
L 55.05836 98.793757 
L 53.626968 101.060459 
L 52.241661 103.340678 
L 50.911376 105.632444 
L 49.645054 107.933786 
L 48.451631 110.242732 
L 47.340048 112.557312 
L 46.319243 114.875553 
L 45.398154 117.195485 
L 44.585721 119.515138 
L 43.890881 121.832539 
L 43.322575 124.145718 
L 42.88974 126.452703 
L 42.601315 128.751524 
L 42.466239 131.040208 
L 42.49345 133.316787 
L 42.691888 135.579287 
L 43.070491 137.825737 
L 43.637403 140.053939 
L 44.389173 142.258358 
L 45.313577 144.430934 
L 46.398174 146.563547 
L 47.630521 148.648076 
L 48.998178 150.6764 
L 50.488703 152.640398 
L 52.089655 154.531949 
L 53.788592 156.342932 
L 55.573073 158.065227 
L 57.430655 159.690712 
L 59.348899 161.211266 
L 61.315363 162.618769 
L 63.317604 163.9051 
L 65.343182 165.062137 
L 67.379655 166.081759 
L 69.414581 166.955847 
L 71.43552 167.676278 
L 73.430029 168.234932 
L 75.385668 168.623688 
L 77.289997 168.834428 
L 79.133657 168.862112 
L 80.916224 168.710632 
L 82.638886 168.385494 
L 84.302832 167.892203 
L 85.90925 167.236264 
L 87.459328 166.423183 
L 88.954256 165.458465 
L 90.395222 164.347615 
L 91.783413 163.096138 
L 93.12002 161.709539 
L 94.40623 160.193324 
L 95.643232 158.552998 
L 96.832214 156.794065 
L 97.974365 154.922033 
L 99.070873 152.942404 
L 100.122927 150.860686 
L 101.131715 148.682382 
L 102.098426 146.412999 
L 103.024249 144.058041 
L 103.910371 141.623013 
L 104.757982 139.113421 
L 105.56827 136.534771 
L 106.342423 133.892566 
L 107.08163 131.192314 
L 107.78708 128.439517 
L 108.45996 125.639683 
L 109.10146 122.798316 
L 109.712768 119.920921 
L 110.295073 117.013004 
L 110.849562 114.08007 
L 111.377425 111.127623 
L 111.87985 108.16117 
L 112.358025 105.186215 
L 112.81314 102.208264 
L 113.246382 99.232822 
L 113.65894 96.265394 
L 114.052002 93.311485 
L 114.426758 90.376601 
L 114.784395 87.466247 
L 115.126102 84.585927 
L 115.453068 81.741148 
L 115.766481 78.937414 
L 116.06753 76.180231 
L 116.357403 73.475104 
L 116.637288 70.827537 
L 116.908375 68.243037 
L 117.171851 65.727109 
L 117.428905 63.285257 
L 117.680726 60.922987 
L 117.928502 58.645804 
L 118.173422 56.459214 
L 118.416675 54.368721 
L 118.659448 52.379832 
L 118.90293 50.49805 
L 119.14831 48.728881 
L 119.396776 47.077831 
L 119.649517 45.550405 
L 119.907721 44.152107 
L 120.172577 42.888444 
L 120.445273 41.76492 
L 120.726998 40.78704 
L 121.018941 39.960311 
L 121.322289 39.290236 
L 121.638232 38.782322 
L 121.967957 38.442073 
L 122.312644 38.274888 
L 122.673082 38.28183 
L 123.049543 38.458204 
L 123.442261 38.798919 
L 123.851474 39.298883 
L 124.277416 39.953004 
L 124.720323 40.75619 
L 125.180432 41.70335 
L 125.657977 42.789392 
L 126.153195 44.009225 
L 126.666321 45.357757 
L 127.197592 46.829896 
L 127.747242 48.42055 
L 128.315508 50.124628 
L 128.902626 51.937038 
L 129.508831 53.852689 
L 130.134359 55.866488 
L 130.779445 57.973344 
L 131.444326 60.168166 
L 132.129237 62.445862 
L 132.834414 64.801339 
L 133.560093 67.229507 
L 134.306509 69.725274 
L 135.073899 72.283548 
L 135.862497 74.899237 
L 136.672541 77.56725 
L 137.504265 80.282495 
L 138.357905 83.03988 
L 139.233697 85.834314 
L 140.131877 88.660705 
L 141.052681 91.513961 
L 141.996343 94.388991 
L 142.963102 97.280703 
L 143.95319 100.184005 
L 144.966846 103.093806 
L 146.004304 106.005013 
L 147.0658 108.912536 
L 148.151569 111.811283 
L 149.261849 114.696161 
L 150.396874 117.56208 
L 151.55688 120.403947 
L 152.742102 123.216671 
L 153.952778 125.995161 
L 155.189142 128.734324 
L 156.45143 131.429069 
L 157.739878 134.074304 
L 159.054722 136.664937 
L 160.396197 139.195878 
L 161.76454 141.662033 
L 163.159985 144.058312 
L 164.582769 146.379623 
L 166.033128 148.620874 
L 167.511297 150.776974 
L 169.017512 152.84283 
L 170.552009 154.813352 
L 172.115023 156.683447 
L 173.70679 158.448023 
L 175.327547 160.10199 
L 176.977528 161.640255 
L 178.65697 163.057727 
L 180.366108 164.349314 
L 182.105179 165.509925 
L 183.874417 166.534467 
L 185.674059 167.417849 
L 187.50434 168.15498 
L 189.365496 168.740767 
L 191.257763 169.17012 
L 193.181377 169.437945 
L 195.136573 169.539153 
L 197.123587 169.46865 
L 199.142655 169.221346 
L 201.194012 168.792149 
L 203.275893 168.178973 
L 205.379732 167.389936 
L 207.495525 166.435319 
L 209.613268 165.325402 
L 211.722956 164.070467 
L 213.814584 162.680794 
L 215.878147 161.166663 
L 217.903641 159.538356 
L 219.881061 157.806154 
L 221.800402 155.980336 
L 223.651659 154.071185 
L 225.424828 152.08898 
L 227.109904 150.044003 
L 228.696882 147.946534 
L 230.175758 145.806855 
L 231.536526 143.635245 
L 232.769183 141.441985 
L 233.863722 139.237357 
L 234.810141 137.031642 
L 235.598433 134.835119 
L 236.218594 132.65807 
L 236.66062 130.510775 
L 236.914505 128.403516 
L 236.970245 126.346573 
L 236.817835 124.350227 
L 236.447271 122.424758 
L 235.848548 120.580448 
L 235.01166 118.827577 
L 233.930261 117.174309 
L 232.618882 115.616726 
L 231.099454 114.146625 
L 229.393917 112.7558 
L 227.524211 111.436044 
L 225.512274 110.179152 
L 223.380047 108.976915 
L 221.149469 107.821129 
L 218.842479 106.703586 
L 216.481018 105.616079 
L 214.087025 104.550403 
L 211.682438 103.498351 
L 209.289199 102.451716 
L 206.929247 101.402292 
L 204.62452 100.341872 
L 202.396959 99.262249 
L 200.268503 98.155218 
L 198.261092 97.012571 
L 196.396665 95.826102 
L 194.697162 94.587605 
L 193.184523 93.288873 
L 191.880686 91.921699 
L 190.807592 90.477878 
L 189.987181 88.949202 
L 189.4391 87.328694 
L 189.161278 85.621046 
L 189.139652 83.837384 
L 189.360035 81.988906 
L 189.808237 80.086806 
L 190.470073 78.142281 
L 191.331352 76.166528 
L 192.377888 74.170741 
L 193.595493 72.166118 
L 194.969978 70.163853 
L 196.487156 68.175143 
L 198.132839 66.211184 
L 199.892838 64.283173 
L 201.752967 62.402304 
L 203.699036 60.579774 
L 205.716859 58.826779 
L 207.792246 57.154515 
L 209.911011 55.574178 
L 212.058965 54.096963 
L 214.22192 52.734068 
L 216.385688 51.496688 
L 218.536082 50.396018 
L 220.658913 49.443256 
L 222.739994 48.649596 
L 224.765607 48.025764 
L 226.730082 47.574422 
L 228.63451 47.291459 
L 230.480191 47.172556 
L 232.268425 47.213393 
L 234.000513 47.409649 
L 235.677755 47.757003 
L 237.30145 48.251137 
L 238.872899 48.887729 
L 240.393402 49.66246 
L 241.864259 50.57101 
L 243.28677 51.609058 
L 244.662236 52.772284 
L 245.991957 54.056368 
L 247.277233 55.45699 
L 248.519363 56.969829 
L 249.719649 58.590566 
L 250.87939 60.314881 
L 251.999886 62.138453 
L 253.082438 64.056962 
L 254.128345 66.066088 
L 255.138909 68.161511 
L 256.115428 70.338911 
L 257.059204 72.593967 
L 257.971536 74.922359 
L 258.853725 77.319768 
L 259.70707 79.781873 
L 260.532872 82.304354 
L 261.332431 84.88289 
L 262.107047 87.513163 
L 262.85802 90.19085 
L 263.586651 92.911633 
L 264.29424 95.671192 
L 264.982086 98.465205 
L 265.65149 101.289353 
L 266.303752 104.139316 
L 266.940172 107.010774 
L 267.562051 109.899406 
L 268.170688 112.800892 
L 268.767384 115.710913 
L 269.353438 118.625147 
L 269.930152 121.539276 
L 270.498825 124.448978 
L 271.060757 127.349933 
L 271.617248 130.237822 
L 272.169599 133.108325 
L 272.71911 135.95712 
L 273.267081 138.779888 
L 273.814812 141.57231 
L 274.363603 144.330063 
L 274.914754 147.04883 
L 275.469566 149.724289 
L 276.029338 152.352119 
L 276.595372 154.928002 
L 277.168966 157.447617 
L 277.751422 159.906644 
L 278.344038 162.300762 
L 278.948117 164.625652 
L 279.564956 166.876993 
L 280.195858 169.050466 
L 280.842121 171.141749 
L 281.505047 173.146523 
L 282.185935 175.060468 
L 282.886085 176.879264 
L 283.606797 178.59859 
L 284.349373 180.214126 
L 285.115111 181.721552 
L 285.905312 183.116548 
L 286.721276 184.394795 
L 287.564304 185.55197 
L 288.435695 186.583756 
L 289.33675 187.485831 
L 290.268768 188.253875 
L 291.23305 188.883568 
L 292.230428 189.371729 
L 293.259714 189.720092 
L 294.319173 189.931714 
L 295.407074 190.009654 
L 296.521683 189.956968 
L 297.661267 189.776716 
L 298.824094 189.471955 
L 300.00843 189.045742 
L 301.212542 188.501137 
L 302.434697 187.841196 
L 303.673163 187.068977 
L 304.926206 186.187539 
L 306.192093 185.19994 
L 307.469092 184.109237 
L 308.755469 182.918488 
L 310.04949 181.630751 
L 311.349425 180.249084 
L 312.653538 178.776545 
L 313.960098 177.216192 
L 315.267371 175.571083 
L 316.573624 173.844275 
L 317.877124 172.038827 
L 319.176139 170.157796 
L 320.468935 168.20424 
L 321.753779 166.181218 
L 323.028939 164.091787 
L 324.29268 161.939005 
L 325.543271 159.72593 
L 326.778978 157.455619 
L 327.998069 155.131132 
L 329.198809 152.755525 
L 330.379467 150.331857 
L 331.538309 147.863185 
L 332.673602 145.352567 
L 333.783614 142.803062 
L 334.86661 140.217727 
L 335.920859 137.59962 
L 336.944627 134.951799 
L 337.936181 132.277321 
L 338.893789 129.579246 
L 339.815717 126.86063 
L 340.700232 124.124532 
L 341.545601 121.374009 
L 342.350091 118.61212 
L 343.11197 115.841922 
L 343.829503 113.066473 
L 344.500959 110.288832 
L 345.124604 107.512055 
L 345.698706 104.739201 
L 346.22153 101.973328 
L 346.691345 99.217494 
L 347.106417 96.474756 
L 347.465013 93.748173 
L 347.7654 91.040802 
L 348.005846 88.355701 
L 348.184617 85.695929 
L 348.299979 83.064543 
L 348.350201 80.464601 
L 348.33355 77.899161 
L 348.248291 75.371281 
L 348.092693 72.884018 
L 347.865021 70.440431 
L 347.563547 68.043575 
L 347.18731 65.695676 
L 346.737261 63.396911 
L 346.214633 61.14715 
L 345.620665 58.946261 
L 344.956592 56.794112 
L 344.223649 54.690574 
L 343.423074 52.635513 
L 342.556102 50.6288 
L 341.623969 48.670302 
L 340.627912 46.759889 
L 339.569167 44.897429 
L 338.44897 43.08279 
L 337.268557 41.315842 
L 336.029164 39.596454 
L 334.732027 37.924493 
L 333.378383 36.299829 
L 331.969468 34.72233 
L 330.506517 33.191865 
L 328.990767 31.708303 
L 327.423455 30.271512 
L 325.805815 28.881362 
L 324.139085 27.53772 
L 322.4245 26.240456 
L 320.663297 24.989438 
L 318.856712 23.784535 
L 317.005981 22.625616 
L 315.11234 21.512549 
L 313.177025 20.445203 
L 311.201272 19.423447 
L 309.186318 18.447149 
L 307.133399 17.516179 
L 305.04375 16.630405 
L 302.918608 15.789695 
L 300.75921 14.993918 
L 298.56679 14.242943 
L 296.342587 13.536639 
L 294.087834 12.874875 
L 291.803769 12.257518 
L 289.491629 11.684439 
L 287.152648 11.155505 
L 284.788063 10.670585 
L 282.39911 10.229548 
L 279.987026 9.832262 
L 277.553047 9.478597 
L 275.098408 9.168421 
L 272.624346 8.901603 
L 270.132097 8.678011 
L 267.622897 8.497515 
L 265.097982 8.359982 
L 262.558589 8.265282 
L 260.005953 8.213283 
L 257.441311 8.203854 
z
" clip-path="url(#pc05d22aa7e)" style="fill: #ff0000; opacity: 0.2; stroke: #ff0000; stroke-width: 0.3; stroke-linejoin: miter"/>
   </g>
   <g id="patch_5">
    <path d="M 72.578361 118.627791 
L 140.211148 118.627791 
L 140.211148 58.396553 
L 72.578361 58.396553 
z
" clip-path="url(#pc05d22aa7e)" style="fill: #808080; opacity: 0.5"/>
   </g>
   <g id="line2d_1">
    <path d="M 95.122623 208.974649 
L 125.557377 8.203854 
" clip-path="url(#pc05d22aa7e)" style="fill: none; stroke-dasharray: 11.1,4.8; stroke-dashoffset: 0; stroke: #000000; stroke-opacity: 0.7; stroke-width: 3"/>
   </g>
   <g id="patch_6">
    <path d="M 7.2 190.905278 
L 7.2 7.2 
" style="fill: none"/>
   </g>
   <g id="patch_7">
    <path d="M 351 190.905278 
L 351 7.2 
" style="fill: none"/>
   </g>
   <g id="patch_8">
    <path d="M 7.2 190.905278 
L 351 190.905278 
" style="fill: none"/>
   </g>
   <g id="patch_9">
    <path d="M 7.2 7.2 
L 351 7.2 
" style="fill: none"/>
   </g>
   <g id="text_1">
    <!-- Data subspace (data local) -->
    <g style="fill: #262626" transform="translate(107.731875 205.112858) scale(0.12 -0.12)">
     <defs>
      <path id="LiberationSans-44" d="M 4316 2247 
Q 4316 1697 4150 1276 
Q 3984 856 3696 573 
Q 3409 291 3017 145 
Q 2625 0 2172 0 
L 525 0 
L 525 4403 
L 1981 4403 
Q 2491 4403 2920 4276 
Q 3350 4150 3659 3886 
Q 3969 3622 4142 3215 
Q 4316 2809 4316 2247 
z
M 3716 2247 
Q 3716 2694 3587 3011 
Q 3459 3328 3228 3531 
Q 2997 3734 2675 3829 
Q 2353 3925 1969 3925 
L 1122 3925 
L 1122 478 
L 2103 478 
Q 2450 478 2745 590 
Q 3041 703 3256 925 
Q 3472 1147 3594 1478 
Q 3716 1809 3716 2247 
z
" transform="scale(0.015625)"/>
      <path id="LiberationSans-61" d="M 1294 -63 
Q 784 -63 528 206 
Q 272 475 272 944 
Q 272 1278 398 1492 
Q 525 1706 729 1828 
Q 934 1950 1196 1997 
Q 1459 2044 1731 2050 
L 2491 2063 
L 2491 2247 
Q 2491 2456 2447 2603 
Q 2403 2750 2312 2840 
Q 2222 2931 2086 2973 
Q 1950 3016 1766 3016 
Q 1603 3016 1472 2992 
Q 1341 2969 1244 2908 
Q 1147 2847 1087 2742 
Q 1028 2638 1009 2478 
L 422 2531 
Q 453 2731 540 2898 
Q 628 3066 789 3187 
Q 950 3309 1192 3376 
Q 1434 3444 1778 3444 
Q 2416 3444 2737 3151 
Q 3059 2859 3059 2306 
L 3059 850 
Q 3059 600 3125 473 
Q 3191 347 3375 347 
Q 3422 347 3469 353 
Q 3516 359 3559 369 
L 3559 19 
Q 3453 -6 3348 -18 
Q 3244 -31 3125 -31 
Q 2966 -31 2852 11 
Q 2738 53 2666 139 
Q 2594 225 2556 351 
Q 2519 478 2509 647 
L 2491 647 
Q 2400 484 2292 353 
Q 2184 222 2040 130 
Q 1897 38 1714 -12 
Q 1531 -63 1294 -63 
z
M 1422 359 
Q 1691 359 1892 457 
Q 2094 556 2226 709 
Q 2359 863 2425 1044 
Q 2491 1225 2491 1391 
L 2491 1669 
L 1875 1656 
Q 1669 1653 1483 1626 
Q 1297 1600 1156 1522 
Q 1016 1444 933 1303 
Q 850 1163 850 934 
Q 850 659 998 509 
Q 1147 359 1422 359 
z
" transform="scale(0.015625)"/>
      <path id="LiberationSans-74" d="M 1731 25 
Q 1603 -9 1470 -29 
Q 1338 -50 1163 -50 
Q 488 -50 488 716 
L 488 2972 
L 97 2972 
L 97 3381 
L 509 3381 
L 675 4138 
L 1050 4138 
L 1050 3381 
L 1675 3381 
L 1675 2972 
L 1050 2972 
L 1050 838 
Q 1050 594 1129 495 
Q 1209 397 1406 397 
Q 1488 397 1564 409 
Q 1641 422 1731 441 
L 1731 25 
z
" transform="scale(0.015625)"/>
      <path id="LiberationSans-20" transform="scale(0.015625)"/>
      <path id="LiberationSans-73" d="M 2969 934 
Q 2969 697 2876 511 
Q 2784 325 2609 198 
Q 2434 72 2179 4 
Q 1925 -63 1597 -63 
Q 1303 -63 1067 -17 
Q 831 28 653 128 
Q 475 228 354 392 
Q 234 556 178 794 
L 675 891 
Q 747 619 972 492 
Q 1197 366 1597 366 
Q 1778 366 1929 391 
Q 2081 416 2190 477 
Q 2300 538 2361 639 
Q 2422 741 2422 891 
Q 2422 1044 2350 1142 
Q 2278 1241 2150 1306 
Q 2022 1372 1839 1420 
Q 1656 1469 1438 1528 
Q 1234 1581 1034 1647 
Q 834 1713 673 1820 
Q 513 1928 413 2087 
Q 313 2247 313 2488 
Q 313 2950 642 3192 
Q 972 3434 1603 3434 
Q 2163 3434 2492 3237 
Q 2822 3041 2909 2606 
L 2403 2544 
Q 2375 2675 2300 2764 
Q 2225 2853 2119 2908 
Q 2013 2963 1880 2986 
Q 1747 3009 1603 3009 
Q 1222 3009 1040 2893 
Q 859 2778 859 2544 
Q 859 2406 926 2317 
Q 994 2228 1114 2167 
Q 1234 2106 1403 2061 
Q 1572 2016 1775 1966 
Q 1909 1931 2050 1892 
Q 2191 1853 2323 1798 
Q 2456 1744 2573 1670 
Q 2691 1597 2778 1494 
Q 2866 1391 2917 1253 
Q 2969 1116 2969 934 
z
" transform="scale(0.015625)"/>
      <path id="LiberationSans-75" d="M 981 3381 
L 981 1238 
Q 981 991 1017 825 
Q 1053 659 1134 557 
Q 1216 456 1348 414 
Q 1481 372 1678 372 
Q 1878 372 2039 442 
Q 2200 513 2314 645 
Q 2428 778 2490 973 
Q 2553 1169 2553 1422 
L 2553 3381 
L 3116 3381 
L 3116 722 
Q 3116 616 3117 498 
Q 3119 381 3122 276 
Q 3125 172 3128 97 
Q 3131 22 3134 0 
L 2603 0 
Q 2600 16 2597 84 
Q 2594 153 2589 242 
Q 2584 331 2581 423 
Q 2578 516 2578 578 
L 2569 578 
Q 2488 431 2391 312 
Q 2294 194 2166 111 
Q 2038 28 1872 -17 
Q 1706 -63 1488 -63 
Q 1206 -63 1003 6 
Q 800 75 669 219 
Q 538 363 477 588 
Q 416 813 416 1128 
L 416 3381 
L 981 3381 
z
" transform="scale(0.015625)"/>
      <path id="LiberationSans-62" d="M 3291 1706 
Q 3291 -63 2047 -63 
Q 1663 -63 1408 76 
Q 1153 216 994 525 
L 988 525 
Q 988 444 983 356 
Q 978 269 973 194 
Q 969 119 964 66 
Q 959 13 956 0 
L 413 0 
Q 416 28 419 95 
Q 422 163 425 256 
Q 428 350 429 462 
Q 431 575 431 697 
L 431 4638 
L 994 4638 
L 994 3316 
Q 994 3222 992 3136 
Q 991 3050 988 2984 
Q 984 2906 981 2838 
L 994 2838 
Q 1150 3163 1408 3303 
Q 1666 3444 2047 3444 
Q 2688 3444 2989 3012 
Q 3291 2581 3291 1706 
z
M 2700 1688 
Q 2700 2038 2656 2288 
Q 2613 2538 2516 2698 
Q 2419 2859 2269 2934 
Q 2119 3009 1903 3009 
Q 1681 3009 1511 2937 
Q 1341 2866 1227 2706 
Q 1113 2547 1053 2287 
Q 994 2028 994 1653 
Q 994 1291 1053 1044 
Q 1113 797 1227 642 
Q 1341 488 1509 420 
Q 1678 353 1897 353 
Q 2103 353 2253 425 
Q 2403 497 2503 656 
Q 2603 816 2651 1070 
Q 2700 1325 2700 1688 
z
" transform="scale(0.015625)"/>
      <path id="LiberationSans-70" d="M 3291 1706 
Q 3291 1322 3228 997 
Q 3166 672 3020 437 
Q 2875 203 2636 70 
Q 2397 -63 2047 -63 
Q 1684 -63 1412 75 
Q 1141 213 997 525 
L 981 525 
Q 984 519 986 469 
Q 988 419 989 344 
Q 991 269 992 176 
Q 994 84 994 -6 
L 994 -1328 
L 431 -1328 
L 431 2691 
Q 431 2813 429 2925 
Q 428 3038 425 3130 
Q 422 3222 419 3287 
Q 416 3353 413 3381 
L 956 3381 
Q 959 3372 964 3315 
Q 969 3259 973 3179 
Q 978 3100 983 3009 
Q 988 2919 988 2838 
L 1000 2838 
Q 1078 3000 1178 3114 
Q 1278 3228 1406 3301 
Q 1534 3375 1692 3408 
Q 1850 3441 2047 3441 
Q 2397 3441 2636 3316 
Q 2875 3191 3020 2964 
Q 3166 2738 3228 2417 
Q 3291 2097 3291 1706 
z
M 2700 1694 
Q 2700 2006 2662 2250 
Q 2625 2494 2533 2662 
Q 2441 2831 2287 2918 
Q 2134 3006 1903 3006 
Q 1716 3006 1550 2953 
Q 1384 2900 1261 2750 
Q 1138 2600 1066 2336 
Q 994 2072 994 1650 
Q 994 1291 1053 1042 
Q 1113 794 1227 641 
Q 1341 488 1509 420 
Q 1678 353 1897 353 
Q 2131 353 2286 443 
Q 2441 534 2533 706 
Q 2625 878 2662 1126 
Q 2700 1375 2700 1694 
z
" transform="scale(0.015625)"/>
      <path id="LiberationSans-63" d="M 859 1706 
Q 859 1416 901 1172 
Q 944 928 1044 751 
Q 1144 575 1308 478 
Q 1472 381 1713 381 
Q 2013 381 2214 543 
Q 2416 706 2463 1044 
L 3031 1006 
Q 3003 797 2909 603 
Q 2816 409 2655 262 
Q 2494 116 2262 26 
Q 2031 -63 1728 -63 
Q 1331 -63 1053 71 
Q 775 206 601 442 
Q 428 678 350 998 
Q 272 1319 272 1694 
Q 272 2034 328 2295 
Q 384 2556 486 2751 
Q 588 2947 725 3080 
Q 863 3213 1023 3292 
Q 1184 3372 1362 3408 
Q 1541 3444 1722 3444 
Q 2006 3444 2228 3366 
Q 2450 3288 2611 3152 
Q 2772 3016 2872 2831 
Q 2972 2647 3013 2434 
L 2434 2391 
Q 2391 2672 2212 2837 
Q 2034 3003 1706 3003 
Q 1466 3003 1305 2923 
Q 1144 2844 1044 2683 
Q 944 2522 901 2278 
Q 859 2034 859 1706 
z
" transform="scale(0.015625)"/>
      <path id="LiberationSans-65" d="M 863 1572 
Q 863 1306 917 1082 
Q 972 859 1086 698 
Q 1200 538 1378 448 
Q 1556 359 1806 359 
Q 2172 359 2392 506 
Q 2613 653 2691 878 
L 3184 738 
Q 3131 597 3036 455 
Q 2941 313 2781 198 
Q 2622 84 2383 10 
Q 2144 -63 1806 -63 
Q 1056 -63 664 384 
Q 272 831 272 1713 
Q 272 2188 390 2517 
Q 509 2847 715 3053 
Q 922 3259 1197 3351 
Q 1472 3444 1784 3444 
Q 2209 3444 2495 3306 
Q 2781 3169 2954 2926 
Q 3128 2684 3201 2356 
Q 3275 2028 3275 1647 
L 3275 1572 
L 863 1572 
z
M 2694 2003 
Q 2647 2538 2422 2783 
Q 2197 3028 1775 3028 
Q 1634 3028 1479 2983 
Q 1325 2938 1194 2822 
Q 1063 2706 972 2507 
Q 881 2309 869 2003 
L 2694 2003 
z
" transform="scale(0.015625)"/>
      <path id="LiberationSans-28" d="M 397 1663 
Q 397 2097 462 2494 
Q 528 2891 668 3256 
Q 809 3622 1028 3965 
Q 1247 4309 1550 4638 
L 2094 4638 
Q 1800 4309 1586 3964 
Q 1372 3619 1234 3251 
Q 1097 2884 1030 2487 
Q 963 2091 963 1656 
Q 963 1222 1030 825 
Q 1097 428 1234 59 
Q 1372 -309 1586 -653 
Q 1800 -997 2094 -1325 
L 1550 -1325 
Q 1247 -997 1028 -653 
Q 809 -309 668 56 
Q 528 422 462 817 
Q 397 1213 397 1650 
L 397 1663 
z
" transform="scale(0.015625)"/>
      <path id="LiberationSans-64" d="M 2566 544 
Q 2409 219 2151 78 
Q 1894 -63 1513 -63 
Q 872 -63 570 368 
Q 269 800 269 1675 
Q 269 3444 1513 3444 
Q 1897 3444 2153 3303 
Q 2409 3163 2566 2856 
L 2572 2856 
Q 2572 2888 2570 2955 
Q 2569 3022 2567 3095 
Q 2566 3169 2566 3234 
Q 2566 3300 2566 3328 
L 2566 4638 
L 3128 4638 
L 3128 697 
Q 3128 575 3129 462 
Q 3131 350 3134 256 
Q 3138 163 3141 95 
Q 3144 28 3147 0 
L 2609 0 
Q 2603 31 2598 89 
Q 2594 147 2589 222 
Q 2584 297 2581 380 
Q 2578 463 2578 544 
L 2566 544 
z
M 859 1694 
Q 859 1344 903 1094 
Q 947 844 1044 683 
Q 1141 522 1291 447 
Q 1441 372 1656 372 
Q 1878 372 2048 444 
Q 2219 516 2333 677 
Q 2447 838 2506 1097 
Q 2566 1356 2566 1731 
Q 2566 2091 2506 2339 
Q 2447 2588 2331 2741 
Q 2216 2894 2048 2961 
Q 1881 3028 1663 3028 
Q 1456 3028 1306 2956 
Q 1156 2884 1056 2725 
Q 956 2566 907 2311 
Q 859 2056 859 1694 
z
" transform="scale(0.015625)"/>
      <path id="LiberationSans-6c" d="M 431 0 
L 431 4638 
L 994 4638 
L 994 0 
L 431 0 
z
" transform="scale(0.015625)"/>
      <path id="LiberationSans-6f" d="M 3291 1694 
Q 3291 806 2900 371 
Q 2509 -63 1766 -63 
Q 1413 -63 1134 43 
Q 856 150 664 369 
Q 472 588 370 917 
Q 269 1247 269 1694 
Q 269 3444 1784 3444 
Q 2178 3444 2464 3334 
Q 2750 3225 2933 3006 
Q 3116 2788 3203 2459 
Q 3291 2131 3291 1694 
z
M 2700 1694 
Q 2700 2088 2639 2344 
Q 2578 2600 2461 2753 
Q 2344 2906 2175 2967 
Q 2006 3028 1794 3028 
Q 1578 3028 1404 2964 
Q 1231 2900 1109 2745 
Q 988 2591 923 2334 
Q 859 2078 859 1694 
Q 859 1300 928 1042 
Q 997 784 1117 631 
Q 1238 478 1402 415 
Q 1566 353 1759 353 
Q 1975 353 2150 414 
Q 2325 475 2447 628 
Q 2569 781 2634 1040 
Q 2700 1300 2700 1694 
z
" transform="scale(0.015625)"/>
      <path id="LiberationSans-29" d="M 1734 1650 
Q 1734 1213 1668 817 
Q 1603 422 1462 56 
Q 1322 -309 1103 -653 
Q 884 -997 581 -1325 
L 38 -1325 
Q 331 -997 545 -653 
Q 759 -309 896 59 
Q 1034 428 1101 825 
Q 1169 1222 1169 1656 
Q 1169 2091 1101 2487 
Q 1034 2884 896 3251 
Q 759 3619 545 3964 
Q 331 4309 38 4638 
L 581 4638 
Q 884 4309 1103 3965 
Q 1322 3622 1462 3256 
Q 1603 2891 1668 2494 
Q 1734 2097 1734 1663 
L 1734 1650 
z
" transform="scale(0.015625)"/>
     </defs>
     <use xlink:href="#LiberationSans-44"/>
     <use xlink:href="#LiberationSans-61" x="72.216797"/>
     <use xlink:href="#LiberationSans-74" x="127.832031"/>
     <use xlink:href="#LiberationSans-61" x="155.615234"/>
     <use xlink:href="#LiberationSans-20" x="211.230469"/>
     <use xlink:href="#LiberationSans-73" x="239.013672"/>
     <use xlink:href="#LiberationSans-75" x="289.013672"/>
     <use xlink:href="#LiberationSans-62" x="344.628906"/>
     <use xlink:href="#LiberationSans-73" x="400.244141"/>
     <use xlink:href="#LiberationSans-70" x="450.244141"/>
     <use xlink:href="#LiberationSans-61" x="505.859375"/>
     <use xlink:href="#LiberationSans-63" x="561.474609"/>
     <use xlink:href="#LiberationSans-65" x="611.474609"/>
     <use xlink:href="#LiberationSans-20" x="667.089844"/>
     <use xlink:href="#LiberationSans-28" x="694.873047"/>
     <use xlink:href="#LiberationSans-64" x="728.173828"/>
     <use xlink:href="#LiberationSans-61" x="783.789062"/>
     <use xlink:href="#LiberationSans-74" x="839.404297"/>
     <use xlink:href="#LiberationSans-61" x="867.1875"/>
     <use xlink:href="#LiberationSans-20" x="922.802734"/>
     <use xlink:href="#LiberationSans-6c" x="950.585938"/>
     <use xlink:href="#LiberationSans-6f" x="972.802734"/>
     <use xlink:href="#LiberationSans-63" x="1028.417969"/>
     <use xlink:href="#LiberationSans-61" x="1078.417969"/>
     <use xlink:href="#LiberationSans-6c" x="1134.033203"/>
     <use xlink:href="#LiberationSans-29" x="1156.25"/>
    </g>
   </g>
  </g>
  <g id="axes_2">
   <g id="patch_10">
    <path d="M 361.8 190.905278 
L 705.6 190.905278 
L 705.6 7.2 
L 361.8 7.2 
z
" style="fill: #eaeaf2"/>
   </g>
   <g id="matplotlib.axis_3"/>
   <g id="matplotlib.axis_4"/>
   <g id="patch_11">
    <path d="M 352.782295 198.936109 
L 724.762623 198.936109 
L 724.762623 -1.834686 
L 352.782295 -1.834686 
z
" clip-path="url(#p61595178de)" style="fill: #0000ff; opacity: 0.1"/>
   </g>
   <g id="patch_12">
    <path d="M 364.054426 28.280933 
L 365.268266 29.267377 
L 366.684992 30.186952 
L 368.290394 31.044339 
L 370.070265 31.844224 
L 372.010395 32.591288 
L 374.096574 33.290216 
L 376.314595 33.945689 
L 378.650247 34.562392 
L 381.089323 35.145008 
L 383.617612 35.698219 
L 386.220907 36.22671 
L 388.884998 36.735162 
L 391.595675 37.22826 
L 394.338731 37.710686 
L 397.099955 38.187124 
L 399.86514 38.662256 
L 402.620076 39.140767 
L 405.350553 39.627339 
L 408.042364 40.126655 
L 410.681299 40.643398 
L 413.253149 41.182253 
L 415.743705 41.747901 
L 418.138758 42.345026 
L 420.424099 42.978311 
L 422.585519 43.65244 
L 424.608809 44.372095 
L 426.479761 45.14196 
L 428.184164 45.966718 
L 429.707811 46.851052 
L 431.036491 47.799645 
L 432.156331 48.817085 
L 433.063701 49.905013 
L 433.766871 51.06165 
L 434.274779 52.285025 
L 434.596365 53.573167 
L 434.740568 54.924105 
L 434.716325 56.335868 
L 434.532576 57.806484 
L 434.198259 59.333983 
L 433.722314 60.916394 
L 433.113678 62.551744 
L 432.381291 64.238064 
L 431.534091 65.973382 
L 430.581017 67.755726 
L 429.531008 69.583127 
L 428.393002 71.453612 
L 427.175939 73.36521 
L 425.888756 75.315951 
L 424.540393 77.303863 
L 423.139788 79.326976 
L 421.695881 81.383317 
L 420.217609 83.470916 
L 418.713911 85.587802 
L 417.193727 87.732004 
L 415.665995 89.90155 
L 414.139653 92.094469 
L 412.623641 94.308791 
L 411.126897 96.542544 
L 409.65836 98.793757 
L 408.226968 101.060459 
L 406.841661 103.340678 
L 405.511376 105.632444 
L 404.245054 107.933786 
L 403.051631 110.242732 
L 401.940048 112.557312 
L 400.919243 114.875553 
L 399.998154 117.195485 
L 399.185721 119.515138 
L 398.490881 121.832539 
L 397.922575 124.145718 
L 397.48974 126.452703 
L 397.201315 128.751524 
L 397.066239 131.040208 
L 397.09345 133.316787 
L 397.291888 135.579287 
L 397.670491 137.825737 
L 398.237403 140.053939 
L 398.989173 142.258358 
L 399.913577 144.430934 
L 400.998174 146.563547 
L 402.230521 148.648076 
L 403.598178 150.6764 
L 405.088703 152.640398 
L 406.689655 154.531949 
L 408.388592 156.342932 
L 410.173073 158.065227 
L 412.030655 159.690712 
L 413.948899 161.211266 
L 415.915363 162.618769 
L 417.917604 163.9051 
L 419.943182 165.062137 
L 421.979655 166.081759 
L 424.014581 166.955847 
L 426.03552 167.676278 
L 428.030029 168.234932 
L 429.985668 168.623688 
L 431.889997 168.834428 
L 433.733657 168.862112 
L 435.516224 168.710632 
L 437.238886 168.385494 
L 438.902832 167.892203 
L 440.50925 167.236264 
L 442.059328 166.423183 
L 443.554256 165.458465 
L 444.995222 164.347615 
L 446.383413 163.096138 
L 447.72002 161.709539 
L 449.00623 160.193324 
L 450.243232 158.552998 
L 451.432214 156.794065 
L 452.574365 154.922033 
L 453.670873 152.942404 
L 454.722927 150.860686 
L 455.731715 148.682382 
L 456.698426 146.412999 
L 457.624249 144.058041 
L 458.510371 141.623013 
L 459.357982 139.113421 
L 460.16827 136.534771 
L 460.942423 133.892566 
L 461.68163 131.192314 
L 462.38708 128.439517 
L 463.05996 125.639683 
L 463.70146 122.798316 
L 464.312768 119.920921 
L 464.895073 117.013004 
L 465.449562 114.08007 
L 465.977425 111.127623 
L 466.47985 108.16117 
L 466.958025 105.186215 
L 467.41314 102.208264 
L 467.846382 99.232822 
L 468.25894 96.265394 
L 468.652002 93.311485 
L 469.026758 90.376601 
L 469.384395 87.466247 
L 469.726102 84.585927 
L 470.053068 81.741148 
L 470.366481 78.937414 
L 470.66753 76.180231 
L 470.957403 73.475104 
L 471.237288 70.827537 
L 471.508375 68.243037 
L 471.771851 65.727109 
L 472.028905 63.285257 
L 472.280726 60.922987 
L 472.528502 58.645804 
L 472.773422 56.459214 
L 473.016675 54.368721 
L 473.259448 52.379832 
L 473.50293 50.49805 
L 473.74831 48.728881 
L 473.996776 47.077831 
L 474.249517 45.550405 
L 474.507721 44.152107 
L 474.772577 42.888444 
L 475.045273 41.76492 
L 475.326998 40.78704 
L 475.618941 39.960311 
L 475.922289 39.290236 
L 476.238232 38.782322 
L 476.567957 38.442073 
L 476.912644 38.274888 
L 477.273082 38.28183 
L 477.649543 38.458204 
L 478.042261 38.798919 
L 478.451474 39.298883 
L 478.877416 39.953004 
L 479.320323 40.75619 
L 479.780432 41.70335 
L 480.257977 42.789392 
L 480.753195 44.009225 
L 481.266321 45.357757 
L 481.797592 46.829896 
L 482.347242 48.42055 
L 482.915508 50.124628 
L 483.502626 51.937038 
L 484.108831 53.852689 
L 484.734359 55.866488 
L 485.379445 57.973344 
L 486.044326 60.168166 
L 486.729237 62.445862 
L 487.434414 64.801339 
L 488.160093 67.229507 
L 488.906509 69.725274 
L 489.673899 72.283548 
L 490.462497 74.899237 
L 491.272541 77.56725 
L 492.104265 80.282495 
L 492.957905 83.03988 
L 493.833697 85.834314 
L 494.731877 88.660705 
L 495.652681 91.513961 
L 496.596343 94.388991 
L 497.563102 97.280703 
L 498.55319 100.184005 
L 499.566846 103.093806 
L 500.604304 106.005013 
L 501.6658 108.912536 
L 502.751569 111.811283 
L 503.861849 114.696161 
L 504.996874 117.56208 
L 506.15688 120.403947 
L 507.342102 123.216671 
L 508.552778 125.995161 
L 509.789142 128.734324 
L 511.05143 131.429069 
L 512.339878 134.074304 
L 513.654722 136.664937 
L 514.996197 139.195878 
L 516.36454 141.662033 
L 517.759985 144.058312 
L 519.182769 146.379623 
L 520.633128 148.620874 
L 522.111297 150.776974 
L 523.617512 152.84283 
L 525.152009 154.813352 
L 526.715023 156.683447 
L 528.30679 158.448023 
L 529.927547 160.10199 
L 531.577528 161.640255 
L 533.25697 163.057727 
L 534.966108 164.349314 
L 536.705179 165.509925 
L 538.474417 166.534467 
L 540.274059 167.417849 
L 542.10434 168.15498 
L 543.965496 168.740767 
L 545.857763 169.17012 
L 547.781377 169.437945 
L 549.736573 169.539153 
L 551.723587 169.46865 
L 553.742655 169.221346 
L 555.794012 168.792149 
L 557.875893 168.178973 
L 559.979732 167.389936 
L 562.095525 166.435319 
L 564.213268 165.325402 
L 566.322956 164.070467 
L 568.414584 162.680794 
L 570.478147 161.166663 
L 572.503641 159.538356 
L 574.481061 157.806154 
L 576.400402 155.980336 
L 578.251659 154.071185 
L 580.024828 152.08898 
L 581.709904 150.044003 
L 583.296882 147.946534 
L 584.775758 145.806855 
L 586.136526 143.635245 
L 587.369183 141.441985 
L 588.463722 139.237357 
L 589.410141 137.031642 
L 590.198433 134.835119 
L 590.818594 132.65807 
L 591.26062 130.510775 
L 591.514505 128.403516 
L 591.570245 126.346573 
L 591.417835 124.350227 
L 591.047271 122.424758 
L 590.448548 120.580448 
L 589.61166 118.827577 
L 588.530261 117.174309 
L 587.218882 115.616726 
L 585.699454 114.146625 
L 583.993917 112.7558 
L 582.124211 111.436044 
L 580.112274 110.179152 
L 577.980047 108.976915 
L 575.749469 107.821129 
L 573.442479 106.703586 
L 571.081018 105.616079 
L 568.687025 104.550403 
L 566.282438 103.498351 
L 563.889199 102.451716 
L 561.529247 101.402292 
L 559.22452 100.341872 
L 556.996959 99.262249 
L 554.868503 98.155218 
L 552.861092 97.012571 
L 550.996665 95.826102 
L 549.297162 94.587605 
L 547.784523 93.288873 
L 546.480686 91.921699 
L 545.407592 90.477878 
L 544.587181 88.949202 
L 544.0391 87.328694 
L 543.761278 85.621046 
L 543.739652 83.837384 
L 543.960035 81.988906 
L 544.408237 80.086806 
L 545.070073 78.142281 
L 545.931352 76.166528 
L 546.977888 74.170741 
L 548.195493 72.166118 
L 549.569978 70.163853 
L 551.087156 68.175143 
L 552.732839 66.211184 
L 554.492838 64.283173 
L 556.352967 62.402304 
L 558.299036 60.579774 
L 560.316859 58.826779 
L 562.392246 57.154515 
L 564.511011 55.574178 
L 566.658965 54.096963 
L 568.82192 52.734068 
L 570.985688 51.496688 
L 573.136082 50.396018 
L 575.258913 49.443256 
L 577.339994 48.649596 
L 579.365607 48.025764 
L 581.330082 47.574422 
L 583.23451 47.291459 
L 585.080191 47.172556 
L 586.868425 47.213393 
L 588.600513 47.409649 
L 590.277755 47.757003 
L 591.90145 48.251137 
L 593.472899 48.887729 
L 594.993402 49.66246 
L 596.464259 50.57101 
L 597.88677 51.609058 
L 599.262236 52.772284 
L 600.591957 54.056368 
L 601.877233 55.45699 
L 603.119363 56.969829 
L 604.319649 58.590566 
L 605.47939 60.314881 
L 606.599886 62.138453 
L 607.682438 64.056962 
L 608.728345 66.066088 
L 609.738909 68.161511 
L 610.715428 70.338911 
L 611.659204 72.593967 
L 612.571536 74.922359 
L 613.453725 77.319768 
L 614.30707 79.781873 
L 615.132872 82.304354 
L 615.932431 84.88289 
L 616.707047 87.513163 
L 617.45802 90.19085 
L 618.186651 92.911633 
L 618.89424 95.671192 
L 619.582086 98.465205 
L 620.25149 101.289353 
L 620.903752 104.139316 
L 621.540172 107.010774 
L 622.162051 109.899406 
L 622.770688 112.800892 
L 623.367384 115.710913 
L 623.953438 118.625147 
L 624.530152 121.539276 
L 625.098825 124.448978 
L 625.660757 127.349933 
L 626.217248 130.237822 
L 626.769599 133.108325 
L 627.31911 135.95712 
L 627.867081 138.779888 
L 628.414812 141.57231 
L 628.963603 144.330063 
L 629.514754 147.04883 
L 630.069566 149.724289 
L 630.629338 152.352119 
L 631.195372 154.928002 
L 631.768966 157.447617 
L 632.351422 159.906644 
L 632.944038 162.300762 
L 633.548117 164.625652 
L 634.164956 166.876993 
L 634.795858 169.050466 
L 635.442121 171.141749 
L 636.105047 173.146523 
L 636.785935 175.060468 
L 637.486085 176.879264 
L 638.206797 178.59859 
L 638.949373 180.214126 
L 639.715111 181.721552 
L 640.505312 183.116548 
L 641.321276 184.394795 
L 642.164304 185.55197 
L 643.035695 186.583756 
L 643.93675 187.485831 
L 644.868768 188.253875 
L 645.83305 188.883568 
L 646.830428 189.371729 
L 647.859714 189.720092 
L 648.919173 189.931714 
L 650.007074 190.009654 
L 651.121683 189.956968 
L 652.261267 189.776716 
L 653.424094 189.471955 
L 654.60843 189.045742 
L 655.812542 188.501137 
L 657.034697 187.841196 
L 658.273163 187.068977 
L 659.526206 186.187539 
L 660.792093 185.19994 
L 662.069092 184.109237 
L 663.355469 182.918488 
L 664.64949 181.630751 
L 665.949425 180.249084 
L 667.253538 178.776545 
L 668.560098 177.216192 
L 669.867371 175.571083 
L 671.173624 173.844275 
L 672.477124 172.038827 
L 673.776139 170.157796 
L 675.068935 168.20424 
L 676.353779 166.181218 
L 677.628939 164.091787 
L 678.89268 161.939005 
L 680.143271 159.72593 
L 681.378978 157.455619 
L 682.598069 155.131132 
L 683.798809 152.755525 
L 684.979467 150.331857 
L 686.138309 147.863185 
L 687.273602 145.352567 
L 688.383614 142.803062 
L 689.46661 140.217727 
L 690.520859 137.59962 
L 691.544627 134.951799 
L 692.536181 132.277321 
L 693.493789 129.579246 
L 694.415717 126.86063 
L 695.300232 124.124532 
L 696.145601 121.374009 
L 696.950091 118.61212 
L 697.71197 115.841922 
L 698.429503 113.066473 
L 699.100959 110.288832 
L 699.724604 107.512055 
L 700.298706 104.739201 
L 700.82153 101.973328 
L 701.291345 99.217494 
L 701.706417 96.474756 
L 702.065013 93.748173 
L 702.3654 91.040802 
L 702.605846 88.355701 
L 702.784617 85.695929 
L 702.899979 83.064543 
L 702.950201 80.464601 
L 702.93355 77.899161 
L 702.848291 75.371281 
L 702.692693 72.884018 
L 702.465021 70.440431 
L 702.163547 68.043575 
L 701.78731 65.695676 
L 701.337261 63.396911 
L 700.814633 61.14715 
L 700.220665 58.946261 
L 699.556592 56.794112 
L 698.823649 54.690574 
L 698.023074 52.635513 
L 697.156102 50.6288 
L 696.223969 48.670302 
L 695.227912 46.759889 
L 694.169167 44.897429 
L 693.04897 43.08279 
L 691.868557 41.315842 
L 690.629164 39.596454 
L 689.332027 37.924493 
L 687.978383 36.299829 
L 686.569468 34.72233 
L 685.106517 33.191865 
L 683.590767 31.708303 
L 682.023455 30.271512 
L 680.405815 28.881362 
L 678.739085 27.53772 
L 677.0245 26.240456 
L 675.263297 24.989438 
L 673.456712 23.784535 
L 671.605981 22.625616 
L 669.71234 21.512549 
L 667.777025 20.445203 
L 665.801272 19.423447 
L 663.786318 18.447149 
L 661.733399 17.516179 
L 659.64375 16.630405 
L 657.518608 15.789695 
L 655.35921 14.993918 
L 653.16679 14.242943 
L 650.942587 13.536639 
L 648.687834 12.874875 
L 646.403769 12.257518 
L 644.091629 11.684439 
L 641.752648 11.155505 
L 639.388063 10.670585 
L 636.99911 10.229548 
L 634.587026 9.832262 
L 632.153047 9.478597 
L 629.698408 9.168421 
L 627.224346 8.901603 
L 624.732097 8.678011 
L 622.222897 8.497515 
L 619.697982 8.359982 
L 617.158589 8.265282 
L 614.605953 8.213283 
L 612.041311 8.203854 
z
" clip-path="url(#p61595178de)" style="fill: #ff0000; opacity: 0.2; stroke: #ff0000; stroke-width: 0.3; stroke-linejoin: miter"/>
   </g>
   <g id="patch_13">
    <path d="M 352.782295 198.936109 
L 724.762623 198.936109 
L 724.762623 -1.834686 
L 352.782295 -1.834686 
z
" clip-path="url(#p61595178de)" style="fill: #808080; opacity: 0.5"/>
   </g>
   <g id="line2d_2">
    <path d="M 449.722623 208.974649 
L 480.157377 8.203854 
" clip-path="url(#p61595178de)" style="fill: none; stroke-dasharray: 11.1,4.8; stroke-dashoffset: 0; stroke: #000000; stroke-opacity: 0.7; stroke-width: 3"/>
   </g>
   <g id="patch_14">
    <path d="M 361.8 190.905278 
L 361.8 7.2 
" style="fill: none"/>
   </g>
   <g id="patch_15">
    <path d="M 705.6 190.905278 
L 705.6 7.2 
" style="fill: none"/>
   </g>
   <g id="patch_16">
    <path d="M 361.8 190.905278 
L 705.6 190.905278 
" style="fill: none"/>
   </g>
   <g id="patch_17">
    <path d="M 361.8 7.2 
L 705.6 7.2 
" style="fill: none"/>
   </g>
   <g id="text_2">
    <!-- Full data space (data global) -->
    <g style="fill: #262626" transform="translate(457.994062 205.112858) scale(0.12 -0.12)">
     <defs>
      <path id="LiberationSans-46" d="M 1122 3916 
L 1122 2278 
L 3578 2278 
L 3578 1784 
L 1122 1784 
L 1122 0 
L 525 0 
L 525 4403 
L 3653 4403 
L 3653 3916 
L 1122 3916 
z
" transform="scale(0.015625)"/>
      <path id="LiberationSans-67" d="M 1713 -1328 
Q 1422 -1328 1197 -1268 
Q 972 -1209 812 -1098 
Q 653 -988 553 -834 
Q 453 -681 409 -494 
L 975 -413 
Q 1031 -647 1223 -773 
Q 1416 -900 1728 -900 
Q 1919 -900 2075 -847 
Q 2231 -794 2340 -676 
Q 2450 -559 2509 -371 
Q 2569 -184 2569 84 
L 2569 628 
L 2563 628 
Q 2500 500 2408 383 
Q 2316 266 2183 175 
Q 2050 84 1875 29 
Q 1700 -25 1475 -25 
Q 1153 -25 923 83 
Q 694 191 548 406 
Q 403 622 336 942 
Q 269 1263 269 1684 
Q 269 2091 336 2416 
Q 403 2741 554 2967 
Q 706 3194 948 3314 
Q 1191 3434 1538 3434 
Q 1897 3434 2161 3270 
Q 2425 3106 2569 2803 
L 2575 2803 
Q 2575 2881 2579 2978 
Q 2584 3075 2589 3161 
Q 2594 3247 2600 3309 
Q 2606 3372 2613 3381 
L 3147 3381 
Q 3144 3353 3141 3286 
Q 3138 3219 3134 3125 
Q 3131 3031 3129 2917 
Q 3128 2803 3128 2681 
L 3128 97 
Q 3128 -613 2779 -970 
Q 2431 -1328 1713 -1328 
z
M 2569 1691 
Q 2569 2044 2492 2295 
Q 2416 2547 2291 2706 
Q 2166 2866 2005 2941 
Q 1844 3016 1675 3016 
Q 1459 3016 1304 2941 
Q 1150 2866 1048 2705 
Q 947 2544 898 2292 
Q 850 2041 850 1691 
Q 850 1325 898 1076 
Q 947 828 1047 675 
Q 1147 522 1300 456 
Q 1453 391 1666 391 
Q 1834 391 1995 462 
Q 2156 534 2284 690 
Q 2413 847 2491 1094 
Q 2569 1341 2569 1691 
z
" transform="scale(0.015625)"/>
     </defs>
     <use xlink:href="#LiberationSans-46"/>
     <use xlink:href="#LiberationSans-75" x="61.083984"/>
     <use xlink:href="#LiberationSans-6c" x="116.699219"/>
     <use xlink:href="#LiberationSans-6c" x="138.916016"/>
     <use xlink:href="#LiberationSans-20" x="161.132812"/>
     <use xlink:href="#LiberationSans-64" x="188.916016"/>
     <use xlink:href="#LiberationSans-61" x="244.53125"/>
     <use xlink:href="#LiberationSans-74" x="300.146484"/>
     <use xlink:href="#LiberationSans-61" x="327.929688"/>
     <use xlink:href="#LiberationSans-20" x="383.544922"/>
     <use xlink:href="#LiberationSans-73" x="411.328125"/>
     <use xlink:href="#LiberationSans-70" x="461.328125"/>
     <use xlink:href="#LiberationSans-61" x="516.943359"/>
     <use xlink:href="#LiberationSans-63" x="572.558594"/>
     <use xlink:href="#LiberationSans-65" x="622.558594"/>
     <use xlink:href="#LiberationSans-20" x="678.173828"/>
     <use xlink:href="#LiberationSans-28" x="705.957031"/>
     <use xlink:href="#LiberationSans-64" x="739.257812"/>
     <use xlink:href="#LiberationSans-61" x="794.873047"/>
     <use xlink:href="#LiberationSans-74" x="850.488281"/>
     <use xlink:href="#LiberationSans-61" x="878.271484"/>
     <use xlink:href="#LiberationSans-20" x="933.886719"/>
     <use xlink:href="#LiberationSans-67" x="961.669922"/>
     <use xlink:href="#LiberationSans-6c" x="1017.285156"/>
     <use xlink:href="#LiberationSans-6f" x="1039.501953"/>
     <use xlink:href="#LiberationSans-62" x="1095.117188"/>
     <use xlink:href="#LiberationSans-61" x="1150.732422"/>
     <use xlink:href="#LiberationSans-6c" x="1206.347656"/>
     <use xlink:href="#LiberationSans-29" x="1228.564453"/>
    </g>
   </g>
  </g>
  <g id="axes_3">
   <g id="patch_18">
    <path d="M 7.2 401.505278 
L 351 401.505278 
L 351 217.8 
L 7.2 217.8 
z
" style="fill: #eaeaf2"/>
   </g>
   <g id="matplotlib.axis_5"/>
   <g id="matplotlib.axis_6"/>
   <g id="patch_19">
    <path d="M -1.817705 409.536109 
L 370.162623 409.536109 
L 370.162623 208.765314 
L -1.817705 208.765314 
z
" clip-path="url(#p14743d73dc)" style="fill: #0000ff; opacity: 0.1"/>
   </g>
   <g id="patch_20">
    <path d="M 9.454426 238.880933 
L 10.668266 239.867377 
L 12.084992 240.786952 
L 13.690394 241.644339 
L 15.470265 242.444224 
L 17.410395 243.191288 
L 19.496574 243.890216 
L 21.714595 244.545689 
L 24.050247 245.162392 
L 26.489323 245.745008 
L 29.017612 246.298219 
L 31.620907 246.82671 
L 34.284998 247.335162 
L 36.995675 247.82826 
L 39.738731 248.310686 
L 42.499955 248.787124 
L 45.26514 249.262256 
L 48.020076 249.740767 
L 50.750553 250.227339 
L 53.442364 250.726655 
L 56.081299 251.243398 
L 58.653149 251.782253 
L 61.143705 252.347901 
L 63.538758 252.945026 
L 65.824099 253.578311 
L 67.985519 254.25244 
L 70.008809 254.972095 
L 71.879761 255.74196 
L 73.584164 256.566718 
L 75.107811 257.451052 
L 76.436491 258.399645 
L 77.556331 259.417085 
L 78.463701 260.505013 
L 79.166871 261.66165 
L 79.674779 262.885025 
L 79.996365 264.173167 
L 80.140568 265.524105 
L 80.116325 266.935868 
L 79.932576 268.406484 
L 79.598259 269.933983 
L 79.122314 271.516394 
L 78.513678 273.151744 
L 77.781291 274.838064 
L 76.934091 276.573382 
L 75.981017 278.355726 
L 74.931008 280.183127 
L 73.793002 282.053612 
L 72.575939 283.96521 
L 71.288756 285.915951 
L 69.940393 287.903863 
L 68.539788 289.926976 
L 67.095881 291.983317 
L 65.617609 294.070916 
L 64.113911 296.187802 
L 62.593727 298.332004 
L 61.065995 300.50155 
L 59.539653 302.694469 
L 58.023641 304.908791 
L 56.526897 307.142544 
L 55.05836 309.393757 
L 53.626968 311.660459 
L 52.241661 313.940678 
L 50.911376 316.232444 
L 49.645054 318.533786 
L 48.451631 320.842732 
L 47.340048 323.157312 
L 46.319243 325.475553 
L 45.398154 327.795485 
L 44.585721 330.115138 
L 43.890881 332.432539 
L 43.322575 334.745718 
L 42.88974 337.052703 
L 42.601315 339.351524 
L 42.466239 341.640208 
L 42.49345 343.916787 
L 42.691888 346.179287 
L 43.070491 348.425737 
L 43.637403 350.653939 
L 44.389173 352.858358 
L 45.313577 355.030934 
L 46.398174 357.163547 
L 47.630521 359.248076 
L 48.998178 361.2764 
L 50.488703 363.240398 
L 52.089655 365.131949 
L 53.788592 366.942932 
L 55.573073 368.665227 
L 57.430655 370.290712 
L 59.348899 371.811266 
L 61.315363 373.218769 
L 63.317604 374.5051 
L 65.343182 375.662137 
L 67.379655 376.681759 
L 69.414581 377.555847 
L 71.43552 378.276278 
L 73.430029 378.834932 
L 75.385668 379.223688 
L 77.289997 379.434428 
L 79.133657 379.462112 
L 80.916224 379.310632 
L 82.638886 378.985494 
L 84.302832 378.492203 
L 85.90925 377.836264 
L 87.459328 377.023183 
L 88.954256 376.058465 
L 90.395222 374.947615 
L 91.783413 373.696138 
L 93.12002 372.309539 
L 94.40623 370.793324 
L 95.643232 369.152998 
L 96.832214 367.394065 
L 97.974365 365.522033 
L 99.070873 363.542404 
L 100.122927 361.460686 
L 101.131715 359.282382 
L 102.098426 357.012999 
L 103.024249 354.658041 
L 103.910371 352.223013 
L 104.757982 349.713421 
L 105.56827 347.134771 
L 106.342423 344.492566 
L 107.08163 341.792314 
L 107.78708 339.039517 
L 108.45996 336.239683 
L 109.10146 333.398316 
L 109.712768 330.520921 
L 110.295073 327.613004 
L 110.849562 324.68007 
L 111.377425 321.727623 
L 111.87985 318.76117 
L 112.358025 315.786215 
L 112.81314 312.808264 
L 113.246382 309.832822 
L 113.65894 306.865394 
L 114.052002 303.911485 
L 114.426758 300.976601 
L 114.784395 298.066247 
L 115.126102 295.185927 
L 115.453068 292.341148 
L 115.766481 289.537414 
L 116.06753 286.780231 
L 116.357403 284.075104 
L 116.637288 281.427537 
L 116.908375 278.843037 
L 117.171851 276.327109 
L 117.428905 273.885257 
L 117.680726 271.522987 
L 117.928502 269.245804 
L 118.173422 267.059214 
L 118.416675 264.968721 
L 118.659448 262.979832 
L 118.90293 261.09805 
L 119.14831 259.328881 
L 119.396776 257.677831 
L 119.649517 256.150405 
L 119.907721 254.752107 
L 120.172577 253.488444 
L 120.445273 252.36492 
L 120.726998 251.38704 
L 121.018941 250.560311 
L 121.322289 249.890236 
L 121.638232 249.382322 
L 121.967957 249.042073 
L 122.312644 248.874888 
L 122.673082 248.88183 
L 123.049543 249.058204 
L 123.442261 249.398919 
L 123.851474 249.898883 
L 124.277416 250.553004 
L 124.720323 251.35619 
L 125.180432 252.30335 
L 125.657977 253.389392 
L 126.153195 254.609225 
L 126.666321 255.957757 
L 127.197592 257.429896 
L 127.747242 259.02055 
L 128.315508 260.724628 
L 128.902626 262.537038 
L 129.508831 264.452689 
L 130.134359 266.466488 
L 130.779445 268.573344 
L 131.444326 270.768166 
L 132.129237 273.045862 
L 132.834414 275.401339 
L 133.560093 277.829507 
L 134.306509 280.325274 
L 135.073899 282.883548 
L 135.862497 285.499237 
L 136.672541 288.16725 
L 137.504265 290.882495 
L 138.357905 293.63988 
L 139.233697 296.434314 
L 140.131877 299.260705 
L 141.052681 302.113961 
L 141.996343 304.988991 
L 142.963102 307.880703 
L 143.95319 310.784005 
L 144.966846 313.693806 
L 146.004304 316.605013 
L 147.0658 319.512536 
L 148.151569 322.411283 
L 149.261849 325.296161 
L 150.396874 328.16208 
L 151.55688 331.003947 
L 152.742102 333.816671 
L 153.952778 336.595161 
L 155.189142 339.334324 
L 156.45143 342.029069 
L 157.739878 344.674304 
L 159.054722 347.264937 
L 160.396197 349.795878 
L 161.76454 352.262033 
L 163.159985 354.658312 
L 164.582769 356.979623 
L 166.033128 359.220874 
L 167.511297 361.376974 
L 169.017512 363.44283 
L 170.552009 365.413352 
L 172.115023 367.283447 
L 173.70679 369.048023 
L 175.327547 370.70199 
L 176.977528 372.240255 
L 178.65697 373.657727 
L 180.366108 374.949314 
L 182.105179 376.109925 
L 183.874417 377.134467 
L 185.674059 378.017849 
L 187.50434 378.75498 
L 189.365496 379.340767 
L 191.257763 379.77012 
L 193.181377 380.037945 
L 195.136573 380.139153 
L 197.123587 380.06865 
L 199.142655 379.821346 
L 201.194012 379.392149 
L 203.275893 378.778973 
L 205.379732 377.989936 
L 207.495525 377.035319 
L 209.613268 375.925402 
L 211.722956 374.670467 
L 213.814584 373.280794 
L 215.878147 371.766663 
L 217.903641 370.138356 
L 219.881061 368.406154 
L 221.800402 366.580336 
L 223.651659 364.671185 
L 225.424828 362.68898 
L 227.109904 360.644003 
L 228.696882 358.546534 
L 230.175758 356.406855 
L 231.536526 354.235245 
L 232.769183 352.041985 
L 233.863722 349.837357 
L 234.810141 347.631642 
L 235.598433 345.435119 
L 236.218594 343.25807 
L 236.66062 341.110775 
L 236.914505 339.003516 
L 236.970245 336.946573 
L 236.817835 334.950227 
L 236.447271 333.024758 
L 235.848548 331.180448 
L 235.01166 329.427577 
L 233.930261 327.774309 
L 232.618882 326.216726 
L 231.099454 324.746625 
L 229.393917 323.3558 
L 227.524211 322.036044 
L 225.512274 320.779152 
L 223.380047 319.576915 
L 221.149469 318.421129 
L 218.842479 317.303586 
L 216.481018 316.216079 
L 214.087025 315.150403 
L 211.682438 314.098351 
L 209.289199 313.051716 
L 206.929247 312.002292 
L 204.62452 310.941872 
L 202.396959 309.862249 
L 200.268503 308.755218 
L 198.261092 307.612571 
L 196.396665 306.426102 
L 194.697162 305.187605 
L 193.184523 303.888873 
L 191.880686 302.521699 
L 190.807592 301.077878 
L 189.987181 299.549202 
L 189.4391 297.928694 
L 189.161278 296.221046 
L 189.139652 294.437384 
L 189.360035 292.588906 
L 189.808237 290.686806 
L 190.470073 288.742281 
L 191.331352 286.766528 
L 192.377888 284.770741 
L 193.595493 282.766118 
L 194.969978 280.763853 
L 196.487156 278.775143 
L 198.132839 276.811184 
L 199.892838 274.883173 
L 201.752967 273.002304 
L 203.699036 271.179774 
L 205.716859 269.426779 
L 207.792246 267.754515 
L 209.911011 266.174178 
L 212.058965 264.696963 
L 214.22192 263.334068 
L 216.385688 262.096688 
L 218.536082 260.996018 
L 220.658913 260.043256 
L 222.739994 259.249596 
L 224.765607 258.625764 
L 226.730082 258.174422 
L 228.63451 257.891459 
L 230.480191 257.772556 
L 232.268425 257.813393 
L 234.000513 258.009649 
L 235.677755 258.357003 
L 237.30145 258.851137 
L 238.872899 259.487729 
L 240.393402 260.26246 
L 241.864259 261.17101 
L 243.28677 262.209058 
L 244.662236 263.372284 
L 245.991957 264.656368 
L 247.277233 266.05699 
L 248.519363 267.569829 
L 249.719649 269.190566 
L 250.87939 270.914881 
L 251.999886 272.738453 
L 253.082438 274.656962 
L 254.128345 276.666088 
L 255.138909 278.761511 
L 256.115428 280.938911 
L 257.059204 283.193967 
L 257.971536 285.522359 
L 258.853725 287.919768 
L 259.70707 290.381873 
L 260.532872 292.904354 
L 261.332431 295.48289 
L 262.107047 298.113163 
L 262.85802 300.79085 
L 263.586651 303.511633 
L 264.29424 306.271192 
L 264.982086 309.065205 
L 265.65149 311.889353 
L 266.303752 314.739316 
L 266.940172 317.610774 
L 267.562051 320.499406 
L 268.170688 323.400892 
L 268.767384 326.310913 
L 269.353438 329.225147 
L 269.930152 332.139276 
L 270.498825 335.048978 
L 271.060757 337.949933 
L 271.617248 340.837822 
L 272.169599 343.708325 
L 272.71911 346.55712 
L 273.267081 349.379888 
L 273.814812 352.17231 
L 274.363603 354.930063 
L 274.914754 357.64883 
L 275.469566 360.324289 
L 276.029338 362.952119 
L 276.595372 365.528002 
L 277.168966 368.047617 
L 277.751422 370.506644 
L 278.344038 372.900762 
L 278.948117 375.225652 
L 279.564956 377.476993 
L 280.195858 379.650466 
L 280.842121 381.741749 
L 281.505047 383.746523 
L 282.185935 385.660468 
L 282.886085 387.479264 
L 283.606797 389.19859 
L 284.349373 390.814126 
L 285.115111 392.321552 
L 285.905312 393.716548 
L 286.721276 394.994795 
L 287.564304 396.15197 
L 288.435695 397.183756 
L 289.33675 398.085831 
L 290.268768 398.853875 
L 291.23305 399.483568 
L 292.230428 399.971729 
L 293.259714 400.320092 
L 294.319173 400.531714 
L 295.407074 400.609654 
L 296.521683 400.556968 
L 297.661267 400.376716 
L 298.824094 400.071955 
L 300.00843 399.645742 
L 301.212542 399.101137 
L 302.434697 398.441196 
L 303.673163 397.668977 
L 304.926206 396.787539 
L 306.192093 395.79994 
L 307.469092 394.709237 
L 308.755469 393.518488 
L 310.04949 392.230751 
L 311.349425 390.849084 
L 312.653538 389.376545 
L 313.960098 387.816192 
L 315.267371 386.171083 
L 316.573624 384.444275 
L 317.877124 382.638827 
L 319.176139 380.757796 
L 320.468935 378.80424 
L 321.753779 376.781218 
L 323.028939 374.691787 
L 324.29268 372.539005 
L 325.543271 370.32593 
L 326.778978 368.055619 
L 327.998069 365.731132 
L 329.198809 363.355525 
L 330.379467 360.931857 
L 331.538309 358.463185 
L 332.673602 355.952567 
L 333.783614 353.403062 
L 334.86661 350.817727 
L 335.920859 348.19962 
L 336.944627 345.551799 
L 337.936181 342.877321 
L 338.893789 340.179246 
L 339.815717 337.46063 
L 340.700232 334.724532 
L 341.545601 331.974009 
L 342.350091 329.21212 
L 343.11197 326.441922 
L 343.829503 323.666473 
L 344.500959 320.888832 
L 345.124604 318.112055 
L 345.698706 315.339201 
L 346.22153 312.573328 
L 346.691345 309.817494 
L 347.106417 307.074756 
L 347.465013 304.348173 
L 347.7654 301.640802 
L 348.005846 298.955701 
L 348.184617 296.295929 
L 348.299979 293.664543 
L 348.350201 291.064601 
L 348.33355 288.499161 
L 348.248291 285.971281 
L 348.092693 283.484018 
L 347.865021 281.040431 
L 347.563547 278.643575 
L 347.18731 276.295676 
L 346.737261 273.996911 
L 346.214633 271.74715 
L 345.620665 269.546261 
L 344.956592 267.394112 
L 344.223649 265.290574 
L 343.423074 263.235513 
L 342.556102 261.2288 
L 341.623969 259.270302 
L 340.627912 257.359889 
L 339.569167 255.497429 
L 338.44897 253.68279 
L 337.268557 251.915842 
L 336.029164 250.196454 
L 334.732027 248.524493 
L 333.378383 246.899829 
L 331.969468 245.32233 
L 330.506517 243.791865 
L 328.990767 242.308303 
L 327.423455 240.871512 
L 325.805815 239.481362 
L 324.139085 238.13772 
L 322.4245 236.840456 
L 320.663297 235.589438 
L 318.856712 234.384535 
L 317.005981 233.225616 
L 315.11234 232.112549 
L 313.177025 231.045203 
L 311.201272 230.023447 
L 309.186318 229.047149 
L 307.133399 228.116179 
L 305.04375 227.230405 
L 302.918608 226.389695 
L 300.75921 225.593918 
L 298.56679 224.842943 
L 296.342587 224.136639 
L 294.087834 223.474875 
L 291.803769 222.857518 
L 289.491629 222.284439 
L 287.152648 221.755505 
L 284.788063 221.270585 
L 282.39911 220.829548 
L 279.987026 220.432262 
L 277.553047 220.078597 
L 275.098408 219.768421 
L 272.624346 219.501603 
L 270.132097 219.278011 
L 267.622897 219.097515 
L 265.097982 218.959982 
L 262.558589 218.865282 
L 260.005953 218.813283 
L 257.441311 218.803854 
z
" clip-path="url(#p14743d73dc)" style="fill: #ff0000; opacity: 0.2; stroke: #ff0000; stroke-width: 0.3; stroke-linejoin: miter"/>
   </g>
   <g id="PolyCollection_1">
    <defs>
     <path id="m453035cb0b" d="M 83.850492 -5.828209 
L 106.394754 -5.828209 
L 136.829508 -206.599004 
L 114.285246 -206.599004 
L 114.285246 -206.599004 
L 83.850492 -5.828209 
z
" style="stroke: #808080; stroke-opacity: 0.5; stroke-width: 0.3"/>
    </defs>
    <g clip-path="url(#p14743d73dc)">
     <use xlink:href="#m453035cb0b" x="0" y="425.402858" style="fill: #808080; fill-opacity: 0.5; stroke: #808080; stroke-opacity: 0.5; stroke-width: 0.3"/>
    </g>
   </g>
   <g id="line2d_3">
    <path d="M 95.122623 419.574649 
L 125.557377 218.803854 
" clip-path="url(#p14743d73dc)" style="fill: none; stroke-dasharray: 11.1,4.8; stroke-dashoffset: 0; stroke: #000000; stroke-opacity: 0.7; stroke-width: 3"/>
   </g>
   <g id="patch_21">
    <path d="M 7.2 401.505278 
L 7.2 217.8 
" style="fill: none"/>
   </g>
   <g id="patch_22">
    <path d="M 351 401.505278 
L 351 217.8 
" style="fill: none"/>
   </g>
   <g id="patch_23">
    <path d="M 7.2 401.505278 
L 351 401.505278 
" style="fill: none"/>
   </g>
   <g id="patch_24">
    <path d="M 7.2 217.8 
L 351 217.8 
" style="fill: none"/>
   </g>
   <g id="text_3">
    <!-- Surrogate decision boundary (model local) -->
    <g style="fill: #262626" transform="translate(66.379687 415.712858) scale(0.12 -0.12)">
     <defs>
      <path id="LiberationSans-53" d="M 3975 1216 
Q 3975 938 3867 703 
Q 3759 469 3534 298 
Q 3309 128 2967 32 
Q 2625 -63 2156 -63 
Q 1334 -63 875 225 
Q 416 513 291 1056 
L 869 1172 
Q 913 1000 1003 859 
Q 1094 719 1248 617 
Q 1403 516 1631 459 
Q 1859 403 2178 403 
Q 2444 403 2666 448 
Q 2888 494 3047 587 
Q 3206 681 3295 829 
Q 3384 978 3384 1184 
Q 3384 1400 3286 1534 
Q 3188 1669 3009 1756 
Q 2831 1844 2584 1903 
Q 2338 1963 2038 2031 
Q 1853 2072 1667 2120 
Q 1481 2169 1311 2236 
Q 1141 2303 991 2393 
Q 841 2484 731 2611 
Q 622 2738 559 2905 
Q 497 3072 497 3291 
Q 497 3603 623 3826 
Q 750 4050 975 4194 
Q 1200 4338 1506 4403 
Q 1813 4469 2169 4469 
Q 2578 4469 2868 4405 
Q 3159 4341 3359 4212 
Q 3559 4084 3679 3895 
Q 3800 3706 3872 3456 
L 3284 3353 
Q 3241 3513 3158 3638 
Q 3075 3763 2940 3847 
Q 2806 3931 2614 3975 
Q 2422 4019 2163 4019 
Q 1856 4019 1648 3964 
Q 1441 3909 1314 3815 
Q 1188 3722 1133 3595 
Q 1078 3469 1078 3322 
Q 1078 3125 1176 2998 
Q 1275 2872 1444 2787 
Q 1613 2703 1834 2647 
Q 2056 2591 2306 2534 
Q 2509 2488 2711 2439 
Q 2913 2391 3097 2323 
Q 3281 2256 3442 2165 
Q 3603 2075 3722 1944 
Q 3841 1813 3908 1634 
Q 3975 1456 3975 1216 
z
" transform="scale(0.015625)"/>
      <path id="LiberationSans-72" d="M 444 0 
L 444 2594 
Q 444 2700 442 2811 
Q 441 2922 437 3025 
Q 434 3128 431 3218 
Q 428 3309 425 3381 
L 956 3381 
Q 959 3309 964 3217 
Q 969 3125 973 3028 
Q 978 2931 979 2842 
Q 981 2753 981 2691 
L 994 2691 
Q 1053 2884 1120 3026 
Q 1188 3169 1278 3261 
Q 1369 3353 1494 3398 
Q 1619 3444 1797 3444 
Q 1866 3444 1928 3433 
Q 1991 3422 2025 3413 
L 2025 2897 
Q 1969 2913 1894 2920 
Q 1819 2928 1725 2928 
Q 1531 2928 1395 2840 
Q 1259 2753 1173 2598 
Q 1088 2444 1047 2230 
Q 1006 2016 1006 1763 
L 1006 0 
L 444 0 
z
" transform="scale(0.015625)"/>
      <path id="LiberationSans-69" d="M 428 4100 
L 428 4638 
L 991 4638 
L 991 4100 
L 428 4100 
z
M 428 0 
L 428 3381 
L 991 3381 
L 991 0 
L 428 0 
z
" transform="scale(0.015625)"/>
      <path id="LiberationSans-6e" d="M 2578 0 
L 2578 2144 
Q 2578 2391 2542 2556 
Q 2506 2722 2425 2823 
Q 2344 2925 2211 2967 
Q 2078 3009 1881 3009 
Q 1681 3009 1520 2939 
Q 1359 2869 1245 2736 
Q 1131 2603 1068 2408 
Q 1006 2213 1006 1959 
L 1006 0 
L 444 0 
L 444 2659 
Q 444 2766 442 2883 
Q 441 3000 437 3104 
Q 434 3209 431 3284 
Q 428 3359 425 3381 
L 956 3381 
Q 959 3366 962 3297 
Q 966 3228 970 3139 
Q 975 3050 978 2958 
Q 981 2866 981 2803 
L 991 2803 
Q 1072 2950 1169 3069 
Q 1266 3188 1394 3270 
Q 1522 3353 1687 3398 
Q 1853 3444 2072 3444 
Q 2353 3444 2556 3375 
Q 2759 3306 2890 3162 
Q 3022 3019 3083 2792 
Q 3144 2566 3144 2253 
L 3144 0 
L 2578 0 
z
" transform="scale(0.015625)"/>
      <path id="LiberationSans-79" d="M 1888 0 
Q 1769 -306 1645 -551 
Q 1522 -797 1369 -970 
Q 1216 -1144 1028 -1236 
Q 841 -1328 597 -1328 
Q 491 -1328 400 -1322 
Q 309 -1316 209 -1294 
L 209 -872 
Q 269 -881 344 -886 
Q 419 -891 472 -891 
Q 719 -891 931 -706 
Q 1144 -522 1303 -119 
L 1356 16 
L 16 3381 
L 616 3381 
L 1328 1513 
Q 1359 1428 1407 1287 
Q 1456 1147 1504 1006 
Q 1553 866 1590 753 
Q 1628 641 1634 613 
Q 1644 647 1680 748 
Q 1716 850 1761 975 
Q 1806 1100 1853 1228 
Q 1900 1356 1931 1450 
L 2594 3381 
L 3188 3381 
L 1888 0 
z
" transform="scale(0.015625)"/>
      <path id="LiberationSans-6d" d="M 2400 0 
L 2400 2144 
Q 2400 2391 2369 2556 
Q 2338 2722 2264 2823 
Q 2191 2925 2072 2967 
Q 1953 3009 1781 3009 
Q 1603 3009 1459 2939 
Q 1316 2869 1214 2736 
Q 1113 2603 1058 2408 
Q 1003 2213 1003 1959 
L 1003 0 
L 444 0 
L 444 2659 
Q 444 2766 442 2883 
Q 441 3000 437 3104 
Q 434 3209 431 3284 
Q 428 3359 425 3381 
L 956 3381 
Q 959 3366 962 3297 
Q 966 3228 970 3139 
Q 975 3050 978 2958 
Q 981 2866 981 2803 
L 991 2803 
Q 1066 2950 1153 3069 
Q 1241 3188 1358 3270 
Q 1475 3353 1626 3398 
Q 1778 3444 1978 3444 
Q 2363 3444 2586 3291 
Q 2809 3138 2897 2803 
L 2906 2803 
Q 2981 2950 3075 3069 
Q 3169 3188 3294 3270 
Q 3419 3353 3575 3398 
Q 3731 3444 3931 3444 
Q 4188 3444 4373 3375 
Q 4559 3306 4678 3162 
Q 4797 3019 4853 2792 
Q 4909 2566 4909 2253 
L 4909 0 
L 4353 0 
L 4353 2144 
Q 4353 2391 4322 2556 
Q 4291 2722 4217 2823 
Q 4144 2925 4025 2967 
Q 3906 3009 3734 3009 
Q 3556 3009 3412 2942 
Q 3269 2875 3167 2744 
Q 3066 2613 3011 2416 
Q 2956 2219 2956 1959 
L 2956 0 
L 2400 0 
z
" transform="scale(0.015625)"/>
     </defs>
     <use xlink:href="#LiberationSans-53"/>
     <use xlink:href="#LiberationSans-75" x="66.699219"/>
     <use xlink:href="#LiberationSans-72" x="122.314453"/>
     <use xlink:href="#LiberationSans-72" x="155.615234"/>
     <use xlink:href="#LiberationSans-6f" x="188.916016"/>
     <use xlink:href="#LiberationSans-67" x="244.53125"/>
     <use xlink:href="#LiberationSans-61" x="300.146484"/>
     <use xlink:href="#LiberationSans-74" x="355.761719"/>
     <use xlink:href="#LiberationSans-65" x="383.544922"/>
     <use xlink:href="#LiberationSans-20" x="439.160156"/>
     <use xlink:href="#LiberationSans-64" x="466.943359"/>
     <use xlink:href="#LiberationSans-65" x="522.558594"/>
     <use xlink:href="#LiberationSans-63" x="578.173828"/>
     <use xlink:href="#LiberationSans-69" x="628.173828"/>
     <use xlink:href="#LiberationSans-73" x="650.390625"/>
     <use xlink:href="#LiberationSans-69" x="700.390625"/>
     <use xlink:href="#LiberationSans-6f" x="722.607422"/>
     <use xlink:href="#LiberationSans-6e" x="778.222656"/>
     <use xlink:href="#LiberationSans-20" x="833.837891"/>
     <use xlink:href="#LiberationSans-62" x="861.621094"/>
     <use xlink:href="#LiberationSans-6f" x="917.236328"/>
     <use xlink:href="#LiberationSans-75" x="972.851562"/>
     <use xlink:href="#LiberationSans-6e" x="1028.466797"/>
     <use xlink:href="#LiberationSans-64" x="1084.082031"/>
     <use xlink:href="#LiberationSans-61" x="1139.697266"/>
     <use xlink:href="#LiberationSans-72" x="1195.3125"/>
     <use xlink:href="#LiberationSans-79" x="1228.613281"/>
     <use xlink:href="#LiberationSans-20" x="1278.613281"/>
     <use xlink:href="#LiberationSans-28" x="1306.396484"/>
     <use xlink:href="#LiberationSans-6d" x="1339.697266"/>
     <use xlink:href="#LiberationSans-6f" x="1422.998047"/>
     <use xlink:href="#LiberationSans-64" x="1478.613281"/>
     <use xlink:href="#LiberationSans-65" x="1534.228516"/>
     <use xlink:href="#LiberationSans-6c" x="1589.84375"/>
     <use xlink:href="#LiberationSans-20" x="1612.060547"/>
     <use xlink:href="#LiberationSans-6c" x="1639.84375"/>
     <use xlink:href="#LiberationSans-6f" x="1662.060547"/>
     <use xlink:href="#LiberationSans-63" x="1717.675781"/>
     <use xlink:href="#LiberationSans-61" x="1767.675781"/>
     <use xlink:href="#LiberationSans-6c" x="1823.291016"/>
     <use xlink:href="#LiberationSans-29" x="1845.507812"/>
    </g>
   </g>
  </g>
  <g id="axes_4">
   <g id="patch_25">
    <path d="M 361.8 401.505278 
L 705.6 401.505278 
L 705.6 217.8 
L 361.8 217.8 
z
" style="fill: #eaeaf2"/>
   </g>
   <g id="matplotlib.axis_7"/>
   <g id="matplotlib.axis_8"/>
   <g id="patch_26">
    <path d="M 352.782295 409.536109 
L 724.762623 409.536109 
L 724.762623 208.765314 
L 352.782295 208.765314 
z
" clip-path="url(#p5307076856)" style="fill: #0000ff; opacity: 0.1"/>
   </g>
   <g id="patch_27">
    <path d="M 364.054426 238.880933 
L 365.268266 239.867377 
L 366.684992 240.786952 
L 368.290394 241.644339 
L 370.070265 242.444224 
L 372.010395 243.191288 
L 374.096574 243.890216 
L 376.314595 244.545689 
L 378.650247 245.162392 
L 381.089323 245.745008 
L 383.617612 246.298219 
L 386.220907 246.82671 
L 388.884998 247.335162 
L 391.595675 247.82826 
L 394.338731 248.310686 
L 397.099955 248.787124 
L 399.86514 249.262256 
L 402.620076 249.740767 
L 405.350553 250.227339 
L 408.042364 250.726655 
L 410.681299 251.243398 
L 413.253149 251.782253 
L 415.743705 252.347901 
L 418.138758 252.945026 
L 420.424099 253.578311 
L 422.585519 254.25244 
L 424.608809 254.972095 
L 426.479761 255.74196 
L 428.184164 256.566718 
L 429.707811 257.451052 
L 431.036491 258.399645 
L 432.156331 259.417085 
L 433.063701 260.505013 
L 433.766871 261.66165 
L 434.274779 262.885025 
L 434.596365 264.173167 
L 434.740568 265.524105 
L 434.716325 266.935868 
L 434.532576 268.406484 
L 434.198259 269.933983 
L 433.722314 271.516394 
L 433.113678 273.151744 
L 432.381291 274.838064 
L 431.534091 276.573382 
L 430.581017 278.355726 
L 429.531008 280.183127 
L 428.393002 282.053612 
L 427.175939 283.96521 
L 425.888756 285.915951 
L 424.540393 287.903863 
L 423.139788 289.926976 
L 421.695881 291.983317 
L 420.217609 294.070916 
L 418.713911 296.187802 
L 417.193727 298.332004 
L 415.665995 300.50155 
L 414.139653 302.694469 
L 412.623641 304.908791 
L 411.126897 307.142544 
L 409.65836 309.393757 
L 408.226968 311.660459 
L 406.841661 313.940678 
L 405.511376 316.232444 
L 404.245054 318.533786 
L 403.051631 320.842732 
L 401.940048 323.157312 
L 400.919243 325.475553 
L 399.998154 327.795485 
L 399.185721 330.115138 
L 398.490881 332.432539 
L 397.922575 334.745718 
L 397.48974 337.052703 
L 397.201315 339.351524 
L 397.066239 341.640208 
L 397.09345 343.916787 
L 397.291888 346.179287 
L 397.670491 348.425737 
L 398.237403 350.653939 
L 398.989173 352.858358 
L 399.913577 355.030934 
L 400.998174 357.163547 
L 402.230521 359.248076 
L 403.598178 361.2764 
L 405.088703 363.240398 
L 406.689655 365.131949 
L 408.388592 366.942932 
L 410.173073 368.665227 
L 412.030655 370.290712 
L 413.948899 371.811266 
L 415.915363 373.218769 
L 417.917604 374.5051 
L 419.943182 375.662137 
L 421.979655 376.681759 
L 424.014581 377.555847 
L 426.03552 378.276278 
L 428.030029 378.834932 
L 429.985668 379.223688 
L 431.889997 379.434428 
L 433.733657 379.462112 
L 435.516224 379.310632 
L 437.238886 378.985494 
L 438.902832 378.492203 
L 440.50925 377.836264 
L 442.059328 377.023183 
L 443.554256 376.058465 
L 444.995222 374.947615 
L 446.383413 373.696138 
L 447.72002 372.309539 
L 449.00623 370.793324 
L 450.243232 369.152998 
L 451.432214 367.394065 
L 452.574365 365.522033 
L 453.670873 363.542404 
L 454.722927 361.460686 
L 455.731715 359.282382 
L 456.698426 357.012999 
L 457.624249 354.658041 
L 458.510371 352.223013 
L 459.357982 349.713421 
L 460.16827 347.134771 
L 460.942423 344.492566 
L 461.68163 341.792314 
L 462.38708 339.039517 
L 463.05996 336.239683 
L 463.70146 333.398316 
L 464.312768 330.520921 
L 464.895073 327.613004 
L 465.449562 324.68007 
L 465.977425 321.727623 
L 466.47985 318.76117 
L 466.958025 315.786215 
L 467.41314 312.808264 
L 467.846382 309.832822 
L 468.25894 306.865394 
L 468.652002 303.911485 
L 469.026758 300.976601 
L 469.384395 298.066247 
L 469.726102 295.185927 
L 470.053068 292.341148 
L 470.366481 289.537414 
L 470.66753 286.780231 
L 470.957403 284.075104 
L 471.237288 281.427537 
L 471.508375 278.843037 
L 471.771851 276.327109 
L 472.028905 273.885257 
L 472.280726 271.522987 
L 472.528502 269.245804 
L 472.773422 267.059214 
L 473.016675 264.968721 
L 473.259448 262.979832 
L 473.50293 261.09805 
L 473.74831 259.328881 
L 473.996776 257.677831 
L 474.249517 256.150405 
L 474.507721 254.752107 
L 474.772577 253.488444 
L 475.045273 252.36492 
L 475.326998 251.38704 
L 475.618941 250.560311 
L 475.922289 249.890236 
L 476.238232 249.382322 
L 476.567957 249.042073 
L 476.912644 248.874888 
L 477.273082 248.88183 
L 477.649543 249.058204 
L 478.042261 249.398919 
L 478.451474 249.898883 
L 478.877416 250.553004 
L 479.320323 251.35619 
L 479.780432 252.30335 
L 480.257977 253.389392 
L 480.753195 254.609225 
L 481.266321 255.957757 
L 481.797592 257.429896 
L 482.347242 259.02055 
L 482.915508 260.724628 
L 483.502626 262.537038 
L 484.108831 264.452689 
L 484.734359 266.466488 
L 485.379445 268.573344 
L 486.044326 270.768166 
L 486.729237 273.045862 
L 487.434414 275.401339 
L 488.160093 277.829507 
L 488.906509 280.325274 
L 489.673899 282.883548 
L 490.462497 285.499237 
L 491.272541 288.16725 
L 492.104265 290.882495 
L 492.957905 293.63988 
L 493.833697 296.434314 
L 494.731877 299.260705 
L 495.652681 302.113961 
L 496.596343 304.988991 
L 497.563102 307.880703 
L 498.55319 310.784005 
L 499.566846 313.693806 
L 500.604304 316.605013 
L 501.6658 319.512536 
L 502.751569 322.411283 
L 503.861849 325.296161 
L 504.996874 328.16208 
L 506.15688 331.003947 
L 507.342102 333.816671 
L 508.552778 336.595161 
L 509.789142 339.334324 
L 511.05143 342.029069 
L 512.339878 344.674304 
L 513.654722 347.264937 
L 514.996197 349.795878 
L 516.36454 352.262033 
L 517.759985 354.658312 
L 519.182769 356.979623 
L 520.633128 359.220874 
L 522.111297 361.376974 
L 523.617512 363.44283 
L 525.152009 365.413352 
L 526.715023 367.283447 
L 528.30679 369.048023 
L 529.927547 370.70199 
L 531.577528 372.240255 
L 533.25697 373.657727 
L 534.966108 374.949314 
L 536.705179 376.109925 
L 538.474417 377.134467 
L 540.274059 378.017849 
L 542.10434 378.75498 
L 543.965496 379.340767 
L 545.857763 379.77012 
L 547.781377 380.037945 
L 549.736573 380.139153 
L 551.723587 380.06865 
L 553.742655 379.821346 
L 555.794012 379.392149 
L 557.875893 378.778973 
L 559.979732 377.989936 
L 562.095525 377.035319 
L 564.213268 375.925402 
L 566.322956 374.670467 
L 568.414584 373.280794 
L 570.478147 371.766663 
L 572.503641 370.138356 
L 574.481061 368.406154 
L 576.400402 366.580336 
L 578.251659 364.671185 
L 580.024828 362.68898 
L 581.709904 360.644003 
L 583.296882 358.546534 
L 584.775758 356.406855 
L 586.136526 354.235245 
L 587.369183 352.041985 
L 588.463722 349.837357 
L 589.410141 347.631642 
L 590.198433 345.435119 
L 590.818594 343.25807 
L 591.26062 341.110775 
L 591.514505 339.003516 
L 591.570245 336.946573 
L 591.417835 334.950227 
L 591.047271 333.024758 
L 590.448548 331.180448 
L 589.61166 329.427577 
L 588.530261 327.774309 
L 587.218882 326.216726 
L 585.699454 324.746625 
L 583.993917 323.3558 
L 582.124211 322.036044 
L 580.112274 320.779152 
L 577.980047 319.576915 
L 575.749469 318.421129 
L 573.442479 317.303586 
L 571.081018 316.216079 
L 568.687025 315.150403 
L 566.282438 314.098351 
L 563.889199 313.051716 
L 561.529247 312.002292 
L 559.22452 310.941872 
L 556.996959 309.862249 
L 554.868503 308.755218 
L 552.861092 307.612571 
L 550.996665 306.426102 
L 549.297162 305.187605 
L 547.784523 303.888873 
L 546.480686 302.521699 
L 545.407592 301.077878 
L 544.587181 299.549202 
L 544.0391 297.928694 
L 543.761278 296.221046 
L 543.739652 294.437384 
L 543.960035 292.588906 
L 544.408237 290.686806 
L 545.070073 288.742281 
L 545.931352 286.766528 
L 546.977888 284.770741 
L 548.195493 282.766118 
L 549.569978 280.763853 
L 551.087156 278.775143 
L 552.732839 276.811184 
L 554.492838 274.883173 
L 556.352967 273.002304 
L 558.299036 271.179774 
L 560.316859 269.426779 
L 562.392246 267.754515 
L 564.511011 266.174178 
L 566.658965 264.696963 
L 568.82192 263.334068 
L 570.985688 262.096688 
L 573.136082 260.996018 
L 575.258913 260.043256 
L 577.339994 259.249596 
L 579.365607 258.625764 
L 581.330082 258.174422 
L 583.23451 257.891459 
L 585.080191 257.772556 
L 586.868425 257.813393 
L 588.600513 258.009649 
L 590.277755 258.357003 
L 591.90145 258.851137 
L 593.472899 259.487729 
L 594.993402 260.26246 
L 596.464259 261.17101 
L 597.88677 262.209058 
L 599.262236 263.372284 
L 600.591957 264.656368 
L 601.877233 266.05699 
L 603.119363 267.569829 
L 604.319649 269.190566 
L 605.47939 270.914881 
L 606.599886 272.738453 
L 607.682438 274.656962 
L 608.728345 276.666088 
L 609.738909 278.761511 
L 610.715428 280.938911 
L 611.659204 283.193967 
L 612.571536 285.522359 
L 613.453725 287.919768 
L 614.30707 290.381873 
L 615.132872 292.904354 
L 615.932431 295.48289 
L 616.707047 298.113163 
L 617.45802 300.79085 
L 618.186651 303.511633 
L 618.89424 306.271192 
L 619.582086 309.065205 
L 620.25149 311.889353 
L 620.903752 314.739316 
L 621.540172 317.610774 
L 622.162051 320.499406 
L 622.770688 323.400892 
L 623.367384 326.310913 
L 623.953438 329.225147 
L 624.530152 332.139276 
L 625.098825 335.048978 
L 625.660757 337.949933 
L 626.217248 340.837822 
L 626.769599 343.708325 
L 627.31911 346.55712 
L 627.867081 349.379888 
L 628.414812 352.17231 
L 628.963603 354.930063 
L 629.514754 357.64883 
L 630.069566 360.324289 
L 630.629338 362.952119 
L 631.195372 365.528002 
L 631.768966 368.047617 
L 632.351422 370.506644 
L 632.944038 372.900762 
L 633.548117 375.225652 
L 634.164956 377.476993 
L 634.795858 379.650466 
L 635.442121 381.741749 
L 636.105047 383.746523 
L 636.785935 385.660468 
L 637.486085 387.479264 
L 638.206797 389.19859 
L 638.949373 390.814126 
L 639.715111 392.321552 
L 640.505312 393.716548 
L 641.321276 394.994795 
L 642.164304 396.15197 
L 643.035695 397.183756 
L 643.93675 398.085831 
L 644.868768 398.853875 
L 645.83305 399.483568 
L 646.830428 399.971729 
L 647.859714 400.320092 
L 648.919173 400.531714 
L 650.007074 400.609654 
L 651.121683 400.556968 
L 652.261267 400.376716 
L 653.424094 400.071955 
L 654.60843 399.645742 
L 655.812542 399.101137 
L 657.034697 398.441196 
L 658.273163 397.668977 
L 659.526206 396.787539 
L 660.792093 395.79994 
L 662.069092 394.709237 
L 663.355469 393.518488 
L 664.64949 392.230751 
L 665.949425 390.849084 
L 667.253538 389.376545 
L 668.560098 387.816192 
L 669.867371 386.171083 
L 671.173624 384.444275 
L 672.477124 382.638827 
L 673.776139 380.757796 
L 675.068935 378.80424 
L 676.353779 376.781218 
L 677.628939 374.691787 
L 678.89268 372.539005 
L 680.143271 370.32593 
L 681.378978 368.055619 
L 682.598069 365.731132 
L 683.798809 363.355525 
L 684.979467 360.931857 
L 686.138309 358.463185 
L 687.273602 355.952567 
L 688.383614 353.403062 
L 689.46661 350.817727 
L 690.520859 348.19962 
L 691.544627 345.551799 
L 692.536181 342.877321 
L 693.493789 340.179246 
L 694.415717 337.46063 
L 695.300232 334.724532 
L 696.145601 331.974009 
L 696.950091 329.21212 
L 697.71197 326.441922 
L 698.429503 323.666473 
L 699.100959 320.888832 
L 699.724604 318.112055 
L 700.298706 315.339201 
L 700.82153 312.573328 
L 701.291345 309.817494 
L 701.706417 307.074756 
L 702.065013 304.348173 
L 702.3654 301.640802 
L 702.605846 298.955701 
L 702.784617 296.295929 
L 702.899979 293.664543 
L 702.950201 291.064601 
L 702.93355 288.499161 
L 702.848291 285.971281 
L 702.692693 283.484018 
L 702.465021 281.040431 
L 702.163547 278.643575 
L 701.78731 276.295676 
L 701.337261 273.996911 
L 700.814633 271.74715 
L 700.220665 269.546261 
L 699.556592 267.394112 
L 698.823649 265.290574 
L 698.023074 263.235513 
L 697.156102 261.2288 
L 696.223969 259.270302 
L 695.227912 257.359889 
L 694.169167 255.497429 
L 693.04897 253.68279 
L 691.868557 251.915842 
L 690.629164 250.196454 
L 689.332027 248.524493 
L 687.978383 246.899829 
L 686.569468 245.32233 
L 685.106517 243.791865 
L 683.590767 242.308303 
L 682.023455 240.871512 
L 680.405815 239.481362 
L 678.739085 238.13772 
L 677.0245 236.840456 
L 675.263297 235.589438 
L 673.456712 234.384535 
L 671.605981 233.225616 
L 669.71234 232.112549 
L 667.777025 231.045203 
L 665.801272 230.023447 
L 663.786318 229.047149 
L 661.733399 228.116179 
L 659.64375 227.230405 
L 657.518608 226.389695 
L 655.35921 225.593918 
L 653.16679 224.842943 
L 650.942587 224.136639 
L 648.687834 223.474875 
L 646.403769 222.857518 
L 644.091629 222.284439 
L 641.752648 221.755505 
L 639.388063 221.270585 
L 636.99911 220.829548 
L 634.587026 220.432262 
L 632.153047 220.078597 
L 629.698408 219.768421 
L 627.224346 219.501603 
L 624.732097 219.278011 
L 622.222897 219.097515 
L 619.697982 218.959982 
L 617.158589 218.865282 
L 614.605953 218.813283 
L 612.041311 218.803854 
z
" clip-path="url(#p5307076856)" style="fill: #ff0000; opacity: 0.2; stroke: #ff0000; stroke-width: 0.3; stroke-linejoin: miter"/>
   </g>
   <g id="line2d_4">
    <path d="M 364.054426 238.880933 
L 365.268266 239.867377 
L 366.684992 240.786952 
L 368.290394 241.644339 
L 370.070265 242.444224 
L 374.096574 243.890216 
L 378.650247 245.162392 
L 383.617612 246.298219 
L 391.595675 247.82826 
L 410.681299 251.243398 
L 415.743705 252.347901 
L 420.424099 253.578311 
L 424.608809 254.972095 
L 426.479761 255.74196 
L 428.184164 256.566718 
L 429.707811 257.451052 
L 431.036491 258.399645 
L 432.156331 259.417085 
L 433.063701 260.505013 
L 433.766871 261.66165 
L 434.274779 262.885025 
L 434.596365 264.173167 
L 434.740568 265.524105 
L 434.716325 266.935868 
L 434.532576 268.406484 
L 434.198259 269.933983 
L 433.722314 271.516394 
L 432.381291 274.838064 
L 430.581017 278.355726 
L 428.393002 282.053612 
L 424.540393 287.903863 
L 417.193727 298.332004 
L 412.623641 304.908791 
L 408.226968 311.660459 
L 405.511376 316.232444 
L 403.051631 320.842732 
L 400.919243 325.475553 
L 399.185721 330.115138 
L 398.490881 332.432539 
L 397.922575 334.745718 
L 397.48974 337.052703 
L 397.201315 339.351524 
L 397.066239 341.640208 
L 397.09345 343.916787 
L 397.291888 346.179287 
L 397.670491 348.425737 
L 398.237403 350.653939 
L 398.989173 352.858358 
L 399.913577 355.030934 
L 400.998174 357.163547 
L 402.230521 359.248076 
L 403.598178 361.2764 
L 405.088703 363.240398 
L 406.689655 365.131949 
L 408.388592 366.942932 
L 410.173073 368.665227 
L 412.030655 370.290712 
L 413.948899 371.811266 
L 415.915363 373.218769 
L 417.917604 374.5051 
L 419.943182 375.662137 
L 421.979655 376.681759 
L 424.014581 377.555847 
L 426.03552 378.276278 
L 428.030029 378.834932 
L 429.985668 379.223688 
L 431.889997 379.434428 
L 433.733657 379.462112 
L 435.516224 379.310632 
L 437.238886 378.985494 
L 438.902832 378.492203 
L 440.50925 377.836264 
L 442.059328 377.023183 
L 443.554256 376.058465 
L 444.995222 374.947615 
L 446.383413 373.696138 
L 447.72002 372.309539 
L 449.00623 370.793324 
L 451.432214 367.394065 
L 453.670873 363.542404 
L 455.731715 359.282382 
L 457.624249 354.658041 
L 459.357982 349.713421 
L 460.942423 344.492566 
L 462.38708 339.039517 
L 463.70146 333.398316 
L 465.449562 324.68007 
L 466.958025 315.786215 
L 468.25894 306.865394 
L 469.726102 295.185927 
L 471.508375 278.843037 
L 473.259448 262.979832 
L 474.249517 256.150405 
L 475.045273 252.36492 
L 475.618941 250.560311 
L 476.238232 249.382322 
L 476.567957 249.042073 
L 476.912644 248.874888 
L 477.273082 248.88183 
L 477.649543 249.058204 
L 478.451474 249.898883 
L 479.320323 251.35619 
L 480.257977 253.389392 
L 481.797592 257.429896 
L 484.108831 264.452689 
L 488.160093 277.829507 
L 493.833697 296.434314 
L 497.563102 307.880703 
L 500.604304 316.605013 
L 503.861849 325.296161 
L 507.342102 333.816671 
L 509.789142 339.334324 
L 512.339878 344.674304 
L 514.996197 349.795878 
L 517.759985 354.658312 
L 520.633128 359.220874 
L 523.617512 363.44283 
L 526.715023 367.283447 
L 529.927547 370.70199 
L 533.25697 373.657727 
L 534.966108 374.949314 
L 536.705179 376.109925 
L 538.474417 377.134467 
L 540.274059 378.017849 
L 542.10434 378.75498 
L 543.965496 379.340767 
L 545.857763 379.77012 
L 547.781377 380.037945 
L 549.736573 380.139153 
L 551.723587 380.06865 
L 553.742655 379.821346 
L 555.794012 379.392149 
L 557.875893 378.778973 
L 559.979732 377.989936 
L 562.095525 377.035319 
L 564.213268 375.925402 
L 566.322956 374.670467 
L 568.414584 373.280794 
L 570.478147 371.766663 
L 574.481061 368.406154 
L 578.251659 364.671185 
L 581.709904 360.644003 
L 583.296882 358.546534 
L 584.775758 356.406855 
L 586.136526 354.235245 
L 587.369183 352.041985 
L 588.463722 349.837357 
L 589.410141 347.631642 
L 590.198433 345.435119 
L 590.818594 343.25807 
L 591.26062 341.110775 
L 591.514505 339.003516 
L 591.570245 336.946573 
L 591.417835 334.950227 
L 591.047271 333.024758 
L 590.448548 331.180448 
L 589.61166 329.427577 
L 588.530261 327.774309 
L 587.218882 326.216726 
L 585.699454 324.746625 
L 583.993917 323.3558 
L 582.124211 322.036044 
L 577.980047 319.576915 
L 573.442479 317.303586 
L 566.282438 314.098351 
L 559.22452 310.941872 
L 554.868503 308.755218 
L 550.996665 306.426102 
L 549.297162 305.187605 
L 547.784523 303.888873 
L 546.480686 302.521699 
L 545.407592 301.077878 
L 544.587181 299.549202 
L 544.0391 297.928694 
L 543.761278 296.221046 
L 543.739652 294.437384 
L 543.960035 292.588906 
L 544.408237 290.686806 
L 545.070073 288.742281 
L 545.931352 286.766528 
L 546.977888 284.770741 
L 548.195493 282.766118 
L 549.569978 280.763853 
L 551.087156 278.775143 
L 554.492838 274.883173 
L 558.299036 271.179774 
L 562.392246 267.754515 
L 566.658965 264.696963 
L 570.985688 262.096688 
L 573.136082 260.996018 
L 575.258913 260.043256 
L 577.339994 259.249596 
L 579.365607 258.625764 
L 581.330082 258.174422 
L 583.23451 257.891459 
L 585.080191 257.772556 
L 586.868425 257.813393 
L 588.600513 258.009649 
L 590.277755 258.357003 
L 591.90145 258.851137 
L 593.472899 259.487729 
L 594.993402 260.26246 
L 596.464259 261.17101 
L 597.88677 262.209058 
L 599.262236 263.372284 
L 600.591957 264.656368 
L 603.119363 267.569829 
L 605.47939 270.914881 
L 607.682438 274.656962 
L 609.738909 278.761511 
L 611.659204 283.193967 
L 613.453725 287.919768 
L 615.132872 292.904354 
L 616.707047 298.113163 
L 618.89424 306.271192 
L 620.903752 314.739316 
L 623.367384 326.310913 
L 626.769599 343.708325 
L 630.069566 360.324289 
L 632.351422 370.506644 
L 634.164956 377.476993 
L 635.442121 381.741749 
L 636.785935 385.660468 
L 638.206797 389.19859 
L 639.715111 392.321552 
L 641.321276 394.994795 
L 643.035695 397.183756 
L 643.93675 398.085831 
L 644.868768 398.853875 
L 645.83305 399.483568 
L 646.830428 399.971729 
L 647.859714 400.320092 
L 648.919173 400.531714 
L 650.007074 400.609654 
L 651.121683 400.556968 
L 652.261267 400.376716 
L 653.424094 400.071955 
L 655.812542 399.101137 
L 658.273163 397.668977 
L 660.792093 395.79994 
L 663.355469 393.518488 
L 665.949425 390.849084 
L 668.560098 387.816192 
L 671.173624 384.444275 
L 673.776139 380.757796 
L 676.353779 376.781218 
L 678.89268 372.539005 
L 681.378978 368.055619 
L 683.798809 363.355525 
L 686.138309 358.463185 
L 688.383614 353.403062 
L 690.520859 348.19962 
L 692.536181 342.877321 
L 694.415717 337.46063 
L 696.145601 331.974009 
L 697.71197 326.441922 
L 699.100959 320.888832 
L 700.298706 315.339201 
L 701.291345 309.817494 
L 702.065013 304.348173 
L 702.605846 298.955701 
L 702.899979 293.664543 
L 702.93355 288.499161 
L 702.692693 283.484018 
L 702.163547 278.643575 
L 701.337261 273.996911 
L 700.220665 269.546261 
L 698.823649 265.290574 
L 697.156102 261.2288 
L 695.227912 257.359889 
L 693.04897 253.68279 
L 690.629164 250.196454 
L 687.978383 246.899829 
L 685.106517 243.791865 
L 682.023455 240.871512 
L 678.739085 238.13772 
L 675.263297 235.589438 
L 671.605981 233.225616 
L 667.777025 231.045203 
L 663.786318 229.047149 
L 659.64375 227.230405 
L 655.35921 225.593918 
L 650.942587 224.136639 
L 646.403769 222.857518 
L 641.752648 221.755505 
L 636.99911 220.829548 
L 632.153047 220.078597 
L 627.224346 219.501603 
L 622.222897 219.097515 
L 617.158589 218.865282 
L 612.041311 218.803854 
L 364.054426 238.880933 
L 364.054426 238.880933 
" clip-path="url(#p5307076856)" style="fill: none; stroke: #808080; stroke-opacity: 0.5; stroke-width: 20; stroke-linecap: round"/>
   </g>
   <g id="line2d_5">
    <path d="M 449.722623 419.574649 
L 480.157377 218.803854 
" clip-path="url(#p5307076856)" style="fill: none; stroke-dasharray: 11.1,4.8; stroke-dashoffset: 0; stroke: #000000; stroke-opacity: 0.7; stroke-width: 3"/>
   </g>
   <g id="patch_28">
    <path d="M 361.8 401.505278 
L 361.8 217.8 
" style="fill: none"/>
   </g>
   <g id="patch_29">
    <path d="M 705.6 401.505278 
L 705.6 217.8 
" style="fill: none"/>
   </g>
   <g id="patch_30">
    <path d="M 361.8 401.505278 
L 705.6 401.505278 
" style="fill: none"/>
   </g>
   <g id="patch_31">
    <path d="M 361.8 217.8 
L 705.6 217.8 
" style="fill: none"/>
   </g>
   <g id="text_4">
    <!-- Black-box decision boundary (model global) -->
    <g style="fill: #262626" transform="translate(417.31125 415.712858) scale(0.12 -0.12)">
     <defs>
      <path id="LiberationSans-42" d="M 3931 1241 
Q 3931 906 3800 670 
Q 3669 434 3447 286 
Q 3225 138 2931 69 
Q 2638 0 2313 0 
L 525 0 
L 525 4403 
L 2125 4403 
Q 2491 4403 2778 4342 
Q 3066 4281 3266 4150 
Q 3466 4019 3570 3817 
Q 3675 3616 3675 3334 
Q 3675 3150 3623 2987 
Q 3572 2825 3467 2692 
Q 3363 2559 3205 2464 
Q 3047 2369 2838 2322 
Q 3103 2291 3308 2200 
Q 3513 2109 3650 1968 
Q 3788 1828 3859 1642 
Q 3931 1456 3931 1241 
z
M 3075 3263 
Q 3075 3619 2831 3772 
Q 2588 3925 2125 3925 
L 1122 3925 
L 1122 2531 
L 2125 2531 
Q 2388 2531 2569 2582 
Q 2750 2634 2862 2729 
Q 2975 2825 3025 2959 
Q 3075 3094 3075 3263 
z
M 3328 1288 
Q 3328 1497 3251 1644 
Q 3175 1791 3031 1884 
Q 2888 1978 2686 2022 
Q 2484 2066 2234 2066 
L 1122 2066 
L 1122 478 
L 2281 478 
Q 2509 478 2701 515 
Q 2894 553 3033 647 
Q 3172 741 3250 897 
Q 3328 1053 3328 1288 
z
" transform="scale(0.015625)"/>
      <path id="LiberationSans-6b" d="M 2550 0 
L 1406 1544 
L 994 1203 
L 994 0 
L 431 0 
L 431 4638 
L 994 4638 
L 994 1741 
L 2478 3381 
L 3138 3381 
L 1766 1928 
L 3209 0 
L 2550 0 
z
" transform="scale(0.015625)"/>
      <path id="LiberationSans-2d" d="M 284 1450 
L 284 1950 
L 1847 1950 
L 1847 1450 
L 284 1450 
z
" transform="scale(0.015625)"/>
      <path id="LiberationSans-78" d="M 2503 0 
L 1594 1388 
L 678 0 
L 72 0 
L 1275 1738 
L 128 3381 
L 750 3381 
L 1594 2066 
L 2431 3381 
L 3059 3381 
L 1913 1744 
L 3131 0 
L 2503 0 
z
" transform="scale(0.015625)"/>
     </defs>
     <use xlink:href="#LiberationSans-42"/>
     <use xlink:href="#LiberationSans-6c" x="66.699219"/>
     <use xlink:href="#LiberationSans-61" x="88.916016"/>
     <use xlink:href="#LiberationSans-63" x="144.53125"/>
     <use xlink:href="#LiberationSans-6b" x="194.53125"/>
     <use xlink:href="#LiberationSans-2d" x="244.53125"/>
     <use xlink:href="#LiberationSans-62" x="277.832031"/>
     <use xlink:href="#LiberationSans-6f" x="333.447266"/>
     <use xlink:href="#LiberationSans-78" x="389.0625"/>
     <use xlink:href="#LiberationSans-20" x="439.0625"/>
     <use xlink:href="#LiberationSans-64" x="466.845703"/>
     <use xlink:href="#LiberationSans-65" x="522.460938"/>
     <use xlink:href="#LiberationSans-63" x="578.076172"/>
     <use xlink:href="#LiberationSans-69" x="628.076172"/>
     <use xlink:href="#LiberationSans-73" x="650.292969"/>
     <use xlink:href="#LiberationSans-69" x="700.292969"/>
     <use xlink:href="#LiberationSans-6f" x="722.509766"/>
     <use xlink:href="#LiberationSans-6e" x="778.125"/>
     <use xlink:href="#LiberationSans-20" x="833.740234"/>
     <use xlink:href="#LiberationSans-62" x="861.523438"/>
     <use xlink:href="#LiberationSans-6f" x="917.138672"/>
     <use xlink:href="#LiberationSans-75" x="972.753906"/>
     <use xlink:href="#LiberationSans-6e" x="1028.369141"/>
     <use xlink:href="#LiberationSans-64" x="1083.984375"/>
     <use xlink:href="#LiberationSans-61" x="1139.599609"/>
     <use xlink:href="#LiberationSans-72" x="1195.214844"/>
     <use xlink:href="#LiberationSans-79" x="1228.515625"/>
     <use xlink:href="#LiberationSans-20" x="1278.515625"/>
     <use xlink:href="#LiberationSans-28" x="1306.298828"/>
     <use xlink:href="#LiberationSans-6d" x="1339.599609"/>
     <use xlink:href="#LiberationSans-6f" x="1422.900391"/>
     <use xlink:href="#LiberationSans-64" x="1478.515625"/>
     <use xlink:href="#LiberationSans-65" x="1534.130859"/>
     <use xlink:href="#LiberationSans-6c" x="1589.746094"/>
     <use xlink:href="#LiberationSans-20" x="1611.962891"/>
     <use xlink:href="#LiberationSans-67" x="1639.746094"/>
     <use xlink:href="#LiberationSans-6c" x="1695.361328"/>
     <use xlink:href="#LiberationSans-6f" x="1717.578125"/>
     <use xlink:href="#LiberationSans-62" x="1773.193359"/>
     <use xlink:href="#LiberationSans-61" x="1828.808594"/>
     <use xlink:href="#LiberationSans-6c" x="1884.423828"/>
     <use xlink:href="#LiberationSans-29" x="1906.640625"/>
    </g>
   </g>
  </g>
 </g>
 <defs>
  <clipPath id="pc05d22aa7e">
   <rect x="7.2" y="7.2" width="343.8" height="183.705278"/>
  </clipPath>
  <clipPath id="p61595178de">
   <rect x="361.8" y="7.2" width="343.8" height="183.705278"/>
  </clipPath>
  <clipPath id="p14743d73dc">
   <rect x="7.2" y="217.8" width="343.8" height="183.705278"/>
  </clipPath>
  <clipPath id="p5307076856">
   <rect x="361.8" y="217.8" width="343.8" height="183.705278"/>
  </clipPath>
 </defs>
</svg>
