<?xml version="1.0" encoding="utf-8" standalone="no"?>
<!DOCTYPE svg PUBLIC "-//W3C//DTD SVG 1.1//EN"
  "http://www.w3.org/Graphics/SVG/1.1/DTD/svg11.dtd">
<svg xmlns:xlink="http://www.w3.org/1999/xlink" width="712.8pt" height="424.8pt" viewBox="0 0 712.8 424.8" xmlns="http://www.w3.org/2000/svg" version="1.1">
 <metadata>
  <rdf:RDF xmlns:dc="http://purl.org/dc/elements/1.1/" xmlns:cc="http://creativecommons.org/ns#" xmlns:rdf="http://www.w3.org/1999/02/22-rdf-syntax-ns#">
   <cc:Work>
    <dc:type rdf:resource="http://purl.org/dc/dcmitype/StillImage"/>
    <dc:date>2023-02-16T16:27:42.689182</dc:date>
    <dc:format>image/svg+xml</dc:format>
    <dc:creator>
     <cc:Agent>
      <dc:title>Matplotlib v3.6.2, https://matplotlib.org/</dc:title>
     </cc:Agent>
    </dc:creator>
   </cc:Work>
  </rdf:RDF>
 </metadata>
 <defs>
  <style type="text/css">*{stroke-linejoin: round; stroke-linecap: butt}</style>
 </defs>
 <g id="figure_1">
  <g id="patch_1">
   <path d="M 0 424.8 
L 712.8 424.8 
L 712.8 0 
L 0 0 
L 0 424.8 
z
" style="fill: none; opacity: 0"/>
  </g>
  <g id="axes_1">
   <g id="patch_2">
    <path d="M 7.2 207 
L 351 207 
L 351 7.2 
L 7.2 7.2 
z
" style="fill: #eaeaf2"/>
   </g>
   <g id="matplotlib.axis_1"/>
   <g id="matplotlib.axis_2"/>
   <g id="patch_3">
    <path d="M -1.817705 215.734426 
L 370.162623 215.734426 
L 370.162623 -2.62623 
L -1.817705 -2.62623 
z
" clip-path="url(#p13463a54d0)" style="fill: #0000ff; opacity: 0.1"/>
   </g>
   <g id="patch_4">
    <path d="M 9.454426 30.127869 
L 10.668266 31.200737 
L 12.084992 32.200876 
L 13.690394 33.133381 
L 15.470265 34.003345 
L 17.410395 34.815861 
L 19.496574 35.576022 
L 21.714595 36.288923 
L 24.050247 36.959657 
L 26.489323 37.593316 
L 29.017612 38.194995 
L 31.620907 38.769788 
L 34.284998 39.322786 
L 36.995675 39.859085 
L 39.738731 40.383778 
L 42.499955 40.901957 
L 45.26514 41.418717 
L 48.020076 41.93915 
L 50.750553 42.468351 
L 53.442364 43.011413 
L 56.081299 43.57343 
L 58.653149 44.159494 
L 61.143705 44.774699 
L 63.538758 45.42414 
L 65.824099 46.112908 
L 67.985519 46.846098 
L 70.008809 47.628804 
L 71.879761 48.466118 
L 73.584164 49.363134 
L 75.107811 50.324946 
L 76.436491 51.356647 
L 77.556331 52.463226 
L 78.463701 53.646469 
L 79.166871 54.904441 
L 79.674779 56.234998 
L 79.996365 57.635997 
L 80.140568 59.105293 
L 80.116325 60.640742 
L 79.932576 62.240202 
L 79.598259 63.901527 
L 79.122314 65.622575 
L 78.513678 67.401202 
L 77.781291 69.235263 
L 76.934091 71.122615 
L 75.981017 73.061113 
L 74.931008 75.048615 
L 73.793002 77.082977 
L 72.575939 79.162053 
L 71.288756 81.283702 
L 69.940393 83.445778 
L 68.539788 85.646139 
L 67.095881 87.88264 
L 65.617609 90.153137 
L 64.113911 92.455487 
L 62.593727 94.787545 
L 61.065995 97.147169 
L 59.539653 99.532214 
L 58.023641 101.940536 
L 56.526897 104.369992 
L 55.05836 106.818437 
L 53.626968 109.283728 
L 52.241661 111.763722 
L 50.911376 114.256273 
L 49.645054 116.759239 
L 48.451631 119.270476 
L 47.340048 121.787839 
L 46.319243 124.309186 
L 45.398154 126.832371 
L 44.585721 129.355252 
L 43.890881 131.875685 
L 43.322575 134.391525 
L 42.88974 136.900629 
L 42.601315 139.400853 
L 42.466239 141.890053 
L 42.49345 144.366086 
L 42.691888 146.826808 
L 43.070491 149.270074 
L 43.637403 151.693492 
L 44.389173 154.091043 
L 45.313577 156.453962 
L 46.398174 158.773417 
L 47.630521 161.040575 
L 48.998178 163.246604 
L 50.488703 165.382671 
L 52.089655 167.439944 
L 53.788592 169.40959 
L 55.573073 171.282778 
L 57.430655 173.050675 
L 59.348899 174.704447 
L 61.315363 176.235264 
L 63.317604 177.634292 
L 65.343182 178.892699 
L 67.379655 180.001652 
L 69.414581 180.95232 
L 71.43552 181.735869 
L 73.430029 182.343468 
L 75.385668 182.766284 
L 77.289997 182.995487 
L 79.133657 183.025596 
L 80.916224 182.860845 
L 82.638886 182.507221 
L 84.302832 181.970712 
L 85.90925 181.257305 
L 87.459328 180.372989 
L 88.954256 179.32375 
L 90.395222 178.115576 
L 91.783413 176.754455 
L 93.12002 175.246374 
L 94.40623 173.597321 
L 95.643232 171.813283 
L 96.832214 169.900248 
L 97.974365 167.864204 
L 99.070873 165.711137 
L 100.122927 163.447035 
L 101.131715 161.077887 
L 102.098426 158.609679 
L 103.024249 156.048399 
L 103.910371 153.400035 
L 104.757982 150.670574 
L 105.56827 147.866003 
L 106.342423 144.992311 
L 107.08163 142.055485 
L 107.78708 139.061511 
L 108.45996 136.016379 
L 109.10146 132.926075 
L 109.712768 129.796587 
L 110.295073 126.633902 
L 110.849562 123.444009 
L 111.377425 120.232894 
L 111.87985 117.006545 
L 112.358025 113.770949 
L 112.81314 110.532095 
L 113.246382 107.29597 
L 113.65894 104.06856 
L 114.052002 100.855855 
L 114.426758 97.66384 
L 114.784395 94.498505 
L 115.126102 91.365836 
L 115.453068 88.271821 
L 115.766481 85.222447 
L 116.06753 82.223703 
L 116.357403 79.281575 
L 116.637288 76.402051 
L 116.908375 73.591118 
L 117.171851 70.854765 
L 117.428905 68.198979 
L 117.680726 65.629747 
L 117.928502 63.153056 
L 118.173422 60.774895 
L 118.416675 58.501251 
L 118.659448 56.338111 
L 118.90293 54.291463 
L 119.14831 52.367295 
L 119.396776 50.571594 
L 119.649517 48.910347 
L 119.907721 47.389542 
L 120.172577 46.015167 
L 120.445273 44.79321 
L 120.726998 43.729656 
L 121.018941 42.830496 
L 121.322289 42.101715 
L 121.638232 41.549301 
L 121.967957 41.179242 
L 122.312644 40.99741 
L 122.673082 41.004961 
L 123.049543 41.196787 
L 123.442261 41.567353 
L 123.851474 42.111119 
L 124.277416 42.822548 
L 124.720323 43.696103 
L 125.180432 44.726245 
L 125.657977 45.907438 
L 126.153195 47.234142 
L 126.666321 48.700821 
L 127.197592 50.301936 
L 127.747242 52.03195 
L 128.315508 53.885325 
L 128.902626 55.856524 
L 129.508831 57.940007 
L 130.134359 60.130239 
L 130.779445 62.421681 
L 131.444326 64.808794 
L 132.129237 67.286043 
L 132.834414 69.847888 
L 133.560093 72.488792 
L 134.306509 75.203217 
L 135.073899 77.985625 
L 135.862497 80.830479 
L 136.672541 83.732241 
L 137.504265 86.685373 
L 138.357905 89.684337 
L 139.233697 92.723596 
L 140.131877 95.797612 
L 141.052681 98.900846 
L 141.996343 102.027762 
L 142.963102 105.172822 
L 143.95319 108.330487 
L 144.966846 111.49522 
L 146.004304 114.661483 
L 147.0658 117.823739 
L 148.151569 120.97645 
L 149.261849 124.114077 
L 150.396874 127.231084 
L 151.55688 130.321932 
L 152.742102 133.381083 
L 153.952778 136.403001 
L 155.189142 139.382146 
L 156.45143 142.312982 
L 157.739878 145.189971 
L 159.054722 148.007574 
L 160.396197 150.760254 
L 161.76454 153.442474 
L 163.159985 156.048695 
L 164.582769 158.57338 
L 166.033128 161.01099 
L 167.511297 163.355989 
L 169.017512 165.602839 
L 170.552009 167.746001 
L 172.115023 169.779938 
L 173.70679 171.699112 
L 175.327547 173.497986 
L 176.977528 175.171021 
L 178.65697 176.71268 
L 180.366108 178.117425 
L 182.105179 179.379719 
L 183.874417 180.494023 
L 185.674059 181.454799 
L 187.50434 182.256511 
L 189.365496 182.89362 
L 191.257763 183.360589 
L 193.181377 183.651879 
L 195.136573 183.761954 
L 197.123587 183.685274 
L 199.142655 183.416303 
L 201.194012 182.949504 
L 203.275893 182.282606 
L 205.379732 181.424441 
L 207.495525 180.386188 
L 209.613268 179.17903 
L 211.722956 177.814147 
L 213.814584 176.302722 
L 215.878147 174.655936 
L 217.903641 172.884971 
L 219.881061 171.001007 
L 221.800402 169.015227 
L 223.651659 166.938812 
L 225.424828 164.782943 
L 227.109904 162.558802 
L 228.696882 160.27757 
L 230.175758 157.95043 
L 231.536526 155.588561 
L 232.769183 153.203147 
L 233.863722 150.805368 
L 234.810141 148.406406 
L 235.598433 146.017442 
L 236.218594 143.649658 
L 236.66062 141.314236 
L 236.914505 139.022356 
L 236.970245 136.785201 
L 236.817835 134.613951 
L 236.447271 132.519789 
L 235.848548 130.513896 
L 235.01166 128.607453 
L 233.930261 126.80934 
L 232.618882 125.115294 
L 231.099454 123.516395 
L 229.393917 122.003717 
L 227.524211 120.568336 
L 225.512274 119.201325 
L 223.380047 117.893759 
L 221.149469 116.636712 
L 218.842479 115.421259 
L 216.481018 114.238475 
L 214.087025 113.079433 
L 211.682438 111.935209 
L 209.289199 110.796876 
L 206.929247 109.65551 
L 204.62452 108.502185 
L 202.396959 107.327975 
L 200.268503 106.123955 
L 198.261092 104.881199 
L 196.396665 103.590781 
L 194.697162 102.243777 
L 193.184523 100.831261 
L 191.880686 99.344307 
L 190.807592 97.77399 
L 189.987181 96.111384 
L 189.4391 94.348901 
L 189.161278 92.491643 
L 189.139652 90.551712 
L 189.360035 88.541285 
L 189.808237 86.472539 
L 190.470073 84.357652 
L 191.331352 82.208799 
L 192.377888 80.038158 
L 193.595493 77.857906 
L 194.969978 75.68022 
L 196.487156 73.517276 
L 198.132839 71.381252 
L 199.892838 69.284323 
L 201.752967 67.238669 
L 203.699036 65.256464 
L 205.716859 63.349886 
L 207.792246 61.531112 
L 209.911011 59.812319 
L 212.058965 58.205684 
L 214.22192 56.723383 
L 216.385688 55.377593 
L 218.536082 54.180493 
L 220.658913 53.144257 
L 222.739994 52.281063 
L 224.765607 51.602577 
L 226.730082 51.111692 
L 228.63451 50.803938 
L 230.480191 50.674618 
L 232.268425 50.719032 
L 234.000513 50.932482 
L 235.677755 51.310269 
L 237.30145 51.847695 
L 238.872899 52.54006 
L 240.393402 53.382666 
L 241.864259 54.370816 
L 243.28677 55.499808 
L 244.662236 56.764947 
L 245.991957 58.161531 
L 247.277233 59.684864 
L 248.519363 61.330246 
L 249.719649 63.092979 
L 250.87939 64.968363 
L 251.999886 66.951702 
L 253.082438 69.038294 
L 254.128345 71.223443 
L 255.138909 73.50245 
L 256.115428 75.870615 
L 257.059204 78.32324 
L 257.971536 80.855627 
L 258.853725 83.463077 
L 259.70707 86.140891 
L 260.532872 88.88437 
L 261.332431 91.688817 
L 262.107047 94.549531 
L 262.85802 97.461816 
L 263.586651 100.420971 
L 264.29424 103.422299 
L 264.982086 106.4611 
L 265.65149 109.532677 
L 266.303752 112.63233 
L 266.940172 115.75536 
L 267.562051 118.89707 
L 268.170688 122.052761 
L 268.767384 125.217733 
L 269.353438 128.387288 
L 269.930152 131.556728 
L 270.498825 134.721354 
L 271.060757 137.876467 
L 271.617248 141.017369 
L 272.169599 144.139361 
L 272.71911 147.237744 
L 273.267081 150.307819 
L 273.814812 153.344889 
L 274.363603 156.344254 
L 274.914754 159.301216 
L 275.469566 162.211077 
L 276.029338 165.069136 
L 276.595372 167.870696 
L 277.168966 170.611059 
L 277.751422 173.285525 
L 278.344038 175.889396 
L 278.948117 178.417973 
L 279.564956 180.866558 
L 280.195858 183.230452 
L 280.842121 185.504956 
L 281.505047 187.685372 
L 282.185935 189.767001 
L 282.886085 191.745144 
L 283.606797 193.615103 
L 284.349373 195.372179 
L 285.115111 197.011673 
L 285.905312 198.528887 
L 286.721276 199.919123 
L 287.564304 201.177681 
L 288.435695 202.299863 
L 289.33675 203.28097 
L 290.268768 204.116303 
L 291.23305 204.801165 
L 292.230428 205.332095 
L 293.259714 205.710978 
L 294.319173 205.941141 
L 295.407074 206.025909 
L 296.521683 205.968608 
L 297.661267 205.772563 
L 298.824094 205.441101 
L 300.00843 204.977548 
L 301.212542 204.385228 
L 302.434697 203.667469 
L 303.673163 202.827595 
L 304.926206 201.868933 
L 306.192093 200.794808 
L 307.469092 199.608547 
L 308.755469 198.313474 
L 310.04949 196.912917 
L 311.349425 195.4102 
L 312.653538 193.808649 
L 313.960098 192.111591 
L 315.267371 190.322351 
L 316.573624 188.444255 
L 317.877124 186.480628 
L 319.176139 184.434797 
L 320.468935 182.310087 
L 321.753779 180.109825 
L 323.028939 177.837335 
L 324.29268 175.495944 
L 325.543271 173.088978 
L 326.778978 170.619762 
L 327.998069 168.091622 
L 329.198809 165.507885 
L 330.379467 162.871875 
L 331.538309 160.186918 
L 332.673602 157.456341 
L 333.783614 154.68347 
L 334.86661 151.871629 
L 335.920859 149.024145 
L 336.944627 146.144344 
L 337.936181 143.235552 
L 338.893789 140.301094 
L 339.815717 137.344295 
L 340.700232 134.368483 
L 341.545601 131.376983 
L 342.350091 128.37312 
L 343.11197 125.36022 
L 343.829503 122.34161 
L 344.500959 119.320614 
L 345.124604 116.300559 
L 345.698706 113.284771 
L 346.22153 110.276576 
L 346.691345 107.279298 
L 347.106417 104.296265 
L 347.465013 101.330801 
L 347.7654 98.386233 
L 348.005846 95.465886 
L 348.184617 92.573087 
L 348.299979 89.711161 
L 348.350201 86.883434 
L 348.33355 84.093231 
L 348.248291 81.343879 
L 348.092693 78.638703 
L 347.865021 75.981029 
L 347.563547 73.374181 
L 347.18731 70.820578 
L 346.737261 68.320415 
L 346.214633 65.873548 
L 345.620665 63.479836 
L 344.956592 61.139134 
L 344.223649 58.851301 
L 343.423074 56.616194 
L 342.556102 54.433669 
L 341.623969 52.303584 
L 340.627912 50.225796 
L 339.569167 48.200163 
L 338.44897 46.226541 
L 337.268557 44.304788 
L 336.029164 42.43476 
L 334.732027 40.616316 
L 333.378383 38.849313 
L 331.969468 37.133607 
L 330.506517 35.469055 
L 328.990767 33.855516 
L 327.423455 32.292846 
L 325.805815 30.780902 
L 324.139085 29.319541 
L 322.4245 27.908622 
L 320.663297 26.548 
L 318.856712 25.237534 
L 317.005981 23.97708 
L 315.11234 22.766495 
L 313.177025 21.605637 
L 311.201272 20.494363 
L 309.186318 19.432531 
L 307.133399 18.419997 
L 305.04375 17.456618 
L 302.918608 16.542252 
L 300.75921 15.676756 
L 298.56679 14.859987 
L 296.342587 14.091803 
L 294.087834 13.37206 
L 291.803769 12.700616 
L 289.491629 12.077328 
L 287.152648 11.502053 
L 284.788063 10.974648 
L 282.39911 10.494971 
L 279.987026 10.062879 
L 277.553047 9.678229 
L 275.098408 9.340878 
L 272.624346 9.050683 
L 270.132097 8.807502 
L 267.622897 8.611192 
L 265.097982 8.46161 
L 262.558589 8.358613 
L 260.005953 8.302058 
L 257.441311 8.291803 
z
" clip-path="url(#p13463a54d0)" style="fill: #ff0000; opacity: 0.2; stroke: #ff0000; stroke-width: 0.3; stroke-linejoin: miter"/>
   </g>
   <g id="patch_5">
    <path d="M 7.2 207 
L 7.2 7.2 
" style="fill: none"/>
   </g>
   <g id="patch_6">
    <path d="M 351 207 
L 351 7.2 
" style="fill: none"/>
   </g>
   <g id="patch_7">
    <path d="M 7.2 207 
L 351 207 
" style="fill: none"/>
   </g>
   <g id="patch_8">
    <path d="M 7.2 7.2 
L 351 7.2 
" style="fill: none"/>
   </g>
   <g id="PathCollection_1">
    <defs>
     <path id="m51fce729e3" d="M -1.666667 5 
L 1.666667 5 
L 1.666667 1.666667 
L 5 1.666667 
L 5 -1.666667 
L 1.666667 -1.666667 
L 1.666667 -5 
L -1.666667 -5 
L -1.666667 -1.666667 
L -5 -1.666667 
L -5 1.666667 
L -1.666667 1.666667 
z
" style="stroke: #2ca02c; stroke-opacity: 0.9; stroke-width: 2"/>
    </defs>
    <g clip-path="url(#p13463a54d0)">
     <use xlink:href="#m51fce729e3" x="106.394754" y="95.636066" style="fill: #d62728; fill-opacity: 0.9; stroke: #2ca02c; stroke-opacity: 0.9; stroke-width: 2"/>
    </g>
   </g>
  </g>
  <g id="axes_2">
   <g id="patch_9">
    <path d="M 361.8 207 
L 705.6 207 
L 705.6 7.2 
L 361.8 7.2 
z
" style="fill: #eaeaf2"/>
   </g>
   <g id="matplotlib.axis_3"/>
   <g id="matplotlib.axis_4"/>
   <g id="patch_10">
    <path d="M 352.782295 215.734426 
L 724.762623 215.734426 
L 724.762623 -2.62623 
L 352.782295 -2.62623 
z
" clip-path="url(#p5588d298a3)" style="fill: #0000ff; opacity: 0.1"/>
   </g>
   <g id="patch_11">
    <path d="M 364.054426 30.127869 
L 365.268266 31.200737 
L 366.684992 32.200876 
L 368.290394 33.133381 
L 370.070265 34.003345 
L 372.010395 34.815861 
L 374.096574 35.576022 
L 376.314595 36.288923 
L 378.650247 36.959657 
L 381.089323 37.593316 
L 383.617612 38.194995 
L 386.220907 38.769788 
L 388.884998 39.322786 
L 391.595675 39.859085 
L 394.338731 40.383778 
L 397.099955 40.901957 
L 399.86514 41.418717 
L 402.620076 41.93915 
L 405.350553 42.468351 
L 408.042364 43.011413 
L 410.681299 43.57343 
L 413.253149 44.159494 
L 415.743705 44.774699 
L 418.138758 45.42414 
L 420.424099 46.112908 
L 422.585519 46.846098 
L 424.608809 47.628804 
L 426.479761 48.466118 
L 428.184164 49.363134 
L 429.707811 50.324946 
L 431.036491 51.356647 
L 432.156331 52.463226 
L 433.063701 53.646469 
L 433.766871 54.904441 
L 434.274779 56.234998 
L 434.596365 57.635997 
L 434.740568 59.105293 
L 434.716325 60.640742 
L 434.532576 62.240202 
L 434.198259 63.901527 
L 433.722314 65.622575 
L 433.113678 67.401202 
L 432.381291 69.235263 
L 431.534091 71.122615 
L 430.581017 73.061113 
L 429.531008 75.048615 
L 428.393002 77.082977 
L 427.175939 79.162053 
L 425.888756 81.283702 
L 424.540393 83.445778 
L 423.139788 85.646139 
L 421.695881 87.88264 
L 420.217609 90.153137 
L 418.713911 92.455487 
L 417.193727 94.787545 
L 415.665995 97.147169 
L 414.139653 99.532214 
L 412.623641 101.940536 
L 411.126897 104.369992 
L 409.65836 106.818437 
L 408.226968 109.283728 
L 406.841661 111.763722 
L 405.511376 114.256273 
L 404.245054 116.759239 
L 403.051631 119.270476 
L 401.940048 121.787839 
L 400.919243 124.309186 
L 399.998154 126.832371 
L 399.185721 129.355252 
L 398.490881 131.875685 
L 397.922575 134.391525 
L 397.48974 136.900629 
L 397.201315 139.400853 
L 397.066239 141.890053 
L 397.09345 144.366086 
L 397.291888 146.826808 
L 397.670491 149.270074 
L 398.237403 151.693492 
L 398.989173 154.091043 
L 399.913577 156.453962 
L 400.998174 158.773417 
L 402.230521 161.040575 
L 403.598178 163.246604 
L 405.088703 165.382671 
L 406.689655 167.439944 
L 408.388592 169.40959 
L 410.173073 171.282778 
L 412.030655 173.050675 
L 413.948899 174.704447 
L 415.915363 176.235264 
L 417.917604 177.634292 
L 419.943182 178.892699 
L 421.979655 180.001652 
L 424.014581 180.95232 
L 426.03552 181.735869 
L 428.030029 182.343468 
L 429.985668 182.766284 
L 431.889997 182.995487 
L 433.733657 183.025596 
L 435.516224 182.860845 
L 437.238886 182.507221 
L 438.902832 181.970712 
L 440.50925 181.257305 
L 442.059328 180.372989 
L 443.554256 179.32375 
L 444.995222 178.115576 
L 446.383413 176.754455 
L 447.72002 175.246374 
L 449.00623 173.597321 
L 450.243232 171.813283 
L 451.432214 169.900248 
L 452.574365 167.864204 
L 453.670873 165.711137 
L 454.722927 163.447035 
L 455.731715 161.077887 
L 456.698426 158.609679 
L 457.624249 156.048399 
L 458.510371 153.400035 
L 459.357982 150.670574 
L 460.16827 147.866003 
L 460.942423 144.992311 
L 461.68163 142.055485 
L 462.38708 139.061511 
L 463.05996 136.016379 
L 463.70146 132.926075 
L 464.312768 129.796587 
L 464.895073 126.633902 
L 465.449562 123.444009 
L 465.977425 120.232894 
L 466.47985 117.006545 
L 466.958025 113.770949 
L 467.41314 110.532095 
L 467.846382 107.29597 
L 468.25894 104.06856 
L 468.652002 100.855855 
L 469.026758 97.66384 
L 469.384395 94.498505 
L 469.726102 91.365836 
L 470.053068 88.271821 
L 470.366481 85.222447 
L 470.66753 82.223703 
L 470.957403 79.281575 
L 471.237288 76.402051 
L 471.508375 73.591118 
L 471.771851 70.854765 
L 472.028905 68.198979 
L 472.280726 65.629747 
L 472.528502 63.153056 
L 472.773422 60.774895 
L 473.016675 58.501251 
L 473.259448 56.338111 
L 473.50293 54.291463 
L 473.74831 52.367295 
L 473.996776 50.571594 
L 474.249517 48.910347 
L 474.507721 47.389542 
L 474.772577 46.015167 
L 475.045273 44.79321 
L 475.326998 43.729656 
L 475.618941 42.830496 
L 475.922289 42.101715 
L 476.238232 41.549301 
L 476.567957 41.179242 
L 476.912644 40.99741 
L 477.273082 41.004961 
L 477.649543 41.196787 
L 478.042261 41.567353 
L 478.451474 42.111119 
L 478.877416 42.822548 
L 479.320323 43.696103 
L 479.780432 44.726245 
L 480.257977 45.907438 
L 480.753195 47.234142 
L 481.266321 48.700821 
L 481.797592 50.301936 
L 482.347242 52.03195 
L 482.915508 53.885325 
L 483.502626 55.856524 
L 484.108831 57.940007 
L 484.734359 60.130239 
L 485.379445 62.421681 
L 486.044326 64.808794 
L 486.729237 67.286043 
L 487.434414 69.847888 
L 488.160093 72.488792 
L 488.906509 75.203217 
L 489.673899 77.985625 
L 490.462497 80.830479 
L 491.272541 83.732241 
L 492.104265 86.685373 
L 492.957905 89.684337 
L 493.833697 92.723596 
L 494.731877 95.797612 
L 495.652681 98.900846 
L 496.596343 102.027762 
L 497.563102 105.172822 
L 498.55319 108.330487 
L 499.566846 111.49522 
L 500.604304 114.661483 
L 501.6658 117.823739 
L 502.751569 120.97645 
L 503.861849 124.114077 
L 504.996874 127.231084 
L 506.15688 130.321932 
L 507.342102 133.381083 
L 508.552778 136.403001 
L 509.789142 139.382146 
L 511.05143 142.312982 
L 512.339878 145.189971 
L 513.654722 148.007574 
L 514.996197 150.760254 
L 516.36454 153.442474 
L 517.759985 156.048695 
L 519.182769 158.57338 
L 520.633128 161.01099 
L 522.111297 163.355989 
L 523.617512 165.602839 
L 525.152009 167.746001 
L 526.715023 169.779938 
L 528.30679 171.699112 
L 529.927547 173.497986 
L 531.577528 175.171021 
L 533.25697 176.71268 
L 534.966108 178.117425 
L 536.705179 179.379719 
L 538.474417 180.494023 
L 540.274059 181.454799 
L 542.10434 182.256511 
L 543.965496 182.89362 
L 545.857763 183.360589 
L 547.781377 183.651879 
L 549.736573 183.761954 
L 551.723587 183.685274 
L 553.742655 183.416303 
L 555.794012 182.949504 
L 557.875893 182.282606 
L 559.979732 181.424441 
L 562.095525 180.386188 
L 564.213268 179.17903 
L 566.322956 177.814147 
L 568.414584 176.302722 
L 570.478147 174.655936 
L 572.503641 172.884971 
L 574.481061 171.001007 
L 576.400402 169.015227 
L 578.251659 166.938812 
L 580.024828 164.782943 
L 581.709904 162.558802 
L 583.296882 160.27757 
L 584.775758 157.95043 
L 586.136526 155.588561 
L 587.369183 153.203147 
L 588.463722 150.805368 
L 589.410141 148.406406 
L 590.198433 146.017442 
L 590.818594 143.649658 
L 591.26062 141.314236 
L 591.514505 139.022356 
L 591.570245 136.785201 
L 591.417835 134.613951 
L 591.047271 132.519789 
L 590.448548 130.513896 
L 589.61166 128.607453 
L 588.530261 126.80934 
L 587.218882 125.115294 
L 585.699454 123.516395 
L 583.993917 122.003717 
L 582.124211 120.568336 
L 580.112274 119.201325 
L 577.980047 117.893759 
L 575.749469 116.636712 
L 573.442479 115.421259 
L 571.081018 114.238475 
L 568.687025 113.079433 
L 566.282438 111.935209 
L 563.889199 110.796876 
L 561.529247 109.65551 
L 559.22452 108.502185 
L 556.996959 107.327975 
L 554.868503 106.123955 
L 552.861092 104.881199 
L 550.996665 103.590781 
L 549.297162 102.243777 
L 547.784523 100.831261 
L 546.480686 99.344307 
L 545.407592 97.77399 
L 544.587181 96.111384 
L 544.0391 94.348901 
L 543.761278 92.491643 
L 543.739652 90.551712 
L 543.960035 88.541285 
L 544.408237 86.472539 
L 545.070073 84.357652 
L 545.931352 82.208799 
L 546.977888 80.038158 
L 548.195493 77.857906 
L 549.569978 75.68022 
L 551.087156 73.517276 
L 552.732839 71.381252 
L 554.492838 69.284323 
L 556.352967 67.238669 
L 558.299036 65.256464 
L 560.316859 63.349886 
L 562.392246 61.531112 
L 564.511011 59.812319 
L 566.658965 58.205684 
L 568.82192 56.723383 
L 570.985688 55.377593 
L 573.136082 54.180493 
L 575.258913 53.144257 
L 577.339994 52.281063 
L 579.365607 51.602577 
L 581.330082 51.111692 
L 583.23451 50.803938 
L 585.080191 50.674618 
L 586.868425 50.719032 
L 588.600513 50.932482 
L 590.277755 51.310269 
L 591.90145 51.847695 
L 593.472899 52.54006 
L 594.993402 53.382666 
L 596.464259 54.370816 
L 597.88677 55.499808 
L 599.262236 56.764947 
L 600.591957 58.161531 
L 601.877233 59.684864 
L 603.119363 61.330246 
L 604.319649 63.092979 
L 605.47939 64.968363 
L 606.599886 66.951702 
L 607.682438 69.038294 
L 608.728345 71.223443 
L 609.738909 73.50245 
L 610.715428 75.870615 
L 611.659204 78.32324 
L 612.571536 80.855627 
L 613.453725 83.463077 
L 614.30707 86.140891 
L 615.132872 88.88437 
L 615.932431 91.688817 
L 616.707047 94.549531 
L 617.45802 97.461816 
L 618.186651 100.420971 
L 618.89424 103.422299 
L 619.582086 106.4611 
L 620.25149 109.532677 
L 620.903752 112.63233 
L 621.540172 115.75536 
L 622.162051 118.89707 
L 622.770688 122.052761 
L 623.367384 125.217733 
L 623.953438 128.387288 
L 624.530152 131.556728 
L 625.098825 134.721354 
L 625.660757 137.876467 
L 626.217248 141.017369 
L 626.769599 144.139361 
L 627.31911 147.237744 
L 627.867081 150.307819 
L 628.414812 153.344889 
L 628.963603 156.344254 
L 629.514754 159.301216 
L 630.069566 162.211077 
L 630.629338 165.069136 
L 631.195372 167.870696 
L 631.768966 170.611059 
L 632.351422 173.285525 
L 632.944038 175.889396 
L 633.548117 178.417973 
L 634.164956 180.866558 
L 634.795858 183.230452 
L 635.442121 185.504956 
L 636.105047 187.685372 
L 636.785935 189.767001 
L 637.486085 191.745144 
L 638.206797 193.615103 
L 638.949373 195.372179 
L 639.715111 197.011673 
L 640.505312 198.528887 
L 641.321276 199.919123 
L 642.164304 201.177681 
L 643.035695 202.299863 
L 643.93675 203.28097 
L 644.868768 204.116303 
L 645.83305 204.801165 
L 646.830428 205.332095 
L 647.859714 205.710978 
L 648.919173 205.941141 
L 650.007074 206.025909 
L 651.121683 205.968608 
L 652.261267 205.772563 
L 653.424094 205.441101 
L 654.60843 204.977548 
L 655.812542 204.385228 
L 657.034697 203.667469 
L 658.273163 202.827595 
L 659.526206 201.868933 
L 660.792093 200.794808 
L 662.069092 199.608547 
L 663.355469 198.313474 
L 664.64949 196.912917 
L 665.949425 195.4102 
L 667.253538 193.808649 
L 668.560098 192.111591 
L 669.867371 190.322351 
L 671.173624 188.444255 
L 672.477124 186.480628 
L 673.776139 184.434797 
L 675.068935 182.310087 
L 676.353779 180.109825 
L 677.628939 177.837335 
L 678.89268 175.495944 
L 680.143271 173.088978 
L 681.378978 170.619762 
L 682.598069 168.091622 
L 683.798809 165.507885 
L 684.979467 162.871875 
L 686.138309 160.186918 
L 687.273602 157.456341 
L 688.383614 154.68347 
L 689.46661 151.871629 
L 690.520859 149.024145 
L 691.544627 146.144344 
L 692.536181 143.235552 
L 693.493789 140.301094 
L 694.415717 137.344295 
L 695.300232 134.368483 
L 696.145601 131.376983 
L 696.950091 128.37312 
L 697.71197 125.36022 
L 698.429503 122.34161 
L 699.100959 119.320614 
L 699.724604 116.300559 
L 700.298706 113.284771 
L 700.82153 110.276576 
L 701.291345 107.279298 
L 701.706417 104.296265 
L 702.065013 101.330801 
L 702.3654 98.386233 
L 702.605846 95.465886 
L 702.784617 92.573087 
L 702.899979 89.711161 
L 702.950201 86.883434 
L 702.93355 84.093231 
L 702.848291 81.343879 
L 702.692693 78.638703 
L 702.465021 75.981029 
L 702.163547 73.374181 
L 701.78731 70.820578 
L 701.337261 68.320415 
L 700.814633 65.873548 
L 700.220665 63.479836 
L 699.556592 61.139134 
L 698.823649 58.851301 
L 698.023074 56.616194 
L 697.156102 54.433669 
L 696.223969 52.303584 
L 695.227912 50.225796 
L 694.169167 48.200163 
L 693.04897 46.226541 
L 691.868557 44.304788 
L 690.629164 42.43476 
L 689.332027 40.616316 
L 687.978383 38.849313 
L 686.569468 37.133607 
L 685.106517 35.469055 
L 683.590767 33.855516 
L 682.023455 32.292846 
L 680.405815 30.780902 
L 678.739085 29.319541 
L 677.0245 27.908622 
L 675.263297 26.548 
L 673.456712 25.237534 
L 671.605981 23.97708 
L 669.71234 22.766495 
L 667.777025 21.605637 
L 665.801272 20.494363 
L 663.786318 19.432531 
L 661.733399 18.419997 
L 659.64375 17.456618 
L 657.518608 16.542252 
L 655.35921 15.676756 
L 653.16679 14.859987 
L 650.942587 14.091803 
L 648.687834 13.37206 
L 646.403769 12.700616 
L 644.091629 12.077328 
L 641.752648 11.502053 
L 639.388063 10.974648 
L 636.99911 10.494971 
L 634.587026 10.062879 
L 632.153047 9.678229 
L 629.698408 9.340878 
L 627.224346 9.050683 
L 624.732097 8.807502 
L 622.222897 8.611192 
L 619.697982 8.46161 
L 617.158589 8.358613 
L 614.605953 8.302058 
L 612.041311 8.291803 
z
" clip-path="url(#p5588d298a3)" style="fill: #ff0000; opacity: 0.2; stroke: #ff0000; stroke-width: 0.3; stroke-linejoin: miter"/>
   </g>
   <g id="patch_12">
    <path d="M 361.8 207 
L 361.8 7.2 
" style="fill: none"/>
   </g>
   <g id="patch_13">
    <path d="M 705.6 207 
L 705.6 7.2 
" style="fill: none"/>
   </g>
   <g id="patch_14">
    <path d="M 361.8 207 
L 705.6 207 
" style="fill: none"/>
   </g>
   <g id="patch_15">
    <path d="M 361.8 7.2 
L 705.6 7.2 
" style="fill: none"/>
   </g>
   <g id="PathCollection_2">
    <defs>
     <path id="m3c1ef4552d" d="M -1.666667 5 
L 1.666667 5 
L 1.666667 1.666667 
L 5 1.666667 
L 5 -1.666667 
L 1.666667 -1.666667 
L 1.666667 -5 
L -1.666667 -5 
L -1.666667 -1.666667 
L -5 -1.666667 
L -5 1.666667 
L -1.666667 1.666667 
z
" style="stroke: #d62728; stroke-opacity: 0.8; stroke-width: 0.3"/>
    </defs>
    <g clip-path="url(#p5588d298a3)">
     <use xlink:href="#m3c1ef4552d" x="471.945999" y="45.750596" style="fill: #d62728; fill-opacity: 0.8; stroke: #d62728; stroke-opacity: 0.8; stroke-width: 0.3"/>
     <use xlink:href="#m3c1ef4552d" x="457.035643" y="103.30501" style="fill: #d62728; fill-opacity: 0.8; stroke: #d62728; stroke-opacity: 0.8; stroke-width: 0.3"/>
     <use xlink:href="#m3c1ef4552d" x="453.056789" y="77.865001" style="fill: #d62728; fill-opacity: 0.8; stroke: #d62728; stroke-opacity: 0.8; stroke-width: 0.3"/>
     <use xlink:href="#m3c1ef4552d" x="453.159197" y="110.890624" style="fill: #d62728; fill-opacity: 0.8; stroke: #d62728; stroke-opacity: 0.8; stroke-width: 0.3"/>
     <use xlink:href="#m3c1ef4552d" x="431.829504" y="114.053287" style="fill: #d62728; fill-opacity: 0.8; stroke: #d62728; stroke-opacity: 0.8; stroke-width: 0.3"/>
     <use xlink:href="#m3c1ef4552d" x="443.869606" y="85.343178" style="fill: #d62728; fill-opacity: 0.8; stroke: #d62728; stroke-opacity: 0.8; stroke-width: 0.3"/>
     <use xlink:href="#m3c1ef4552d" x="445.641704" y="141.8948" style="fill: #d62728; fill-opacity: 0.8; stroke: #d62728; stroke-opacity: 0.8; stroke-width: 0.3"/>
     <use xlink:href="#m3c1ef4552d" x="451.790224" y="92.002896" style="fill: #d62728; fill-opacity: 0.8; stroke: #d62728; stroke-opacity: 0.8; stroke-width: 0.3"/>
     <use xlink:href="#m3c1ef4552d" x="441.533528" y="83.330416" style="fill: #d62728; fill-opacity: 0.8; stroke: #d62728; stroke-opacity: 0.8; stroke-width: 0.3"/>
     <use xlink:href="#m3c1ef4552d" x="450.839037" y="105.190231" style="fill: #d62728; fill-opacity: 0.8; stroke: #d62728; stroke-opacity: 0.8; stroke-width: 0.3"/>
     <use xlink:href="#m3c1ef4552d" x="450.82098" y="34.966364" style="fill: #d62728; fill-opacity: 0.8; stroke: #d62728; stroke-opacity: 0.8; stroke-width: 0.3"/>
     <use xlink:href="#m3c1ef4552d" x="460.76654" y="130.280433" style="fill: #d62728; fill-opacity: 0.8; stroke: #d62728; stroke-opacity: 0.8; stroke-width: 0.3"/>
     <use xlink:href="#m3c1ef4552d" x="438.537523" y="89.188053" style="fill: #d62728; fill-opacity: 0.8; stroke: #d62728; stroke-opacity: 0.8; stroke-width: 0.3"/>
    </g>
   </g>
   <g id="PathCollection_3">
    <defs>
     <path id="m2631653960" d="M 5 1.721551 
L -3.937065 1.721551 
L -3.937065 -2.601537 
L 5 -2.601537 
L 5 1.721551 
z
" style="stroke: #1f77b4; stroke-opacity: 0.8; stroke-width: 0.3"/>
    </defs>
    <g clip-path="url(#p5588d298a3)">
     <use xlink:href="#m2631653960" x="469.393295" y="100.164788" style="fill: #1f77b4; fill-opacity: 0.8; stroke: #1f77b4; stroke-opacity: 0.8; stroke-width: 0.3"/>
     <use xlink:href="#m2631653960" x="487.696395" y="70.499433" style="fill: #1f77b4; fill-opacity: 0.8; stroke: #1f77b4; stroke-opacity: 0.8; stroke-width: 0.3"/>
     <use xlink:href="#m2631653960" x="465.0859" y="158.303835" style="fill: #1f77b4; fill-opacity: 0.8; stroke: #1f77b4; stroke-opacity: 0.8; stroke-width: 0.3"/>
     <use xlink:href="#m2631653960" x="485.776232" y="103.031165" style="fill: #1f77b4; fill-opacity: 0.8; stroke: #1f77b4; stroke-opacity: 0.8; stroke-width: 0.3"/>
     <use xlink:href="#m2631653960" x="462.136534" y="142.302408" style="fill: #1f77b4; fill-opacity: 0.8; stroke: #1f77b4; stroke-opacity: 0.8; stroke-width: 0.3"/>
     <use xlink:href="#m2631653960" x="474.902505" y="135.623699" style="fill: #1f77b4; fill-opacity: 0.8; stroke: #1f77b4; stroke-opacity: 0.8; stroke-width: 0.3"/>
     <use xlink:href="#m2631653960" x="464.526261" y="159.823294" style="fill: #1f77b4; fill-opacity: 0.8; stroke: #1f77b4; stroke-opacity: 0.8; stroke-width: 0.3"/>
    </g>
   </g>
   <g id="PathCollection_4">
    <g clip-path="url(#p5588d298a3)">
     <use xlink:href="#m51fce729e3" x="460.994754" y="95.636066" style="fill: #d62728; fill-opacity: 0.9; stroke: #2ca02c; stroke-opacity: 0.9; stroke-width: 2"/>
    </g>
   </g>
  </g>
  <g id="axes_3">
   <g id="patch_16">
    <path d="M 7.2 417.6 
L 351 417.6 
L 351 217.8 
L 7.2 217.8 
z
" style="fill: #eaeaf2"/>
   </g>
   <g id="matplotlib.axis_5"/>
   <g id="matplotlib.axis_6"/>
   <g id="patch_17">
    <path d="M -1.817705 426.334426 
L 370.162623 426.334426 
L 370.162623 207.97377 
L -1.817705 207.97377 
z
" clip-path="url(#p786484f87c)" style="fill: #0000ff; opacity: 0.1"/>
   </g>
   <g id="patch_18">
    <path d="M 9.454426 240.727869 
L 10.668266 241.800737 
L 12.084992 242.800876 
L 13.690394 243.733381 
L 15.470265 244.603345 
L 17.410395 245.415861 
L 19.496574 246.176022 
L 21.714595 246.888923 
L 24.050247 247.559657 
L 26.489323 248.193316 
L 29.017612 248.794995 
L 31.620907 249.369788 
L 34.284998 249.922786 
L 36.995675 250.459085 
L 39.738731 250.983778 
L 42.499955 251.501957 
L 45.26514 252.018717 
L 48.020076 252.53915 
L 50.750553 253.068351 
L 53.442364 253.611413 
L 56.081299 254.17343 
L 58.653149 254.759494 
L 61.143705 255.374699 
L 63.538758 256.02414 
L 65.824099 256.712908 
L 67.985519 257.446098 
L 70.008809 258.228804 
L 71.879761 259.066118 
L 73.584164 259.963134 
L 75.107811 260.924946 
L 76.436491 261.956647 
L 77.556331 263.063226 
L 78.463701 264.246469 
L 79.166871 265.504441 
L 79.674779 266.834998 
L 79.996365 268.235997 
L 80.140568 269.705293 
L 80.116325 271.240742 
L 79.932576 272.840202 
L 79.598259 274.501527 
L 79.122314 276.222575 
L 78.513678 278.001202 
L 77.781291 279.835263 
L 76.934091 281.722615 
L 75.981017 283.661113 
L 74.931008 285.648615 
L 73.793002 287.682977 
L 72.575939 289.762053 
L 71.288756 291.883702 
L 69.940393 294.045778 
L 68.539788 296.246139 
L 67.095881 298.48264 
L 65.617609 300.753137 
L 64.113911 303.055487 
L 62.593727 305.387545 
L 61.065995 307.747169 
L 59.539653 310.132214 
L 58.023641 312.540536 
L 56.526897 314.969992 
L 55.05836 317.418437 
L 53.626968 319.883728 
L 52.241661 322.363722 
L 50.911376 324.856273 
L 49.645054 327.359239 
L 48.451631 329.870476 
L 47.340048 332.387839 
L 46.319243 334.909186 
L 45.398154 337.432371 
L 44.585721 339.955252 
L 43.890881 342.475685 
L 43.322575 344.991525 
L 42.88974 347.500629 
L 42.601315 350.000853 
L 42.466239 352.490053 
L 42.49345 354.966086 
L 42.691888 357.426808 
L 43.070491 359.870074 
L 43.637403 362.293492 
L 44.389173 364.691043 
L 45.313577 367.053962 
L 46.398174 369.373417 
L 47.630521 371.640575 
L 48.998178 373.846604 
L 50.488703 375.982671 
L 52.089655 378.039944 
L 53.788592 380.00959 
L 55.573073 381.882778 
L 57.430655 383.650675 
L 59.348899 385.304447 
L 61.315363 386.835264 
L 63.317604 388.234292 
L 65.343182 389.492699 
L 67.379655 390.601652 
L 69.414581 391.55232 
L 71.43552 392.335869 
L 73.430029 392.943468 
L 75.385668 393.366284 
L 77.289997 393.595487 
L 79.133657 393.625596 
L 80.916224 393.460845 
L 82.638886 393.107221 
L 84.302832 392.570712 
L 85.90925 391.857305 
L 87.459328 390.972989 
L 88.954256 389.92375 
L 90.395222 388.715576 
L 91.783413 387.354455 
L 93.12002 385.846374 
L 94.40623 384.197321 
L 95.643232 382.413283 
L 96.832214 380.500248 
L 97.974365 378.464204 
L 99.070873 376.311137 
L 100.122927 374.047035 
L 101.131715 371.677887 
L 102.098426 369.209679 
L 103.024249 366.648399 
L 103.910371 364.000035 
L 104.757982 361.270574 
L 105.56827 358.466003 
L 106.342423 355.592311 
L 107.08163 352.655485 
L 107.78708 349.661511 
L 108.45996 346.616379 
L 109.10146 343.526075 
L 109.712768 340.396587 
L 110.295073 337.233902 
L 110.849562 334.044009 
L 111.377425 330.832894 
L 111.87985 327.606545 
L 112.358025 324.370949 
L 112.81314 321.132095 
L 113.246382 317.89597 
L 113.65894 314.66856 
L 114.052002 311.455855 
L 114.426758 308.26384 
L 114.784395 305.098505 
L 115.126102 301.965836 
L 115.453068 298.871821 
L 115.766481 295.822447 
L 116.06753 292.823703 
L 116.357403 289.881575 
L 116.637288 287.002051 
L 116.908375 284.191118 
L 117.171851 281.454765 
L 117.428905 278.798979 
L 117.680726 276.229747 
L 117.928502 273.753056 
L 118.173422 271.374895 
L 118.416675 269.101251 
L 118.659448 266.938111 
L 118.90293 264.891463 
L 119.14831 262.967295 
L 119.396776 261.171594 
L 119.649517 259.510347 
L 119.907721 257.989542 
L 120.172577 256.615167 
L 120.445273 255.39321 
L 120.726998 254.329656 
L 121.018941 253.430496 
L 121.322289 252.701715 
L 121.638232 252.149301 
L 121.967957 251.779242 
L 122.312644 251.59741 
L 122.673082 251.604961 
L 123.049543 251.796787 
L 123.442261 252.167353 
L 123.851474 252.711119 
L 124.277416 253.422548 
L 124.720323 254.296103 
L 125.180432 255.326245 
L 125.657977 256.507438 
L 126.153195 257.834142 
L 126.666321 259.300821 
L 127.197592 260.901936 
L 127.747242 262.63195 
L 128.315508 264.485325 
L 128.902626 266.456524 
L 129.508831 268.540007 
L 130.134359 270.730239 
L 130.779445 273.021681 
L 131.444326 275.408794 
L 132.129237 277.886043 
L 132.834414 280.447888 
L 133.560093 283.088792 
L 134.306509 285.803217 
L 135.073899 288.585625 
L 135.862497 291.430479 
L 136.672541 294.332241 
L 137.504265 297.285373 
L 138.357905 300.284337 
L 139.233697 303.323596 
L 140.131877 306.397612 
L 141.052681 309.500846 
L 141.996343 312.627762 
L 142.963102 315.772822 
L 143.95319 318.930487 
L 144.966846 322.09522 
L 146.004304 325.261483 
L 147.0658 328.423739 
L 148.151569 331.57645 
L 149.261849 334.714077 
L 150.396874 337.831084 
L 151.55688 340.921932 
L 152.742102 343.981083 
L 153.952778 347.003001 
L 155.189142 349.982146 
L 156.45143 352.912982 
L 157.739878 355.789971 
L 159.054722 358.607574 
L 160.396197 361.360254 
L 161.76454 364.042474 
L 163.159985 366.648695 
L 164.582769 369.17338 
L 166.033128 371.61099 
L 167.511297 373.955989 
L 169.017512 376.202839 
L 170.552009 378.346001 
L 172.115023 380.379938 
L 173.70679 382.299112 
L 175.327547 384.097986 
L 176.977528 385.771021 
L 178.65697 387.31268 
L 180.366108 388.717425 
L 182.105179 389.979719 
L 183.874417 391.094023 
L 185.674059 392.054799 
L 187.50434 392.856511 
L 189.365496 393.49362 
L 191.257763 393.960589 
L 193.181377 394.251879 
L 195.136573 394.361954 
L 197.123587 394.285274 
L 199.142655 394.016303 
L 201.194012 393.549504 
L 203.275893 392.882606 
L 205.379732 392.024441 
L 207.495525 390.986188 
L 209.613268 389.77903 
L 211.722956 388.414147 
L 213.814584 386.902722 
L 215.878147 385.255936 
L 217.903641 383.484971 
L 219.881061 381.601007 
L 221.800402 379.615227 
L 223.651659 377.538812 
L 225.424828 375.382943 
L 227.109904 373.158802 
L 228.696882 370.87757 
L 230.175758 368.55043 
L 231.536526 366.188561 
L 232.769183 363.803147 
L 233.863722 361.405368 
L 234.810141 359.006406 
L 235.598433 356.617442 
L 236.218594 354.249658 
L 236.66062 351.914236 
L 236.914505 349.622356 
L 236.970245 347.385201 
L 236.817835 345.213951 
L 236.447271 343.119789 
L 235.848548 341.113896 
L 235.01166 339.207453 
L 233.930261 337.40934 
L 232.618882 335.715294 
L 231.099454 334.116395 
L 229.393917 332.603717 
L 227.524211 331.168336 
L 225.512274 329.801325 
L 223.380047 328.493759 
L 221.149469 327.236712 
L 218.842479 326.021259 
L 216.481018 324.838475 
L 214.087025 323.679433 
L 211.682438 322.535209 
L 209.289199 321.396876 
L 206.929247 320.25551 
L 204.62452 319.102185 
L 202.396959 317.927975 
L 200.268503 316.723955 
L 198.261092 315.481199 
L 196.396665 314.190781 
L 194.697162 312.843777 
L 193.184523 311.431261 
L 191.880686 309.944307 
L 190.807592 308.37399 
L 189.987181 306.711384 
L 189.4391 304.948901 
L 189.161278 303.091643 
L 189.139652 301.151712 
L 189.360035 299.141285 
L 189.808237 297.072539 
L 190.470073 294.957652 
L 191.331352 292.808799 
L 192.377888 290.638158 
L 193.595493 288.457906 
L 194.969978 286.28022 
L 196.487156 284.117276 
L 198.132839 281.981252 
L 199.892838 279.884323 
L 201.752967 277.838669 
L 203.699036 275.856464 
L 205.716859 273.949886 
L 207.792246 272.131112 
L 209.911011 270.412319 
L 212.058965 268.805684 
L 214.22192 267.323383 
L 216.385688 265.977593 
L 218.536082 264.780493 
L 220.658913 263.744257 
L 222.739994 262.881063 
L 224.765607 262.202577 
L 226.730082 261.711692 
L 228.63451 261.403938 
L 230.480191 261.274618 
L 232.268425 261.319032 
L 234.000513 261.532482 
L 235.677755 261.910269 
L 237.30145 262.447695 
L 238.872899 263.14006 
L 240.393402 263.982666 
L 241.864259 264.970816 
L 243.28677 266.099808 
L 244.662236 267.364947 
L 245.991957 268.761531 
L 247.277233 270.284864 
L 248.519363 271.930246 
L 249.719649 273.692979 
L 250.87939 275.568363 
L 251.999886 277.551702 
L 253.082438 279.638294 
L 254.128345 281.823443 
L 255.138909 284.10245 
L 256.115428 286.470615 
L 257.059204 288.92324 
L 257.971536 291.455627 
L 258.853725 294.063077 
L 259.70707 296.740891 
L 260.532872 299.48437 
L 261.332431 302.288817 
L 262.107047 305.149531 
L 262.85802 308.061816 
L 263.586651 311.020971 
L 264.29424 314.022299 
L 264.982086 317.0611 
L 265.65149 320.132677 
L 266.303752 323.23233 
L 266.940172 326.35536 
L 267.562051 329.49707 
L 268.170688 332.652761 
L 268.767384 335.817733 
L 269.353438 338.987288 
L 269.930152 342.156728 
L 270.498825 345.321354 
L 271.060757 348.476467 
L 271.617248 351.617369 
L 272.169599 354.739361 
L 272.71911 357.837744 
L 273.267081 360.907819 
L 273.814812 363.944889 
L 274.363603 366.944254 
L 274.914754 369.901216 
L 275.469566 372.811077 
L 276.029338 375.669136 
L 276.595372 378.470696 
L 277.168966 381.211059 
L 277.751422 383.885525 
L 278.344038 386.489396 
L 278.948117 389.017973 
L 279.564956 391.466558 
L 280.195858 393.830452 
L 280.842121 396.104956 
L 281.505047 398.285372 
L 282.185935 400.367001 
L 282.886085 402.345144 
L 283.606797 404.215103 
L 284.349373 405.972179 
L 285.115111 407.611673 
L 285.905312 409.128887 
L 286.721276 410.519123 
L 287.564304 411.777681 
L 288.435695 412.899863 
L 289.33675 413.88097 
L 290.268768 414.716303 
L 291.23305 415.401165 
L 292.230428 415.932095 
L 293.259714 416.310978 
L 294.319173 416.541141 
L 295.407074 416.625909 
L 296.521683 416.568608 
L 297.661267 416.372563 
L 298.824094 416.041101 
L 300.00843 415.577548 
L 301.212542 414.985228 
L 302.434697 414.267469 
L 303.673163 413.427595 
L 304.926206 412.468933 
L 306.192093 411.394808 
L 307.469092 410.208547 
L 308.755469 408.913474 
L 310.04949 407.512917 
L 311.349425 406.0102 
L 312.653538 404.408649 
L 313.960098 402.711591 
L 315.267371 400.922351 
L 316.573624 399.044255 
L 317.877124 397.080628 
L 319.176139 395.034797 
L 320.468935 392.910087 
L 321.753779 390.709825 
L 323.028939 388.437335 
L 324.29268 386.095944 
L 325.543271 383.688978 
L 326.778978 381.219762 
L 327.998069 378.691622 
L 329.198809 376.107885 
L 330.379467 373.471875 
L 331.538309 370.786918 
L 332.673602 368.056341 
L 333.783614 365.28347 
L 334.86661 362.471629 
L 335.920859 359.624145 
L 336.944627 356.744344 
L 337.936181 353.835552 
L 338.893789 350.901094 
L 339.815717 347.944295 
L 340.700232 344.968483 
L 341.545601 341.976983 
L 342.350091 338.97312 
L 343.11197 335.96022 
L 343.829503 332.94161 
L 344.500959 329.920614 
L 345.124604 326.900559 
L 345.698706 323.884771 
L 346.22153 320.876576 
L 346.691345 317.879298 
L 347.106417 314.896265 
L 347.465013 311.930801 
L 347.7654 308.986233 
L 348.005846 306.065886 
L 348.184617 303.173087 
L 348.299979 300.311161 
L 348.350201 297.483434 
L 348.33355 294.693231 
L 348.248291 291.943879 
L 348.092693 289.238703 
L 347.865021 286.581029 
L 347.563547 283.974181 
L 347.18731 281.420578 
L 346.737261 278.920415 
L 346.214633 276.473548 
L 345.620665 274.079836 
L 344.956592 271.739134 
L 344.223649 269.451301 
L 343.423074 267.216194 
L 342.556102 265.033669 
L 341.623969 262.903584 
L 340.627912 260.825796 
L 339.569167 258.800163 
L 338.44897 256.826541 
L 337.268557 254.904788 
L 336.029164 253.03476 
L 334.732027 251.216316 
L 333.378383 249.449313 
L 331.969468 247.733607 
L 330.506517 246.069055 
L 328.990767 244.455516 
L 327.423455 242.892846 
L 325.805815 241.380902 
L 324.139085 239.919541 
L 322.4245 238.508622 
L 320.663297 237.148 
L 318.856712 235.837534 
L 317.005981 234.57708 
L 315.11234 233.366495 
L 313.177025 232.205637 
L 311.201272 231.094363 
L 309.186318 230.032531 
L 307.133399 229.019997 
L 305.04375 228.056618 
L 302.918608 227.142252 
L 300.75921 226.276756 
L 298.56679 225.459987 
L 296.342587 224.691803 
L 294.087834 223.97206 
L 291.803769 223.300616 
L 289.491629 222.677328 
L 287.152648 222.102053 
L 284.788063 221.574648 
L 282.39911 221.094971 
L 279.987026 220.662879 
L 277.553047 220.278229 
L 275.098408 219.940878 
L 272.624346 219.650683 
L 270.132097 219.407502 
L 267.622897 219.211192 
L 265.097982 219.06161 
L 262.558589 218.958613 
L 260.005953 218.902058 
L 257.441311 218.891803 
z
" clip-path="url(#p786484f87c)" style="fill: #ff0000; opacity: 0.2; stroke: #ff0000; stroke-width: 0.3; stroke-linejoin: miter"/>
   </g>
   <g id="patch_19">
    <path d="M 7.2 417.6 
L 7.2 217.8 
" style="fill: none"/>
   </g>
   <g id="patch_20">
    <path d="M 351 417.6 
L 351 217.8 
" style="fill: none"/>
   </g>
   <g id="patch_21">
    <path d="M 7.2 417.6 
L 351 417.6 
" style="fill: none"/>
   </g>
   <g id="patch_22">
    <path d="M 7.2 217.8 
L 351 217.8 
" style="fill: none"/>
   </g>
   <g id="PathCollection_5">
    <path d="M 116.57486 258.664014 
L 118.117139 258.664014 
L 118.117139 257.121735 
L 119.659417 257.121735 
L 119.659417 255.579457 
L 118.117139 255.579457 
L 118.117139 254.037178 
L 116.57486 254.037178 
L 116.57486 255.579457 
L 115.032582 255.579457 
L 115.032582 257.121735 
L 116.57486 257.121735 
z
" clip-path="url(#p786484f87c)" style="fill: #d62728; fill-opacity: 0.8; stroke: #d62728; stroke-opacity: 0.8; stroke-width: 0.3"/>
    <path d="M 100.55493 319.54715 
L 104.316356 319.54715 
L 104.316356 315.785724 
L 108.077783 315.785724 
L 108.077783 312.024297 
L 104.316356 312.024297 
L 104.316356 308.262871 
L 100.55493 308.262871 
L 100.55493 312.024297 
L 96.793503 312.024297 
L 96.793503 315.785724 
L 100.55493 315.785724 
z
" clip-path="url(#p786484f87c)" style="fill: #d62728; fill-opacity: 0.8; stroke: #d62728; stroke-opacity: 0.8; stroke-width: 0.3"/>
    <path d="M 97.205278 292.219534 
L 99.7083 292.219534 
L 99.7083 289.716512 
L 102.211322 289.716512 
L 102.211322 287.213489 
L 99.7083 287.213489 
L 99.7083 284.710467 
L 97.205278 284.710467 
L 97.205278 287.213489 
L 94.702255 287.213489 
L 94.702255 289.716512 
L 97.205278 289.716512 
z
" clip-path="url(#p786484f87c)" style="fill: #d62728; fill-opacity: 0.8; stroke: #d62728; stroke-opacity: 0.8; stroke-width: 0.3"/>
    <path d="M 97.225034 325.493113 
L 99.89336 325.493113 
L 99.89336 322.824787 
L 102.561686 322.824787 
L 102.561686 320.156461 
L 99.89336 320.156461 
L 99.89336 317.488135 
L 97.225034 317.488135 
L 97.225034 320.156461 
L 94.556707 320.156461 
L 94.556707 322.824787 
L 97.225034 322.824787 
z
" clip-path="url(#p786484f87c)" style="fill: #d62728; fill-opacity: 0.8; stroke: #d62728; stroke-opacity: 0.8; stroke-width: 0.3"/>
    <path d="M 76.28117 327.498289 
L 78.177838 327.498289 
L 78.177838 325.601621 
L 80.074506 325.601621 
L 80.074506 323.704952 
L 78.177838 323.704952 
L 78.177838 321.808284 
L 76.28117 321.808284 
L 76.28117 323.704952 
L 74.384502 323.704952 
L 74.384502 325.601621 
L 76.28117 325.601621 
z
" clip-path="url(#p786484f87c)" style="fill: #d62728; fill-opacity: 0.8; stroke: #d62728; stroke-opacity: 0.8; stroke-width: 0.3"/>
    <path d="M 88.023178 299.682463 
L 90.516035 299.682463 
L 90.516035 297.189606 
L 93.008892 297.189606 
L 93.008892 294.696749 
L 90.516035 294.696749 
L 90.516035 292.203892 
L 88.023178 292.203892 
L 88.023178 294.696749 
L 85.53032 294.696749 
L 85.53032 297.189606 
L 88.023178 297.189606 
z
" clip-path="url(#p786484f87c)" style="fill: #d62728; fill-opacity: 0.8; stroke: #d62728; stroke-opacity: 0.8; stroke-width: 0.3"/>
    <path d="M 90.251669 354.864906 
L 91.83174 354.864906 
L 91.83174 353.284835 
L 93.41181 353.284835 
L 93.41181 351.704765 
L 91.83174 351.704765 
L 91.83174 350.124694 
L 90.251669 350.124694 
L 90.251669 351.704765 
L 88.671599 351.704765 
L 88.671599 353.284835 
L 90.251669 353.284835 
z
" clip-path="url(#p786484f87c)" style="fill: #d62728; fill-opacity: 0.8; stroke: #d62728; stroke-opacity: 0.8; stroke-width: 0.3"/>
    <path d="M 95.415341 307.927546 
L 98.965107 307.927546 
L 98.965107 304.377779 
L 102.514874 304.377779 
L 102.514874 300.828013 
L 98.965107 300.828013 
L 98.965107 297.278246 
L 95.415341 297.278246 
L 95.415341 300.828013 
L 91.865574 300.828013 
L 91.865574 304.377779 
L 95.415341 304.377779 
z
" clip-path="url(#p786484f87c)" style="fill: #d62728; fill-opacity: 0.8; stroke: #d62728; stroke-opacity: 0.8; stroke-width: 0.3"/>
    <path d="M 85.77282 297.412541 
L 88.094237 297.412541 
L 88.094237 295.091124 
L 90.415654 295.091124 
L 90.415654 292.769707 
L 88.094237 292.769707 
L 88.094237 290.44829 
L 85.77282 290.44829 
L 85.77282 292.769707 
L 83.451403 292.769707 
L 83.451403 295.091124 
L 85.77282 295.091124 
z
" clip-path="url(#p786484f87c)" style="fill: #d62728; fill-opacity: 0.8; stroke: #d62728; stroke-opacity: 0.8; stroke-width: 0.3"/>
    <path d="M 94.75188 320.251703 
L 97.726194 320.251703 
L 97.726194 317.277389 
L 100.700509 317.277389 
L 100.700509 314.303074 
L 97.726194 314.303074 
L 97.726194 311.328759 
L 94.75188 311.328759 
L 94.75188 314.303074 
L 91.777565 314.303074 
L 91.777565 317.277389 
L 94.75188 317.277389 
z
" clip-path="url(#p786484f87c)" style="fill: #d62728; fill-opacity: 0.8; stroke: #d62728; stroke-opacity: 0.8; stroke-width: 0.3"/>
    <path d="M 95.518543 247.673677 
L 96.923418 247.673677 
L 96.923418 246.268801 
L 98.328294 246.268801 
L 98.328294 244.863926 
L 96.923418 244.863926 
L 96.923418 243.459051 
L 95.518543 243.459051 
L 95.518543 244.863926 
L 94.113667 244.863926 
L 94.113667 246.268801 
L 95.518543 246.268801 
z
" clip-path="url(#p786484f87c)" style="fill: #d62728; fill-opacity: 0.8; stroke: #d62728; stroke-opacity: 0.8; stroke-width: 0.3"/>
    <path d="M 105.230919 343.687298 
L 107.102162 343.687298 
L 107.102162 341.816055 
L 108.973405 341.816055 
L 108.973405 339.944812 
L 107.102162 339.944812 
L 107.102162 338.073569 
L 105.230919 338.073569 
L 105.230919 339.944812 
L 103.359676 339.944812 
L 103.359676 341.816055 
L 105.230919 341.816055 
z
" clip-path="url(#p786484f87c)" style="fill: #d62728; fill-opacity: 0.8; stroke: #d62728; stroke-opacity: 0.8; stroke-width: 0.3"/>
    <path d="M 82.781334 303.256621 
L 85.093712 303.256621 
L 85.093712 300.944243 
L 87.406091 300.944243 
L 87.406091 298.631864 
L 85.093712 298.631864 
L 85.093712 296.319485 
L 82.781334 296.319485 
L 82.781334 298.631864 
L 80.468955 298.631864 
L 80.468955 300.944243 
L 82.781334 300.944243 
z
" clip-path="url(#p786484f87c)" style="fill: #d62728; fill-opacity: 0.8; stroke: #d62728; stroke-opacity: 0.8; stroke-width: 0.3"/>
   </g>
   <g id="PathCollection_6">
    <path d="M 120.207801 312.629058 
L 110.529841 312.629058 
L 110.529841 307.947581 
L 120.207801 307.947581 
L 120.207801 312.629058 
z
" clip-path="url(#p786484f87c)" style="fill: #1f77b4; fill-opacity: 0.8; stroke: #1f77b4; stroke-opacity: 0.8; stroke-width: 0.3"/>
    <path d="M 135.847422 282.04664 
L 130.930201 282.04664 
L 130.930201 279.668053 
L 135.847422 279.668053 
L 135.847422 282.04664 
z
" clip-path="url(#p786484f87c)" style="fill: #1f77b4; fill-opacity: 0.8; stroke: #1f77b4; stroke-opacity: 0.8; stroke-width: 0.3"/>
    <path d="M 112.570807 369.62169 
L 108.844216 369.62169 
L 108.844216 367.819042 
L 112.570807 367.819042 
L 112.570807 369.62169 
z
" clip-path="url(#p786484f87c)" style="fill: #1f77b4; fill-opacity: 0.8; stroke: #1f77b4; stroke-opacity: 0.8; stroke-width: 0.3"/>
    <path d="M 134.472813 314.766212 
L 128.58046 314.766212 
L 128.58046 311.915929 
L 134.472813 311.915929 
L 134.472813 314.766212 
z
" clip-path="url(#p786484f87c)" style="fill: #1f77b4; fill-opacity: 0.8; stroke: #1f77b4; stroke-opacity: 0.8; stroke-width: 0.3"/>
    <path d="M 109.954663 353.734994 
L 105.632468 353.734994 
L 105.632468 351.644238 
L 109.954663 351.644238 
L 109.954663 353.734994 
z
" clip-path="url(#p786484f87c)" style="fill: #1f77b4; fill-opacity: 0.8; stroke: #1f77b4; stroke-opacity: 0.8; stroke-width: 0.3"/>
    <path d="M 122.845868 347.099404 
L 118.299828 347.099404 
L 118.299828 344.900368 
L 122.845868 344.900368 
L 122.845868 347.099404 
z
" clip-path="url(#p786484f87c)" style="fill: #1f77b4; fill-opacity: 0.8; stroke: #1f77b4; stroke-opacity: 0.8; stroke-width: 0.3"/>
    <path d="M 111.986938 371.132806 
L 108.303657 371.132806 
L 108.303657 369.351108 
L 111.986938 369.351108 
L 111.986938 371.132806 
z
" clip-path="url(#p786484f87c)" style="fill: #1f77b4; fill-opacity: 0.8; stroke: #1f77b4; stroke-opacity: 0.8; stroke-width: 0.3"/>
   </g>
   <g id="PathCollection_7">
    <defs>
     <path id="mdedfacbd19" d="M -2.635231 7.905694 
L 2.635231 7.905694 
L 2.635231 2.635231 
L 7.905694 2.635231 
L 7.905694 -2.635231 
L 2.635231 -2.635231 
L 2.635231 -7.905694 
L -2.635231 -7.905694 
L -2.635231 -2.635231 
L -7.905694 -2.635231 
L -7.905694 2.635231 
L -2.635231 2.635231 
z
" style="stroke: #2ca02c; stroke-opacity: 0.9; stroke-width: 2"/>
    </defs>
    <g clip-path="url(#p786484f87c)">
     <use xlink:href="#mdedfacbd19" x="106.394754" y="306.236066" style="fill: #d62728; fill-opacity: 0.9; stroke: #2ca02c; stroke-opacity: 0.9; stroke-width: 2"/>
    </g>
   </g>
  </g>
  <g id="axes_4">
   <g id="patch_23">
    <path d="M 361.8 417.6 
L 705.6 417.6 
L 705.6 217.8 
L 361.8 217.8 
z
" style="fill: #eaeaf2"/>
   </g>
   <g id="matplotlib.axis_7"/>
   <g id="matplotlib.axis_8"/>
   <g id="patch_24">
    <path d="M 352.782295 426.334426 
L 724.762623 426.334426 
L 724.762623 207.97377 
L 352.782295 207.97377 
z
" clip-path="url(#pd3b354efb4)" style="fill: #0000ff; opacity: 0.1"/>
   </g>
   <g id="patch_25">
    <path d="M 364.054426 240.727869 
L 365.268266 241.800737 
L 366.684992 242.800876 
L 368.290394 243.733381 
L 370.070265 244.603345 
L 372.010395 245.415861 
L 374.096574 246.176022 
L 376.314595 246.888923 
L 378.650247 247.559657 
L 381.089323 248.193316 
L 383.617612 248.794995 
L 386.220907 249.369788 
L 388.884998 249.922786 
L 391.595675 250.459085 
L 394.338731 250.983778 
L 397.099955 251.501957 
L 399.86514 252.018717 
L 402.620076 252.53915 
L 405.350553 253.068351 
L 408.042364 253.611413 
L 410.681299 254.17343 
L 413.253149 254.759494 
L 415.743705 255.374699 
L 418.138758 256.02414 
L 420.424099 256.712908 
L 422.585519 257.446098 
L 424.608809 258.228804 
L 426.479761 259.066118 
L 428.184164 259.963134 
L 429.707811 260.924946 
L 431.036491 261.956647 
L 432.156331 263.063226 
L 433.063701 264.246469 
L 433.766871 265.504441 
L 434.274779 266.834998 
L 434.596365 268.235997 
L 434.740568 269.705293 
L 434.716325 271.240742 
L 434.532576 272.840202 
L 434.198259 274.501527 
L 433.722314 276.222575 
L 433.113678 278.001202 
L 432.381291 279.835263 
L 431.534091 281.722615 
L 430.581017 283.661113 
L 429.531008 285.648615 
L 428.393002 287.682977 
L 427.175939 289.762053 
L 425.888756 291.883702 
L 424.540393 294.045778 
L 423.139788 296.246139 
L 421.695881 298.48264 
L 420.217609 300.753137 
L 418.713911 303.055487 
L 417.193727 305.387545 
L 415.665995 307.747169 
L 414.139653 310.132214 
L 412.623641 312.540536 
L 411.126897 314.969992 
L 409.65836 317.418437 
L 408.226968 319.883728 
L 406.841661 322.363722 
L 405.511376 324.856273 
L 404.245054 327.359239 
L 403.051631 329.870476 
L 401.940048 332.387839 
L 400.919243 334.909186 
L 399.998154 337.432371 
L 399.185721 339.955252 
L 398.490881 342.475685 
L 397.922575 344.991525 
L 397.48974 347.500629 
L 397.201315 350.000853 
L 397.066239 352.490053 
L 397.09345 354.966086 
L 397.291888 357.426808 
L 397.670491 359.870074 
L 398.237403 362.293492 
L 398.989173 364.691043 
L 399.913577 367.053962 
L 400.998174 369.373417 
L 402.230521 371.640575 
L 403.598178 373.846604 
L 405.088703 375.982671 
L 406.689655 378.039944 
L 408.388592 380.00959 
L 410.173073 381.882778 
L 412.030655 383.650675 
L 413.948899 385.304447 
L 415.915363 386.835264 
L 417.917604 388.234292 
L 419.943182 389.492699 
L 421.979655 390.601652 
L 424.014581 391.55232 
L 426.03552 392.335869 
L 428.030029 392.943468 
L 429.985668 393.366284 
L 431.889997 393.595487 
L 433.733657 393.625596 
L 435.516224 393.460845 
L 437.238886 393.107221 
L 438.902832 392.570712 
L 440.50925 391.857305 
L 442.059328 390.972989 
L 443.554256 389.92375 
L 444.995222 388.715576 
L 446.383413 387.354455 
L 447.72002 385.846374 
L 449.00623 384.197321 
L 450.243232 382.413283 
L 451.432214 380.500248 
L 452.574365 378.464204 
L 453.670873 376.311137 
L 454.722927 374.047035 
L 455.731715 371.677887 
L 456.698426 369.209679 
L 457.624249 366.648399 
L 458.510371 364.000035 
L 459.357982 361.270574 
L 460.16827 358.466003 
L 460.942423 355.592311 
L 461.68163 352.655485 
L 462.38708 349.661511 
L 463.05996 346.616379 
L 463.70146 343.526075 
L 464.312768 340.396587 
L 464.895073 337.233902 
L 465.449562 334.044009 
L 465.977425 330.832894 
L 466.47985 327.606545 
L 466.958025 324.370949 
L 467.41314 321.132095 
L 467.846382 317.89597 
L 468.25894 314.66856 
L 468.652002 311.455855 
L 469.026758 308.26384 
L 469.384395 305.098505 
L 469.726102 301.965836 
L 470.053068 298.871821 
L 470.366481 295.822447 
L 470.66753 292.823703 
L 470.957403 289.881575 
L 471.237288 287.002051 
L 471.508375 284.191118 
L 471.771851 281.454765 
L 472.028905 278.798979 
L 472.280726 276.229747 
L 472.528502 273.753056 
L 472.773422 271.374895 
L 473.016675 269.101251 
L 473.259448 266.938111 
L 473.50293 264.891463 
L 473.74831 262.967295 
L 473.996776 261.171594 
L 474.249517 259.510347 
L 474.507721 257.989542 
L 474.772577 256.615167 
L 475.045273 255.39321 
L 475.326998 254.329656 
L 475.618941 253.430496 
L 475.922289 252.701715 
L 476.238232 252.149301 
L 476.567957 251.779242 
L 476.912644 251.59741 
L 477.273082 251.604961 
L 477.649543 251.796787 
L 478.042261 252.167353 
L 478.451474 252.711119 
L 478.877416 253.422548 
L 479.320323 254.296103 
L 479.780432 255.326245 
L 480.257977 256.507438 
L 480.753195 257.834142 
L 481.266321 259.300821 
L 481.797592 260.901936 
L 482.347242 262.63195 
L 482.915508 264.485325 
L 483.502626 266.456524 
L 484.108831 268.540007 
L 484.734359 270.730239 
L 485.379445 273.021681 
L 486.044326 275.408794 
L 486.729237 277.886043 
L 487.434414 280.447888 
L 488.160093 283.088792 
L 488.906509 285.803217 
L 489.673899 288.585625 
L 490.462497 291.430479 
L 491.272541 294.332241 
L 492.104265 297.285373 
L 492.957905 300.284337 
L 493.833697 303.323596 
L 494.731877 306.397612 
L 495.652681 309.500846 
L 496.596343 312.627762 
L 497.563102 315.772822 
L 498.55319 318.930487 
L 499.566846 322.09522 
L 500.604304 325.261483 
L 501.6658 328.423739 
L 502.751569 331.57645 
L 503.861849 334.714077 
L 504.996874 337.831084 
L 506.15688 340.921932 
L 507.342102 343.981083 
L 508.552778 347.003001 
L 509.789142 349.982146 
L 511.05143 352.912982 
L 512.339878 355.789971 
L 513.654722 358.607574 
L 514.996197 361.360254 
L 516.36454 364.042474 
L 517.759985 366.648695 
L 519.182769 369.17338 
L 520.633128 371.61099 
L 522.111297 373.955989 
L 523.617512 376.202839 
L 525.152009 378.346001 
L 526.715023 380.379938 
L 528.30679 382.299112 
L 529.927547 384.097986 
L 531.577528 385.771021 
L 533.25697 387.31268 
L 534.966108 388.717425 
L 536.705179 389.979719 
L 538.474417 391.094023 
L 540.274059 392.054799 
L 542.10434 392.856511 
L 543.965496 393.49362 
L 545.857763 393.960589 
L 547.781377 394.251879 
L 549.736573 394.361954 
L 551.723587 394.285274 
L 553.742655 394.016303 
L 555.794012 393.549504 
L 557.875893 392.882606 
L 559.979732 392.024441 
L 562.095525 390.986188 
L 564.213268 389.77903 
L 566.322956 388.414147 
L 568.414584 386.902722 
L 570.478147 385.255936 
L 572.503641 383.484971 
L 574.481061 381.601007 
L 576.400402 379.615227 
L 578.251659 377.538812 
L 580.024828 375.382943 
L 581.709904 373.158802 
L 583.296882 370.87757 
L 584.775758 368.55043 
L 586.136526 366.188561 
L 587.369183 363.803147 
L 588.463722 361.405368 
L 589.410141 359.006406 
L 590.198433 356.617442 
L 590.818594 354.249658 
L 591.26062 351.914236 
L 591.514505 349.622356 
L 591.570245 347.385201 
L 591.417835 345.213951 
L 591.047271 343.119789 
L 590.448548 341.113896 
L 589.61166 339.207453 
L 588.530261 337.40934 
L 587.218882 335.715294 
L 585.699454 334.116395 
L 583.993917 332.603717 
L 582.124211 331.168336 
L 580.112274 329.801325 
L 577.980047 328.493759 
L 575.749469 327.236712 
L 573.442479 326.021259 
L 571.081018 324.838475 
L 568.687025 323.679433 
L 566.282438 322.535209 
L 563.889199 321.396876 
L 561.529247 320.25551 
L 559.22452 319.102185 
L 556.996959 317.927975 
L 554.868503 316.723955 
L 552.861092 315.481199 
L 550.996665 314.190781 
L 549.297162 312.843777 
L 547.784523 311.431261 
L 546.480686 309.944307 
L 545.407592 308.37399 
L 544.587181 306.711384 
L 544.0391 304.948901 
L 543.761278 303.091643 
L 543.739652 301.151712 
L 543.960035 299.141285 
L 544.408237 297.072539 
L 545.070073 294.957652 
L 545.931352 292.808799 
L 546.977888 290.638158 
L 548.195493 288.457906 
L 549.569978 286.28022 
L 551.087156 284.117276 
L 552.732839 281.981252 
L 554.492838 279.884323 
L 556.352967 277.838669 
L 558.299036 275.856464 
L 560.316859 273.949886 
L 562.392246 272.131112 
L 564.511011 270.412319 
L 566.658965 268.805684 
L 568.82192 267.323383 
L 570.985688 265.977593 
L 573.136082 264.780493 
L 575.258913 263.744257 
L 577.339994 262.881063 
L 579.365607 262.202577 
L 581.330082 261.711692 
L 583.23451 261.403938 
L 585.080191 261.274618 
L 586.868425 261.319032 
L 588.600513 261.532482 
L 590.277755 261.910269 
L 591.90145 262.447695 
L 593.472899 263.14006 
L 594.993402 263.982666 
L 596.464259 264.970816 
L 597.88677 266.099808 
L 599.262236 267.364947 
L 600.591957 268.761531 
L 601.877233 270.284864 
L 603.119363 271.930246 
L 604.319649 273.692979 
L 605.47939 275.568363 
L 606.599886 277.551702 
L 607.682438 279.638294 
L 608.728345 281.823443 
L 609.738909 284.10245 
L 610.715428 286.470615 
L 611.659204 288.92324 
L 612.571536 291.455627 
L 613.453725 294.063077 
L 614.30707 296.740891 
L 615.132872 299.48437 
L 615.932431 302.288817 
L 616.707047 305.149531 
L 617.45802 308.061816 
L 618.186651 311.020971 
L 618.89424 314.022299 
L 619.582086 317.0611 
L 620.25149 320.132677 
L 620.903752 323.23233 
L 621.540172 326.35536 
L 622.162051 329.49707 
L 622.770688 332.652761 
L 623.367384 335.817733 
L 623.953438 338.987288 
L 624.530152 342.156728 
L 625.098825 345.321354 
L 625.660757 348.476467 
L 626.217248 351.617369 
L 626.769599 354.739361 
L 627.31911 357.837744 
L 627.867081 360.907819 
L 628.414812 363.944889 
L 628.963603 366.944254 
L 629.514754 369.901216 
L 630.069566 372.811077 
L 630.629338 375.669136 
L 631.195372 378.470696 
L 631.768966 381.211059 
L 632.351422 383.885525 
L 632.944038 386.489396 
L 633.548117 389.017973 
L 634.164956 391.466558 
L 634.795858 393.830452 
L 635.442121 396.104956 
L 636.105047 398.285372 
L 636.785935 400.367001 
L 637.486085 402.345144 
L 638.206797 404.215103 
L 638.949373 405.972179 
L 639.715111 407.611673 
L 640.505312 409.128887 
L 641.321276 410.519123 
L 642.164304 411.777681 
L 643.035695 412.899863 
L 643.93675 413.88097 
L 644.868768 414.716303 
L 645.83305 415.401165 
L 646.830428 415.932095 
L 647.859714 416.310978 
L 648.919173 416.541141 
L 650.007074 416.625909 
L 651.121683 416.568608 
L 652.261267 416.372563 
L 653.424094 416.041101 
L 654.60843 415.577548 
L 655.812542 414.985228 
L 657.034697 414.267469 
L 658.273163 413.427595 
L 659.526206 412.468933 
L 660.792093 411.394808 
L 662.069092 410.208547 
L 663.355469 408.913474 
L 664.64949 407.512917 
L 665.949425 406.0102 
L 667.253538 404.408649 
L 668.560098 402.711591 
L 669.867371 400.922351 
L 671.173624 399.044255 
L 672.477124 397.080628 
L 673.776139 395.034797 
L 675.068935 392.910087 
L 676.353779 390.709825 
L 677.628939 388.437335 
L 678.89268 386.095944 
L 680.143271 383.688978 
L 681.378978 381.219762 
L 682.598069 378.691622 
L 683.798809 376.107885 
L 684.979467 373.471875 
L 686.138309 370.786918 
L 687.273602 368.056341 
L 688.383614 365.28347 
L 689.46661 362.471629 
L 690.520859 359.624145 
L 691.544627 356.744344 
L 692.536181 353.835552 
L 693.493789 350.901094 
L 694.415717 347.944295 
L 695.300232 344.968483 
L 696.145601 341.976983 
L 696.950091 338.97312 
L 697.71197 335.96022 
L 698.429503 332.94161 
L 699.100959 329.920614 
L 699.724604 326.900559 
L 700.298706 323.884771 
L 700.82153 320.876576 
L 701.291345 317.879298 
L 701.706417 314.896265 
L 702.065013 311.930801 
L 702.3654 308.986233 
L 702.605846 306.065886 
L 702.784617 303.173087 
L 702.899979 300.311161 
L 702.950201 297.483434 
L 702.93355 294.693231 
L 702.848291 291.943879 
L 702.692693 289.238703 
L 702.465021 286.581029 
L 702.163547 283.974181 
L 701.78731 281.420578 
L 701.337261 278.920415 
L 700.814633 276.473548 
L 700.220665 274.079836 
L 699.556592 271.739134 
L 698.823649 269.451301 
L 698.023074 267.216194 
L 697.156102 265.033669 
L 696.223969 262.903584 
L 695.227912 260.825796 
L 694.169167 258.800163 
L 693.04897 256.826541 
L 691.868557 254.904788 
L 690.629164 253.03476 
L 689.332027 251.216316 
L 687.978383 249.449313 
L 686.569468 247.733607 
L 685.106517 246.069055 
L 683.590767 244.455516 
L 682.023455 242.892846 
L 680.405815 241.380902 
L 678.739085 239.919541 
L 677.0245 238.508622 
L 675.263297 237.148 
L 673.456712 235.837534 
L 671.605981 234.57708 
L 669.71234 233.366495 
L 667.777025 232.205637 
L 665.801272 231.094363 
L 663.786318 230.032531 
L 661.733399 229.019997 
L 659.64375 228.056618 
L 657.518608 227.142252 
L 655.35921 226.276756 
L 653.16679 225.459987 
L 650.942587 224.691803 
L 648.687834 223.97206 
L 646.403769 223.300616 
L 644.091629 222.677328 
L 641.752648 222.102053 
L 639.388063 221.574648 
L 636.99911 221.094971 
L 634.587026 220.662879 
L 632.153047 220.278229 
L 629.698408 219.940878 
L 627.224346 219.650683 
L 624.732097 219.407502 
L 622.222897 219.211192 
L 619.697982 219.06161 
L 617.158589 218.958613 
L 614.605953 218.902058 
L 612.041311 218.891803 
z
" clip-path="url(#pd3b354efb4)" style="fill: #ff0000; opacity: 0.2; stroke: #ff0000; stroke-width: 0.3; stroke-linejoin: miter"/>
   </g>
   <g id="line2d_1">
    <path d="M 451.318848 425.8 
L 480.157377 218.891803 
" clip-path="url(#pd3b354efb4)" style="fill: none; stroke-dasharray: 11.1,4.8; stroke-dashoffset: 0; stroke: #000000; stroke-opacity: 0.7; stroke-width: 3"/>
   </g>
   <g id="patch_26">
    <path d="M 361.8 417.6 
L 361.8 217.8 
" style="fill: none"/>
   </g>
   <g id="patch_27">
    <path d="M 705.6 417.6 
L 705.6 217.8 
" style="fill: none"/>
   </g>
   <g id="patch_28">
    <path d="M 361.8 417.6 
L 705.6 417.6 
" style="fill: none"/>
   </g>
   <g id="patch_29">
    <path d="M 361.8 217.8 
L 705.6 217.8 
" style="fill: none"/>
   </g>
   <g id="PathCollection_8">
    <path d="M 471.17486 258.664014 
L 472.717139 258.664014 
L 472.717139 257.121735 
L 474.259417 257.121735 
L 474.259417 255.579457 
L 472.717139 255.579457 
L 472.717139 254.037178 
L 471.17486 254.037178 
L 471.17486 255.579457 
L 469.632582 255.579457 
L 469.632582 257.121735 
L 471.17486 257.121735 
z
" clip-path="url(#pd3b354efb4)" style="fill: #d62728; fill-opacity: 0.8; stroke: #d62728; stroke-opacity: 0.8; stroke-width: 0.3"/>
    <path d="M 455.15493 319.54715 
L 458.916356 319.54715 
L 458.916356 315.785724 
L 462.677783 315.785724 
L 462.677783 312.024297 
L 458.916356 312.024297 
L 458.916356 308.262871 
L 455.15493 308.262871 
L 455.15493 312.024297 
L 451.393503 312.024297 
L 451.393503 315.785724 
L 455.15493 315.785724 
z
" clip-path="url(#pd3b354efb4)" style="fill: #d62728; fill-opacity: 0.8; stroke: #d62728; stroke-opacity: 0.8; stroke-width: 0.3"/>
    <path d="M 451.805278 292.219534 
L 454.3083 292.219534 
L 454.3083 289.716512 
L 456.811322 289.716512 
L 456.811322 287.213489 
L 454.3083 287.213489 
L 454.3083 284.710467 
L 451.805278 284.710467 
L 451.805278 287.213489 
L 449.302255 287.213489 
L 449.302255 289.716512 
L 451.805278 289.716512 
z
" clip-path="url(#pd3b354efb4)" style="fill: #d62728; fill-opacity: 0.8; stroke: #d62728; stroke-opacity: 0.8; stroke-width: 0.3"/>
    <path d="M 451.825034 325.493113 
L 454.49336 325.493113 
L 454.49336 322.824787 
L 457.161686 322.824787 
L 457.161686 320.156461 
L 454.49336 320.156461 
L 454.49336 317.488135 
L 451.825034 317.488135 
L 451.825034 320.156461 
L 449.156707 320.156461 
L 449.156707 322.824787 
L 451.825034 322.824787 
z
" clip-path="url(#pd3b354efb4)" style="fill: #d62728; fill-opacity: 0.8; stroke: #d62728; stroke-opacity: 0.8; stroke-width: 0.3"/>
    <path d="M 430.88117 327.498289 
L 432.777838 327.498289 
L 432.777838 325.601621 
L 434.674506 325.601621 
L 434.674506 323.704952 
L 432.777838 323.704952 
L 432.777838 321.808284 
L 430.88117 321.808284 
L 430.88117 323.704952 
L 428.984502 323.704952 
L 428.984502 325.601621 
L 430.88117 325.601621 
z
" clip-path="url(#pd3b354efb4)" style="fill: #d62728; fill-opacity: 0.8; stroke: #d62728; stroke-opacity: 0.8; stroke-width: 0.3"/>
    <path d="M 442.623178 299.682463 
L 445.116035 299.682463 
L 445.116035 297.189606 
L 447.608892 297.189606 
L 447.608892 294.696749 
L 445.116035 294.696749 
L 445.116035 292.203892 
L 442.623178 292.203892 
L 442.623178 294.696749 
L 440.13032 294.696749 
L 440.13032 297.189606 
L 442.623178 297.189606 
z
" clip-path="url(#pd3b354efb4)" style="fill: #d62728; fill-opacity: 0.8; stroke: #d62728; stroke-opacity: 0.8; stroke-width: 0.3"/>
    <path d="M 444.851669 354.864906 
L 446.43174 354.864906 
L 446.43174 353.284835 
L 448.01181 353.284835 
L 448.01181 351.704765 
L 446.43174 351.704765 
L 446.43174 350.124694 
L 444.851669 350.124694 
L 444.851669 351.704765 
L 443.271599 351.704765 
L 443.271599 353.284835 
L 444.851669 353.284835 
z
" clip-path="url(#pd3b354efb4)" style="fill: #d62728; fill-opacity: 0.8; stroke: #d62728; stroke-opacity: 0.8; stroke-width: 0.3"/>
    <path d="M 450.015341 307.927546 
L 453.565107 307.927546 
L 453.565107 304.377779 
L 457.114874 304.377779 
L 457.114874 300.828013 
L 453.565107 300.828013 
L 453.565107 297.278246 
L 450.015341 297.278246 
L 450.015341 300.828013 
L 446.465574 300.828013 
L 446.465574 304.377779 
L 450.015341 304.377779 
z
" clip-path="url(#pd3b354efb4)" style="fill: #d62728; fill-opacity: 0.8; stroke: #d62728; stroke-opacity: 0.8; stroke-width: 0.3"/>
    <path d="M 440.37282 297.412541 
L 442.694237 297.412541 
L 442.694237 295.091124 
L 445.015654 295.091124 
L 445.015654 292.769707 
L 442.694237 292.769707 
L 442.694237 290.44829 
L 440.37282 290.44829 
L 440.37282 292.769707 
L 438.051403 292.769707 
L 438.051403 295.091124 
L 440.37282 295.091124 
z
" clip-path="url(#pd3b354efb4)" style="fill: #d62728; fill-opacity: 0.8; stroke: #d62728; stroke-opacity: 0.8; stroke-width: 0.3"/>
    <path d="M 449.35188 320.251703 
L 452.326194 320.251703 
L 452.326194 317.277389 
L 455.300509 317.277389 
L 455.300509 314.303074 
L 452.326194 314.303074 
L 452.326194 311.328759 
L 449.35188 311.328759 
L 449.35188 314.303074 
L 446.377565 314.303074 
L 446.377565 317.277389 
L 449.35188 317.277389 
z
" clip-path="url(#pd3b354efb4)" style="fill: #d62728; fill-opacity: 0.8; stroke: #d62728; stroke-opacity: 0.8; stroke-width: 0.3"/>
    <path d="M 450.118543 247.673677 
L 451.523418 247.673677 
L 451.523418 246.268801 
L 452.928294 246.268801 
L 452.928294 244.863926 
L 451.523418 244.863926 
L 451.523418 243.459051 
L 450.118543 243.459051 
L 450.118543 244.863926 
L 448.713667 244.863926 
L 448.713667 246.268801 
L 450.118543 246.268801 
z
" clip-path="url(#pd3b354efb4)" style="fill: #d62728; fill-opacity: 0.8; stroke: #d62728; stroke-opacity: 0.8; stroke-width: 0.3"/>
    <path d="M 459.830919 343.687298 
L 461.702162 343.687298 
L 461.702162 341.816055 
L 463.573405 341.816055 
L 463.573405 339.944812 
L 461.702162 339.944812 
L 461.702162 338.073569 
L 459.830919 338.073569 
L 459.830919 339.944812 
L 457.959676 339.944812 
L 457.959676 341.816055 
L 459.830919 341.816055 
z
" clip-path="url(#pd3b354efb4)" style="fill: #d62728; fill-opacity: 0.8; stroke: #d62728; stroke-opacity: 0.8; stroke-width: 0.3"/>
    <path d="M 437.381334 303.256621 
L 439.693712 303.256621 
L 439.693712 300.944243 
L 442.006091 300.944243 
L 442.006091 298.631864 
L 439.693712 298.631864 
L 439.693712 296.319485 
L 437.381334 296.319485 
L 437.381334 298.631864 
L 435.068955 298.631864 
L 435.068955 300.944243 
L 437.381334 300.944243 
z
" clip-path="url(#pd3b354efb4)" style="fill: #d62728; fill-opacity: 0.8; stroke: #d62728; stroke-opacity: 0.8; stroke-width: 0.3"/>
   </g>
   <g id="PathCollection_9">
    <path d="M 474.807801 312.629058 
L 465.129841 312.629058 
L 465.129841 307.947581 
L 474.807801 307.947581 
L 474.807801 312.629058 
z
" clip-path="url(#pd3b354efb4)" style="fill: #1f77b4; fill-opacity: 0.8; stroke: #1f77b4; stroke-opacity: 0.8; stroke-width: 0.3"/>
    <path d="M 490.447422 282.04664 
L 485.530201 282.04664 
L 485.530201 279.668053 
L 490.447422 279.668053 
L 490.447422 282.04664 
z
" clip-path="url(#pd3b354efb4)" style="fill: #1f77b4; fill-opacity: 0.8; stroke: #1f77b4; stroke-opacity: 0.8; stroke-width: 0.3"/>
    <path d="M 467.170807 369.62169 
L 463.444216 369.62169 
L 463.444216 367.819042 
L 467.170807 367.819042 
L 467.170807 369.62169 
z
" clip-path="url(#pd3b354efb4)" style="fill: #1f77b4; fill-opacity: 0.8; stroke: #1f77b4; stroke-opacity: 0.8; stroke-width: 0.3"/>
    <path d="M 489.072813 314.766212 
L 483.18046 314.766212 
L 483.18046 311.915929 
L 489.072813 311.915929 
L 489.072813 314.766212 
z
" clip-path="url(#pd3b354efb4)" style="fill: #1f77b4; fill-opacity: 0.8; stroke: #1f77b4; stroke-opacity: 0.8; stroke-width: 0.3"/>
    <path d="M 464.554663 353.734994 
L 460.232468 353.734994 
L 460.232468 351.644238 
L 464.554663 351.644238 
L 464.554663 353.734994 
z
" clip-path="url(#pd3b354efb4)" style="fill: #1f77b4; fill-opacity: 0.8; stroke: #1f77b4; stroke-opacity: 0.8; stroke-width: 0.3"/>
    <path d="M 477.445868 347.099404 
L 472.899828 347.099404 
L 472.899828 344.900368 
L 477.445868 344.900368 
L 477.445868 347.099404 
z
" clip-path="url(#pd3b354efb4)" style="fill: #1f77b4; fill-opacity: 0.8; stroke: #1f77b4; stroke-opacity: 0.8; stroke-width: 0.3"/>
    <path d="M 466.586938 371.132806 
L 462.903657 371.132806 
L 462.903657 369.351108 
L 466.586938 369.351108 
L 466.586938 371.132806 
z
" clip-path="url(#pd3b354efb4)" style="fill: #1f77b4; fill-opacity: 0.8; stroke: #1f77b4; stroke-opacity: 0.8; stroke-width: 0.3"/>
   </g>
   <g id="PathCollection_10">
    <g clip-path="url(#pd3b354efb4)">
     <use xlink:href="#mdedfacbd19" x="460.994754" y="306.236066" style="fill: #d62728; fill-opacity: 0.9; stroke: #2ca02c; stroke-opacity: 0.9; stroke-width: 2"/>
    </g>
   </g>
  </g>
 </g>
 <defs>
  <clipPath id="p13463a54d0">
   <rect x="7.2" y="7.2" width="343.8" height="199.8"/>
  </clipPath>
  <clipPath id="p5588d298a3">
   <rect x="361.8" y="7.2" width="343.8" height="199.8"/>
  </clipPath>
  <clipPath id="p786484f87c">
   <rect x="7.2" y="217.8" width="343.8" height="199.8"/>
  </clipPath>
  <clipPath id="pd3b354efb4">
   <rect x="361.8" y="217.8" width="343.8" height="199.8"/>
  </clipPath>
 </defs>
</svg>
